<?xml version="1.0" standalone="no"?>
<!DOCTYPE svg PUBLIC "-//W3C//DTD SVG 20010904//EN"
 "http://www.w3.org/TR/2001/REC-SVG-20010904/DTD/svg10.dtd">
<svg version="1.0" xmlns="http://www.w3.org/2000/svg"
 width="512.000000pt" height="512.000000pt" viewBox="0 0 512.000000 512.000000"
 preserveAspectRatio="xMidYMid meet">
<metadata>
Created by potrace 1.11, written by Peter Selinger 2001-2013
</metadata>
<g transform="translate(0.000000,512.000000) scale(0.100000,-0.100000)"
fill="#000000" stroke="none">
<path d="M2419 5017 c-2 -3 -49 -7 -104 -11 -55 -4 -118 -10 -140 -14 -22 -5
-52 -8 -67 -7 -15 1 -25 -1 -23 -5 2 -4 -8 -8 -23 -8 -15 -1 -36 -4 -47 -6
-82 -21 -108 -26 -113 -21 -3 2 -10 0 -17 -5 -6 -5 -22 -12 -36 -14 -13 -3
-25 -5 -26 -7 -2 -1 -7 -3 -13 -4 -5 -1 -11 -3 -12 -5 -2 -1 -10 -3 -18 -5 -8
-2 -45 -14 -82 -28 -37 -14 -69 -22 -72 -19 -3 3 -6 0 -6 -6 0 -7 -3 -11 -7
-10 -5 1 -32 -10 -62 -25 -63 -31 -64 -31 -56 -14 4 6 1 5 -7 -4 -15 -19 -78
-53 -78 -42 0 4 -6 -1 -13 -12 -8 -10 -19 -15 -25 -11 -7 4 -12 2 -12 -3 0 -6
-7 -11 -15 -11 -8 0 -15 -4 -15 -9 0 -10 -71 -46 -83 -43 -5 1 -6 -2 -3 -7 4
-5 -2 -12 -13 -16 -17 -5 -65 -39 -108 -75 -7 -6 -13 -7 -13 -3 0 4 -7 -1 -15
-11 -8 -11 -15 -16 -15 -11 0 5 -7 -1 -16 -13 -9 -14 -22 -21 -31 -18 -8 3
-12 2 -9 -2 3 -5 -8 -20 -23 -35 -20 -18 -31 -23 -39 -15 -7 7 -10 5 -9 -8 1
-12 -3 -18 -13 -16 -8 2 -12 1 -8 -3 8 -9 -141 -151 -154 -147 -5 1 -7 -1 -4
-6 2 -4 -19 -34 -49 -66 -29 -31 -65 -73 -80 -92 -14 -19 -30 -32 -36 -29 -5
3 -6 -1 -3 -9 3 -9 2 -16 -3 -16 -5 0 -17 -14 -27 -30 -9 -17 -21 -28 -27 -25
-5 3 -6 0 -4 -7 3 -8 -3 -23 -13 -33 -10 -11 -21 -28 -25 -38 -4 -10 -11 -15
-17 -12 -6 3 -7 -1 -4 -9 3 -9 1 -16 -6 -16 -6 0 -8 -4 -5 -10 3 -5 2 -10 -3
-10 -5 0 -14 -12 -20 -26 -7 -15 -17 -22 -24 -18 -7 4 -8 3 -4 -4 6 -10 -9
-48 -25 -62 -3 -3 -11 -20 -18 -37 -7 -18 -17 -30 -21 -28 -5 3 -12 0 -16 -6
-4 -8 -3 -9 4 -5 7 4 12 1 12 -7 0 -8 -7 -18 -16 -21 -9 -4 -14 -9 -10 -13 3
-3 -2 -15 -11 -26 -10 -11 -12 -17 -6 -13 9 5 11 2 7 -8 -3 -9 -14 -16 -23
-16 -10 0 -12 -3 -5 -8 7 -5 7 -14 -1 -29 -7 -13 -14 -20 -18 -17 -3 3 -4 -2
-3 -13 2 -10 -1 -27 -7 -38 -6 -11 -10 -24 -9 -28 1 -5 -4 -20 -12 -35 -20
-38 -29 -65 -27 -79 1 -7 -3 -13 -9 -13 -6 0 -9 -4 -6 -9 4 -5 0 -12 -6 -14
-10 -4 -10 -6 -1 -6 7 -1 10 -8 7 -16 -5 -13 -9 -13 -22 -3 -13 11 -12 8 2
-13 14 -22 14 -28 3 -32 -8 -3 -13 -18 -12 -36 1 -17 -2 -31 -7 -31 -5 0 -6
-4 -3 -10 3 -5 0 -10 -7 -10 -9 0 -9 -3 2 -10 9 -6 10 -10 3 -10 -6 0 -10 -9
-8 -20 2 -11 0 -20 -5 -20 -5 0 -7 -7 -4 -15 4 -8 1 -22 -6 -30 -10 -12 -10
-15 1 -15 9 0 10 -3 4 -8 -9 -7 -15 -33 -16 -75 0 -9 -5 -15 -11 -11 -7 4 -7
0 1 -13 6 -11 8 -23 5 -26 -3 -3 -7 -24 -9 -47 -2 -24 -9 -47 -17 -51 -10 -7
-8 -9 7 -9 19 -1 19 -1 3 -14 -19 -14 -25 -32 -8 -21 6 3 10 2 10 -4 0 -5 -4
-13 -10 -16 -5 -3 -10 -12 -10 -18 0 -7 4 -6 10 3 8 12 10 11 7 -5 -1 -11 -6
-26 -10 -32 -5 -7 -4 -13 0 -13 15 0 8 -83 -6 -88 -9 -3 -11 0 -6 8 5 9 4 11
-4 6 -15 -10 -4 -26 17 -26 15 0 15 -2 2 -10 -10 -6 -11 -10 -2 -10 6 0 12 -5
12 -11 0 -5 -4 -7 -10 -4 -6 4 -7 -2 -1 -18 6 -16 6 -28 -2 -36 -8 -8 -8 -11
1 -11 7 0 12 -5 12 -11 0 -5 -5 -7 -12 -3 -7 5 -8 3 -2 -7 12 -20 14 -40 2
-33 -5 3 -4 -4 4 -15 11 -18 11 -23 -2 -31 -10 -6 -11 -10 -2 -10 16 0 16 -37
0 -43 -9 -4 -8 -6 2 -6 17 -1 22 -71 5 -72 -5 0 -1 -4 10 -9 13 -6 15 -9 5 -9
-13 -1 -13 -2 0 -12 11 -8 12 -12 3 -16 -7 -2 -13 -9 -13 -14 0 -6 5 -7 12 -3
8 5 9 2 5 -9 -4 -10 -1 -17 6 -18 7 0 3 -4 -8 -9 -15 -6 -16 -9 -4 -9 9 -1 16
-7 16 -13 1 -7 4 -29 7 -48 3 -19 8 -44 10 -56 1 -11 6 -26 10 -32 4 -7 2 -12
-4 -12 -7 0 -4 -7 5 -16 14 -14 14 -17 1 -28 -12 -8 -13 -15 -5 -26 9 -13 10
-12 5 2 -3 11 -1 15 8 12 6 -2 12 -15 13 -27 0 -12 4 -31 8 -41 6 -14 5 -17
-3 -12 -8 5 -10 2 -6 -8 3 -9 11 -13 18 -9 6 3 8 3 4 -2 -4 -4 -3 -14 3 -22 6
-7 9 -13 6 -13 -3 0 3 -22 13 -50 10 -28 14 -52 9 -56 -5 -3 -9 -11 -9 -17 0
-9 2 -9 8 -1 5 9 11 8 20 -2 10 -11 10 -14 0 -14 -9 0 -9 -3 2 -10 8 -5 11
-10 5 -10 -5 0 -2 -5 8 -11 13 -7 15 -14 8 -23 -7 -8 -6 -17 1 -26 8 -12 9
-12 4 3 -3 9 -3 17 -1 17 4 0 43 -82 50 -105 14 -45 19 -55 27 -55 6 0 7 -7 4
-16 -3 -8 -2 -12 3 -9 16 9 25 -36 10 -47 -11 -7 -9 -8 5 -6 19 3 58 -49 49
-64 -2 -5 0 -8 5 -8 5 0 18 -12 28 -28 11 -17 12 -23 3 -15 -11 9 -14 6 -15
-15 -1 -15 1 -21 3 -14 6 15 33 16 33 1 0 -5 -5 -7 -12 -3 -7 4 -8 3 -4 -4 4
-6 14 -9 24 -6 15 5 15 4 -1 -9 -16 -13 -16 -15 -2 -21 9 -3 13 -2 10 4 -3 6
-2 10 3 10 6 0 13 -7 16 -16 9 -23 8 -24 -11 -18 -14 5 -15 4 -4 -4 8 -6 20
-8 28 -5 7 3 13 -2 13 -12 0 -9 -4 -14 -9 -10 -5 3 -12 1 -16 -4 -3 -6 5 -8
20 -5 28 5 35 -12 8 -19 -11 -3 -7 -5 10 -6 29 -1 33 -9 17 -29 -7 -9 -7 -9 2
-2 16 13 28 13 28 -2 0 -6 8 -20 18 -31 10 -12 11 -17 3 -12 -10 6 -12 4 -7
-4 5 -7 14 -10 21 -8 6 3 23 -12 36 -33 13 -21 29 -35 34 -32 6 3 7 2 3 -2 -3
-4 10 -23 30 -43 21 -19 32 -32 27 -30 -6 3 -17 1 -25 -5 -13 -8 -13 -9 0 -5
25 7 63 -11 56 -28 -3 -8 0 -14 6 -12 6 1 13 -4 16 -12 2 -8 0 -11 -5 -8 -5 3
-10 0 -10 -8 0 -13 2 -13 16 -1 15 13 20 11 49 -18 38 -39 40 -46 9 -40 -20 4
-20 4 -2 -5 12 -5 25 -5 32 1 8 6 13 2 18 -11 3 -12 11 -21 16 -21 13 0 39
-26 39 -39 0 -5 9 -8 20 -6 11 2 18 0 15 -6 -4 -5 -2 -9 3 -9 6 0 20 -11 33
-24 13 -14 29 -21 38 -18 13 5 12 2 -2 -12 -21 -21 -21 -23 -2 -23 8 0 12 4 9
9 -3 4 6 3 20 -4 31 -13 35 -28 6 -21 -11 3 -20 1 -20 -4 0 -11 29 -11 47 0 6
4 14 3 17 -2 8 -12 -19 -33 -29 -23 -5 4 -5 1 -1 -5 5 -10 12 -9 30 2 21 14
36 12 36 -7 0 -4 -5 -8 -11 -8 -5 0 -7 6 -3 13 5 8 2 8 -9 -2 -9 -7 -17 -14
-17 -16 0 -6 37 -1 46 6 14 11 49 -25 39 -41 -3 -5 -11 -7 -17 -4 -7 4 -8 2
-4 -4 9 -15 36 -4 36 15 0 12 3 13 14 4 8 -7 12 -21 9 -34 -5 -21 -5 -21 9 -3
14 18 15 18 36 -4 11 -12 32 -22 46 -22 14 0 26 -4 26 -9 0 -4 -9 -6 -19 -4
-14 3 -18 -1 -14 -12 3 -8 9 -11 12 -6 15 21 61 -10 54 -37 -4 -13 -3 -13 6 0
7 10 6 18 -1 27 -7 9 -7 13 0 13 12 0 26 -36 18 -48 -6 -10 26 -9 34 0 3 4 1
10 -4 15 -5 5 -6 2 -1 -7 6 -12 5 -13 -5 -3 -22 20 -4 26 24 8 14 -9 33 -18
43 -19 10 -2 17 -6 16 -9 -2 -4 -3 -10 -3 -13 0 -4 -7 -1 -15 6 -9 7 -15 8
-15 2 0 -14 24 -22 40 -12 15 9 50 1 50 -12 0 -5 -4 -7 -9 -3 -11 6 -6 -33 5
-44 3 -3 4 2 2 13 -2 12 5 21 22 27 24 9 24 9 5 -7 -15 -12 -16 -15 -3 -11 9
3 24 -3 33 -13 10 -11 22 -17 27 -14 11 7 1 19 -15 19 -5 0 -12 7 -14 15 -4
13 -3 13 6 0 6 -8 11 -11 11 -6 0 5 6 3 13 -3 8 -6 17 -8 20 -4 4 3 7 1 7 -6
0 -7 6 -11 13 -8 8 3 20 1 27 -3 11 -7 11 -11 1 -24 -8 -9 -10 -16 -6 -16 4 0
15 10 26 22 10 13 18 17 19 11 0 -7 7 -13 16 -13 9 0 12 -5 8 -13 -5 -7 -1 -7
10 2 16 13 17 12 13 -10 -2 -13 -2 -18 0 -11 3 6 9 12 14 12 6 0 7 5 4 10 -4
6 5 5 19 -2 14 -6 26 -16 26 -21 0 -5 -7 -4 -15 3 -13 10 -18 11 -28 1 -7 -7
-7 -12 -2 -11 21 4 36 0 30 -9 -3 -5 -1 -13 5 -16 6 -4 9 -1 8 7 -2 7 5 13 14
13 9 0 20 4 25 9 4 5 3 6 -4 2 -6 -3 -14 -2 -17 3 -7 11 13 9 32 -2 6 -5 17
-5 24 -1 6 4 8 3 5 -3 -5 -7 5 -10 28 -8 20 2 35 -1 35 -7 0 -6 9 -8 20 -5 11
3 23 0 27 -5 3 -6 1 -8 -5 -4 -6 3 -13 2 -16 -3 -4 -5 -2 -12 4 -16 5 -3 15 3
22 15 15 23 24 26 26 8 2 -25 8 -48 15 -54 3 -4 4 4 2 16 -6 30 3 44 20 30 10
-8 15 -8 20 0 4 7 11 7 18 2 7 -5 28 -8 48 -8 23 1 35 -3 32 -10 -2 -6 3 -16
10 -23 12 -9 16 -8 20 3 4 11 1 13 -11 9 -9 -3 -14 -3 -10 1 8 10 68 14 68 6
0 -4 7 -7 15 -7 8 0 15 4 15 9 0 5 4 6 10 3 20 -12 50 -14 51 -2 0 7 7 -1 15
-18 12 -24 14 -25 10 -6 -4 20 -1 22 20 18 13 -2 27 0 30 5 4 5 10 5 17 0 10
-8 142 -9 142 -2 0 1 28 3 62 4 51 2 60 0 51 -11 -8 -10 -14 -11 -27 -1 -13
10 -14 10 -4 -2 14 -15 46 -24 38 -10 -3 4 2 11 11 14 9 3 12 11 8 18 -5 10
-4 10 6 1 10 -9 10 -16 2 -26 -9 -11 -8 -14 3 -14 8 0 12 4 10 8 -3 3 4 9 15
12 10 3 21 1 24 -4 2 -5 3 -4 2 3 -2 7 -10 12 -20 10 -9 -2 -16 2 -16 9 0 7 9
9 27 5 17 -5 29 -3 34 6 7 10 9 10 9 0 0 -10 5 -10 20 -2 10 6 23 10 27 9 4
-1 10 0 13 1 3 1 16 4 30 5 27 4 63 12 68 15 1 2 11 4 22 5 11 1 21 3 23 5 10
8 37 6 34 -3 -2 -7 -11 -11 -20 -11 -19 2 -31 -23 -15 -32 6 -4 8 -3 5 3 -4 6
4 14 18 17 14 4 25 13 25 22 0 8 5 12 10 9 7 -4 7 -12 0 -25 -7 -13 -7 -21 2
-26 6 -4 8 -3 5 2 -8 13 9 39 25 39 7 0 12 7 12 16 -1 9 4 16 10 17 6 1 21 3
33 5 12 2 28 9 36 16 12 9 17 9 23 0 5 -9 10 -9 18 2 13 17 31 22 69 22 22 -1
27 3 22 15 -3 9 -3 13 1 10 4 -4 16 -3 27 3 12 7 17 7 13 1 -3 -5 1 -12 9 -16
8 -3 17 0 21 6 4 6 3 8 -3 5 -5 -3 -10 0 -10 8 0 10 5 11 19 4 10 -5 18 -6 18
-2 0 4 5 1 11 -7 9 -13 10 -13 6 0 -2 8 -9 15 -14 15 -6 0 -15 3 -19 7 -3 4 3
6 14 3 11 -2 23 3 26 11 3 8 12 11 21 8 9 -4 21 0 28 9 7 10 30 17 54 19 23 1
39 6 37 10 -3 5 -15 6 -27 3 -19 -5 -19 -4 3 9 14 8 28 12 32 10 5 -3 8 -1 8
5 0 5 10 13 23 17 12 3 30 13 40 22 9 8 17 12 17 8 0 -4 12 4 26 18 34 31 62
22 55 -17 -1 -5 3 -5 9 -2 8 5 6 15 -5 32 -16 24 -16 24 7 12 22 -12 22 -11 8
6 -8 10 -10 16 -3 12 7 -5 17 1 23 14 16 28 25 17 10 -13 -11 -22 -10 -22 4
-4 9 11 16 24 16 29 0 4 9 7 20 5 10 -2 18 2 17 7 -1 6 -8 9 -17 7 -8 -2 3 10
25 27 l40 30 23 -22 c18 -17 22 -18 16 -4 -3 9 -10 17 -15 17 -5 0 -9 7 -9 15
0 8 5 15 10 15 6 0 23 11 38 25 15 14 37 25 49 25 13 0 24 8 29 22 11 34 50
73 59 58 6 -9 4 -11 -6 -5 -8 5 -10 4 -6 0 4 -5 14 -10 23 -11 12 -2 13 0 2
13 -10 12 -9 17 5 28 9 6 14 15 11 18 -10 10 44 39 58 31 8 -5 8 -1 -2 11 -14
17 -14 18 9 6 17 -10 26 -10 35 -1 8 8 7 10 -5 5 -10 -4 -20 -2 -24 4 -3 6 -1
11 4 11 6 0 10 5 8 12 -1 6 8 17 20 23 13 7 21 14 19 16 -3 2 3 15 13 28 16
21 19 22 34 6 16 -15 16 -14 10 16 -6 29 -5 31 18 24 21 -6 22 -5 9 6 -8 8
-13 13 -11 12 2 -2 10 5 18 15 14 16 14 16 9 -1 -4 -11 -2 -16 5 -11 6 3 9 14
6 25 -6 24 25 51 49 43 19 -7 19 -6 0 8 -18 14 -18 15 5 31 13 10 20 17 15 17
-5 0 -3 7 4 15 7 9 20 13 28 10 13 -5 13 -3 1 12 -12 15 -12 16 3 10 10 -3 20
-2 23 4 4 5 3 9 -2 8 -18 -3 -28 1 -18 9 6 4 18 21 27 37 10 17 22 29 27 28 6
-2 8 3 5 11 -3 8 0 17 6 21 6 3 9 3 8 -2 -2 -4 1 -8 7 -8 5 0 10 12 10 26 0
15 5 33 11 40 6 8 17 29 25 47 8 17 18 32 22 32 5 0 6 4 2 9 -3 5 -1 12 5 16
6 4 8 11 5 16 -4 5 -2 9 3 9 9 0 22 28 26 54 0 5 7 11 15 14 9 3 11 0 6 -8 -6
-9 -4 -11 4 -5 8 5 9 11 3 17 -12 12 -3 50 10 42 6 -4 8 2 3 15 -4 13 -2 21 5
21 6 0 9 4 5 9 -3 5 -1 12 5 16 6 4 8 11 5 16 -4 5 2 9 12 10 11 0 13 3 5 6
-6 2 -9 10 -5 16 4 7 9 21 10 31 2 11 8 25 13 31 5 7 7 15 3 18 -3 4 -1 7 5 7
7 0 12 -5 12 -12 0 -6 3 -9 6 -6 3 3 -1 16 -8 27 -9 15 -10 24 -2 29 6 4 14
23 17 42 3 19 9 46 12 60 3 14 7 30 8 35 5 21 19 35 29 29 7 -4 8 -2 4 4 -4 6
-12 10 -19 8 -7 -1 -9 -1 -4 1 4 3 7 17 7 32 0 15 3 31 7 35 4 3 8 23 9 44 1
20 3 37 4 37 1 0 3 14 6 30 2 17 6 48 9 70 3 22 7 67 9 100 3 48 7 60 20 59 9
-1 13 2 10 7 -3 5 -11 9 -18 9 -7 0 -12 9 -11 20 1 22 15 41 15 21 0 -7 5 -9
11 -6 6 5 4 11 -6 19 -19 14 -15 73 4 68 7 -1 10 2 6 8 -3 6 -11 8 -16 5 -5
-4 -9 -1 -9 4 0 6 6 11 13 11 9 0 9 2 -1 9 -14 8 -13 46 2 70 6 9 5 12 -2 7
-6 -3 -13 -2 -16 3 -4 5 -2 13 4 16 8 5 7 12 -2 23 -10 12 -10 14 0 8 6 -4 12
-2 12 3 0 6 -4 11 -10 11 -5 0 -10 7 -10 15 0 8 6 15 13 15 9 0 9 2 0 8 -7 4
-12 16 -12 27 -1 50 -7 91 -15 104 -6 9 -5 12 1 8 5 -3 10 0 10 8 0 8 -4 12
-8 10 -4 -3 -9 10 -12 28 -3 17 -8 48 -12 67 -4 19 -7 43 -7 53 1 9 -4 17 -9
17 -6 0 -8 4 -4 9 3 5 0 13 -5 16 -7 5 -5 12 7 21 13 11 14 14 3 12 -8 -2 -14
3 -12 10 1 6 -2 12 -6 12 -5 0 -15 25 -22 55 -7 30 -17 55 -22 55 -5 0 -6 4
-3 10 3 5 -1 22 -9 37 -18 35 -30 66 -28 76 1 4 -2 7 -8 7 -5 0 -10 5 -10 11
0 18 -32 79 -41 79 -5 0 -32 -24 -61 -52 -28 -29 -55 -52 -60 -50 -4 1 -7 -4
-6 -10 2 -7 -3 -12 -10 -10 -6 1 -11 -4 -10 -10 2 -7 -4 -11 -12 -10 -8 2 -12
1 -8 -3 9 -9 -23 -45 -34 -39 -5 3 -7 0 -6 -7 2 -7 -8 -18 -22 -26 -14 -7 -21
-13 -15 -13 5 0 -6 -15 -26 -32 -43 -40 -77 -81 -64 -76 6 2 11 -1 12 -6 1 -5
7 -13 15 -17 11 -7 11 -9 -1 -9 -11 0 -11 -3 0 -17 12 -15 12 -16 -4 -10 -11
4 -16 3 -12 -3 3 -6 12 -10 19 -10 8 0 17 -15 20 -32 4 -18 9 -46 13 -63 3
-16 11 -36 17 -44 9 -12 7 -13 -9 -8 -17 6 -18 5 -5 -6 17 -14 23 -30 23 -69
0 -16 4 -28 7 -28 4 0 7 -10 6 -22 -1 -13 2 -41 6 -63 5 -31 3 -43 -10 -54
-15 -12 -15 -13 -1 -8 13 4 16 -1 15 -24 0 -16 -5 -29 -11 -29 -5 0 -3 -5 5
-10 8 -5 11 -10 5 -10 -5 0 -3 -5 5 -10 8 -5 11 -10 5 -10 -6 0 -9 -27 -8 -64
1 -46 -3 -68 -13 -77 -8 -6 -14 -16 -14 -22 0 -6 6 -2 14 8 13 18 14 17 13
-13 -1 -21 -7 -32 -17 -33 -10 0 -9 -3 5 -9 11 -5 15 -9 9 -9 -6 -1 -9 -12 -6
-26 3 -17 0 -25 -9 -25 -11 0 -11 -2 1 -10 9 -6 10 -10 3 -10 -7 0 -10 -9 -8
-22 6 -32 -5 -69 -19 -61 -6 4 -5 -1 2 -10 8 -9 10 -22 6 -29 -5 -7 -7 -21 -6
-30 2 -10 -2 -18 -8 -18 -6 0 -8 -5 -5 -11 9 -14 -3 -61 -14 -55 -4 3 -6 -6
-3 -19 2 -14 0 -25 -4 -25 -5 0 -10 -10 -11 -23 -5 -49 -33 -140 -48 -152 -7
-5 -11 -18 -9 -28 1 -9 -2 -17 -7 -17 -5 0 -9 -5 -9 -10 0 -6 -7 -27 -17 -48
-9 -20 -17 -40 -17 -44 -1 -4 -7 -13 -14 -19 -6 -7 -12 -17 -12 -22 0 -6 -8
-16 -17 -24 -10 -8 -12 -11 -5 -8 11 6 11 3 1 -13 -7 -12 -17 -19 -21 -16 -4
3 -5 -3 -1 -12 5 -13 3 -15 -7 -9 -9 6 -11 4 -5 -5 5 -8 1 -18 -10 -27 -11 -7
-16 -13 -12 -13 4 0 -14 -33 -40 -73 -50 -76 -57 -87 -85 -118 -10 -10 -18
-22 -18 -25 0 -20 -269 -286 -282 -278 -6 4 -8 3 -4 -4 6 -11 -174 -151 -206
-160 -10 -2 -18 -9 -18 -14 0 -6 -9 -8 -19 -5 -15 3 -18 1 -14 -11 5 -11 2
-14 -9 -9 -10 3 -19 0 -22 -9 -3 -8 -12 -14 -21 -14 -8 0 -15 -3 -15 -7 0 -12
-52 -33 -63 -26 -6 3 -7 2 -4 -4 6 -10 -119 -71 -135 -66 -4 2 -8 -2 -8 -8 0
-6 -9 -9 -20 -6 -11 3 -18 1 -14 -4 3 -5 -4 -9 -15 -9 -12 0 -21 -4 -21 -9 0
-8 -66 -26 -82 -23 -5 1 -8 -3 -8 -9 0 -6 -13 -8 -30 -5 -17 2 -28 0 -24 -5 3
-5 2 -9 -3 -10 -4 0 -15 -2 -23 -4 -8 -2 -33 -6 -55 -10 -22 -4 -42 -11 -43
-16 -2 -5 -7 -7 -11 -4 -5 2 -35 0 -67 -6 -119 -21 -173 -24 -377 -24 -171 1
-210 4 -218 15 -6 11 -9 12 -9 2 0 -7 -5 -10 -11 -6 -6 4 -30 8 -53 10 -22 1
-43 4 -46 5 -3 1 -9 3 -15 4 -9 2 -77 16 -97 21 -5 1 -9 2 -10 4 -2 1 -10 3
-18 5 -82 21 -110 32 -103 39 4 5 3 6 -5 2 -16 -9 -163 45 -155 58 3 5 1 6 -5
2 -11 -6 -82 23 -82 34 0 3 -9 6 -20 7 -11 1 -27 8 -34 16 -8 8 -28 20 -45 27
-17 7 -31 16 -31 21 0 5 -3 8 -7 7 -13 -2 -43 14 -39 21 3 4 -4 7 -14 8 -21 2
-111 68 -104 77 2 3 1 4 -2 1 -12 -8 -64 36 -58 48 4 7 4 9 -1 5 -11 -11 -47
11 -39 24 4 6 3 8 -4 4 -6 -3 -15 2 -21 11 -6 10 -11 14 -11 9 0 -6 -8 -1 -19
10 -10 10 -51 50 -91 88 -54 52 -68 71 -58 78 10 8 9 9 -4 4 -11 -3 -26 7 -45
30 -15 19 -42 51 -60 71 -53 59 -113 150 -105 158 4 5 2 5 -5 1 -8 -4 -19 6
-29 26 -9 18 -20 35 -23 38 -3 3 -14 21 -25 40 -10 19 -29 54 -43 78 -13 23
-21 47 -18 52 3 6 1 10 -5 10 -14 0 -43 67 -35 81 4 5 3 8 -2 7 -4 -2 -8 2 -8
7 0 6 4 9 10 7 5 -2 6 0 2 5 -5 4 -14 8 -20 8 -7 0 -12 5 -13 10 0 6 -6 23
-13 40 -7 16 -10 40 -8 52 2 13 0 20 -6 16 -14 -8 -26 16 -21 44 3 14 0 23 -8
23 -9 0 -8 3 2 10 13 8 13 10 -1 10 -12 0 -15 8 -13 30 2 18 -1 30 -8 30 -6 0
-9 3 -6 6 4 3 2 19 -2 35 -6 20 -5 29 3 29 6 0 3 6 -6 12 -12 9 -18 32 -21 73
-2 33 -5 60 -6 60 -1 0 -3 10 -6 23 -3 16 0 21 8 16 10 -6 11 -4 1 7 -17 17
-17 32 0 23 9 -6 9 -5 0 8 -7 8 -10 18 -6 21 3 4 0 7 -8 7 -11 0 -11 2 1 10
11 7 11 10 2 10 -10 0 -10 5 -1 21 6 12 7 19 1 15 -6 -4 -9 9 -9 34 2 31 5 39
17 35 10 -3 9 -1 -3 9 -19 15 -17 63 3 58 6 -1 9 2 5 8 -3 6 -11 8 -16 5 -5
-4 -9 1 -9 10 0 9 5 13 11 9 8 -4 8 -1 1 12 -5 11 -7 39 -3 64 4 25 6 52 6 60
0 8 4 18 10 22 6 5 5 8 -3 8 -7 0 -10 5 -7 10 4 6 10 8 15 5 5 -3 12 0 16 6 4
7 3 9 -3 6 -6 -4 -14 0 -17 9 -9 23 -8 26 7 18 9 -6 9 -5 0 7 -15 19 -4 37 20
33 11 -1 16 1 12 4 -4 4 -12 7 -18 7 -17 0 -10 64 9 93 12 18 12 22 3 16 -12
-6 -12 -5 0 9 7 9 17 15 21 12 4 -3 14 3 21 12 12 15 12 16 -1 8 -8 -5 -21
-10 -28 -11 -17 -3 -5 37 17 53 14 12 14 12 -4 6 -18 -6 -18 -5 -7 10 8 9 11
21 7 27 -3 5 1 10 11 10 14 0 15 2 3 17 -12 14 -12 16 1 11 11 -4 15 2 14 26
-1 17 5 40 13 52 7 11 10 24 6 29 -5 4 -2 4 6 0 11 -6 13 -4 8 8 -4 11 -1 17
8 17 8 0 15 5 15 11 0 5 -5 7 -11 3 -6 -3 -3 8 5 25 9 17 19 31 22 31 3 0 2
-4 -1 -10 -4 -6 1 -7 11 -3 15 5 15 7 0 15 -14 8 -14 11 1 36 21 32 34 43 45
36 4 -3 8 0 8 6 0 7 -7 9 -16 6 -10 -4 -14 -1 -11 6 2 7 11 12 20 12 13 -1 14
2 7 17 -6 11 -6 20 -1 24 5 3 12 -3 15 -12 3 -11 4 -8 3 7 -2 19 5 28 28 38
20 8 22 11 7 8 -27 -5 -29 10 -2 26 11 7 20 16 20 21 0 4 -6 5 -13 1 -8 -5 -7
-2 2 10 8 9 21 14 29 11 12 -4 13 -3 2 10 -10 12 -9 16 3 21 9 3 20 3 26 0 15
-10 25 14 12 27 -9 9 -11 7 -5 -8 6 -16 4 -18 -6 -8 -11 10 -11 15 0 28 14 17
35 21 24 3 -4 -7 -3 -8 5 -4 9 6 9 11 -1 24 -11 13 -11 15 4 9 10 -3 22 1 30
11 12 15 11 16 -4 4 -9 -7 -19 -9 -22 -4 -5 8 41 37 55 34 3 0 6 6 6 14 0 7
-4 14 -9 14 -5 0 -6 5 -3 10 5 8 11 8 20 0 10 -8 15 -8 21 1 4 7 3 9 -4 5 -6
-4 -10 1 -9 12 1 23 27 25 28 3 0 -11 2 -12 6 -3 3 7 -1 20 -9 29 -9 12 -9 15
0 9 6 -4 12 -2 12 3 0 6 10 11 23 12 18 0 19 2 4 7 -14 6 -4 20 56 80 71 69
101 86 109 60 3 -7 7 -5 11 6 4 9 3 15 -1 12 -4 -2 -14 -1 -22 5 -13 7 -12 9
3 10 9 1 23 2 30 3 6 1 18 -5 25 -14 11 -13 12 -12 3 6 -8 16 -6 23 10 34 10
8 19 19 19 24 0 5 -13 -3 -30 -19 -16 -16 -30 -25 -30 -21 0 7 21 29 57 59 16
14 23 15 29 6 5 -8 3 -10 -6 -4 -9 5 -11 4 -6 -3 12 -20 28 -13 21 8 -4 12 -2
20 5 20 6 0 8 5 4 12 -4 6 -3 8 4 4 6 -3 17 1 26 10 9 8 21 12 27 8 8 -4 9 -3
5 4 -4 7 -2 12 4 12 6 0 8 5 4 13 -6 9 -5 9 8 -1 13 -10 18 -9 29 5 13 17 13
17 -6 3 -19 -14 -19 -14 -6 3 17 21 16 22 42 -5 21 -22 21 -22 11 -2 -6 12 -8
25 -4 29 4 5 1 5 -5 1 -7 -4 -13 -3 -13 2 0 13 33 28 66 31 8 0 12 6 8 12 -3
6 5 4 18 -5 23 -15 27 -15 38 -1 10 11 10 18 1 29 -9 11 -9 16 0 22 7 4 10 3
7 -2 -3 -5 3 -18 14 -29 18 -19 19 -19 12 -1 -6 15 -4 17 6 11 9 -5 11 -4 6 4
-4 6 -12 9 -17 6 -5 -4 -9 -2 -9 3 0 12 31 27 61 31 5 0 8 5 4 10 -3 6 4 8 15
6 11 -2 20 1 20 6 0 6 5 7 11 3 8 -4 7 -9 -2 -15 -7 -4 -10 -11 -5 -16 4 -4
12 0 17 10 6 9 15 15 20 12 5 -4 6 -12 3 -18 -4 -7 -3 -9 1 -4 13 12 16 47 4
47 -5 0 -8 -4 -5 -8 3 -5 -1 -9 -9 -9 -22 0 -18 12 8 24 16 8 29 8 42 1 15 -9
17 -8 12 6 -4 9 -2 17 3 17 6 1 14 2 19 3 5 0 13 4 17 9 15 14 25 7 20 -15 -3
-13 -3 -17 0 -10 3 6 11 9 17 5 6 -4 8 0 4 10 -7 19 8 32 19 16 5 -8 3 -9 -6
-4 -9 5 -11 4 -6 -4 6 -8 12 -9 20 -2 7 6 17 7 21 3 5 -4 5 -1 1 6 -4 7 -12
10 -17 7 -5 -4 -9 -1 -9 4 0 14 6 14 32 0 14 -8 23 -8 31 0 6 6 19 11 29 11
10 0 18 5 18 11 0 5 -5 7 -12 3 -7 -4 -8 -3 -4 5 4 6 11 9 16 6 5 -3 12 0 15
5 5 8 12 7 23 -3 30 -25 42 -29 36 -13 -3 9 -10 13 -15 10 -5 -3 -9 0 -9 6 0
7 7 10 15 7 8 -4 17 -2 20 2 3 5 15 7 28 4 18 -4 20 -3 7 7 -13 10 -13 11 1 7
8 -3 34 -2 57 3 30 5 44 3 55 -7 11 -12 16 -12 22 -2 5 7 4 10 -2 6 -6 -4 -14
0 -17 8 -4 13 -2 14 14 5 15 -8 20 -8 20 2 0 10 2 10 9 -1 7 -11 10 -11 15 0
3 8 4 3 1 -11 -5 -25 -5 -25 7 -2 8 16 17 21 31 16 14 -4 17 -3 12 6 -6 10 -3
10 11 2 11 -6 27 -7 41 -1 26 9 44 -8 22 -22 -12 -7 -12 -10 0 -21 8 -7 11 -8
8 -3 -3 6 3 22 13 35 17 22 22 23 39 13 23 -15 34 -17 28 -5 -3 4 16 6 41 5
65 -2 64 -2 56 -15 -5 -8 -1 -7 10 2 26 21 48 21 53 1 2 -9 14 -23 26 -31 19
-12 21 -11 10 2 -7 8 -9 19 -5 23 4 5 1 5 -5 1 -7 -4 -13 -3 -13 2 0 12 48 13
56 1 3 -5 -1 -7 -8 -6 -7 2 -10 2 -5 0 4 -3 4 -10 1 -16 -5 -8 -3 -8 6 0 11
10 16 9 27 -5 13 -15 13 -15 4 5 -14 28 -14 30 3 30 8 0 12 -6 8 -15 -4 -11
-2 -13 9 -6 21 13 47 15 54 4 9 -14 -4 -32 -17 -24 -6 4 -5 9 3 15 10 6 7 8
-9 6 -26 -2 -29 -12 -4 -22 27 -12 43 -14 36 -4 -3 5 2 9 10 9 9 0 16 4 16 8
0 5 7 9 15 9 11 0 12 -4 4 -13 -14 -17 9 -30 24 -15 9 9 7 11 -8 5 -20 -7 -20
-7 0 9 16 13 24 13 45 2 14 -7 31 -10 38 -8 6 3 12 0 12 -6 0 -11 -29 -7 -59
9 -12 6 -21 8 -21 6 0 -9 60 -37 60 -29 0 5 4 2 9 -6 7 -11 10 -9 16 8 4 13
11 18 18 14 7 -4 21 -9 32 -10 10 -2 22 -7 25 -11 3 -4 15 -7 28 -6 13 1 30
-5 38 -13 11 -11 14 -12 14 -1 0 11 2 11 9 0 4 -8 11 -13 15 -13 26 4 46 -1
46 -10 0 -7 -7 -8 -17 -4 -32 12 -53 14 -53 4 0 -5 6 -9 13 -8 26 3 38 -1 31
-12 -5 -8 -1 -8 14 0 26 14 52 14 52 1 0 -5 -8 -7 -17 -4 -14 5 -15 4 -4 -4
16 -12 44 -4 35 9 -3 5 6 4 20 -2 19 -9 23 -15 15 -25 -7 -8 -6 -14 2 -20 8
-4 9 -3 5 4 -4 7 -1 12 9 12 10 0 13 5 9 13 -4 6 2 3 14 -7 12 -11 22 -16 22
-12 0 3 18 -3 40 -14 22 -11 40 -26 40 -33 0 -8 -4 -7 -10 3 -6 9 -10 10 -10
3 0 -20 18 -24 29 -6 6 11 11 13 11 5 0 -7 4 -11 9 -7 5 3 15 0 23 -7 7 -7 20
-14 28 -16 8 -2 20 -8 25 -14 6 -6 1 -6 -12 1 -13 6 -23 9 -23 5 0 -4 -9 1
-20 11 -22 20 -28 12 -7 -9 23 -23 112 -24 137 -1 10 9 23 14 29 11 5 -4 13
-1 17 5 4 8 3 9 -4 5 -7 -4 -12 -1 -12 7 0 10 7 14 23 11 20 -4 20 -4 2 5 -16
7 -25 3 -43 -20 -13 -16 -28 -29 -33 -29 -14 0 52 65 74 73 10 4 15 11 12 17
-7 11 34 30 51 23 7 -2 15 0 18 5 3 5 -1 9 -9 8 -7 0 -13 4 -12 9 1 6 5 9 10
8 4 -2 7 1 7 6 0 15 77 91 85 83 5 -4 5 -2 1 5 -3 6 -1 15 5 18 7 5 1 14 -15
24 -14 10 -23 21 -19 26 5 4 2 5 -6 0 -9 -5 -18 -2 -25 7 -6 8 -15 17 -21 19
-38 16 -143 84 -139 91 3 4 -1 5 -9 2 -8 -3 -21 1 -28 8 -8 7 -21 14 -29 16
-8 2 -18 8 -21 14 -3 5 -9 9 -13 8 -4 -1 -51 17 -104 40 -136 59 -135 59 -157
62 -11 2 -23 7 -26 11 -3 4 -19 10 -35 13 -16 2 -44 9 -62 15 -18 6 -40 12
-47 13 -8 1 -17 5 -21 8 -3 4 -13 4 -22 1 -8 -4 -13 -2 -10 3 4 5 -12 10 -34
12 -23 1 -46 6 -52 10 -6 3 -22 5 -35 3 -13 -1 -21 1 -18 6 3 4 -15 7 -39 6
-24 -1 -44 1 -44 5 0 8 -1 8 -266 16 -110 4 -202 5 -205 3z m-402 -524 c-14
-14 -19 -15 -29 -4 -7 8 -8 11 -3 8 6 -3 17 -2 25 4 23 14 26 11 7 -8z m-387
-172 c0 -6 -4 -13 -10 -16 -5 -3 -10 -1 -10 5 0 6 -4 8 -10 5 -5 -3 -10 -1
-10 4 0 6 9 11 20 11 11 0 20 -4 20 -9z m-640 -525 c0 -3 -4 -8 -10 -11 -5 -3
-10 -1 -10 4 0 6 5 11 10 11 6 0 10 -2 10 -4z m3190 -3120 c0 -3 -4 -8 -10
-11 -5 -3 -10 -1 -10 4 0 6 5 11 10 11 6 0 10 -2 10 -4z m-946 -504 c3 -5 -1
-9 -9 -9 -8 0 -15 4 -15 9 0 4 4 8 9 8 6 0 12 -4 15 -8z"/>
<path d="M4837 4675 c-9 -8 -18 -15 -22 -15 -3 0 -15 -9 -27 -20 -12 -10 -26
-16 -32 -13 -6 3 -8 3 -4 -2 9 -10 -32 -41 -47 -37 -5 2 -7 1 -3 -3 7 -8 -44
-55 -59 -55 -5 0 -19 -10 -30 -22 -29 -32 -103 -84 -115 -80 -5 1 -7 -1 -4 -6
3 -5 -8 -16 -25 -26 -16 -9 -29 -22 -29 -28 0 -6 -9 -8 -19 -5 -15 4 -18 1
-14 -12 4 -9 3 -13 -1 -9 -5 4 -18 -4 -31 -17 -12 -14 -25 -22 -28 -18 -4 3
-7 2 -7 -3 0 -6 -24 -28 -52 -49 -29 -22 -56 -44 -59 -49 -4 -5 -11 -6 -17 -2
-6 3 -14 1 -18 -5 -5 -8 -3 -9 7 -4 8 4 5 -1 -6 -12 -11 -11 -21 -19 -23 -18
-2 2 -12 -4 -22 -13 -25 -23 -33 -29 -136 -108 -49 -38 -90 -72 -92 -76 -2 -5
-8 -8 -13 -8 -8 0 -35 -20 -65 -48 -8 -7 -14 -10 -14 -5 0 4 -7 -3 -16 -15 -8
-12 -21 -22 -28 -22 -8 0 -17 -7 -20 -16 -3 -8 -10 -12 -16 -9 -5 3 -10 -1
-10 -10 0 -9 -5 -13 -10 -10 -6 3 -13 -1 -16 -10 -4 -9 -13 -14 -21 -11 -8 3
-12 2 -9 -3 6 -9 -66 -71 -83 -71 -5 0 -17 -10 -25 -22 -9 -12 -16 -18 -16
-13 0 5 -7 0 -15 -11 -8 -10 -15 -16 -15 -12 0 3 -14 -7 -31 -23 -17 -16 -36
-26 -42 -22 -5 3 -7 2 -4 -4 3 -5 -7 -17 -24 -27 -16 -9 -29 -22 -29 -28 0 -6
-9 -8 -19 -5 -15 4 -18 1 -14 -12 4 -9 3 -13 -1 -9 -5 4 -19 -5 -32 -19 -13
-14 -24 -23 -24 -20 0 3 -19 -12 -42 -33 -24 -22 -52 -40 -62 -40 -11 0 -17
-3 -13 -6 8 -9 -164 -140 -178 -136 -5 2 -7 0 -3 -3 4 -4 -3 -16 -16 -26 -27
-21 -41 -25 -30 -7 4 7 3 8 -5 4 -6 -4 -9 -11 -6 -15 2 -5 -13 -21 -35 -36
-22 -15 -40 -31 -40 -36 0 -4 -8 -10 -18 -13 -9 -3 -33 -20 -52 -36 -54 -47
-60 -51 -60 -43 0 4 -5 0 -11 -11 -9 -15 -13 -16 -20 -5 -6 9 -9 10 -9 2 0 -9
-39 -12 -147 -11 -173 1 -264 -3 -278 -11 -5 -3 -16 -6 -23 -7 -24 -4 -79 -33
-92 -49 -7 -8 -17 -12 -23 -8 -5 3 -7 1 -4 -4 8 -13 -17 -36 -28 -25 -5 4 -5
2 -2 -5 9 -15 -2 -45 -14 -37 -5 3 -6 -3 -2 -12 4 -10 2 -15 -4 -11 -5 3 -9
-3 -8 -16 1 -12 -2 -27 -7 -34 -5 -7 -6 -18 -2 -24 5 -9 2 -10 -11 -5 -14 5
-16 4 -6 -8 12 -15 12 -74 -1 -82 -4 -3 -8 -11 -8 -17 0 -7 4 -6 10 3 7 11 10
6 10 -20 0 -20 -6 -42 -12 -49 -8 -9 -9 -11 -1 -7 8 4 11 -9 9 -44 -1 -28 2
-50 7 -50 4 0 5 -5 2 -10 -5 -8 -12 -7 -23 2 -14 11 -14 9 0 -8 21 -24 24 -60
6 -67 -10 -4 -9 -6 1 -6 11 -1 11 -4 0 -18 -12 -14 -12 -15 -1 -9 11 7 13 -3
10 -48 -2 -45 0 -56 12 -56 9 0 11 -3 5 -8 -14 -10 -13 -34 3 -50 7 -8 10 -17
7 -21 -2 -5 6 -19 18 -31 16 -19 18 -22 4 -17 -9 3 -17 2 -17 -3 0 -6 7 -10
15 -10 8 0 15 -4 15 -10 0 -5 7 -10 15 -10 9 0 12 -6 9 -15 -5 -11 -2 -13 12
-8 12 4 15 3 10 -5 -5 -8 0 -12 13 -12 12 0 21 -5 21 -11 0 -5 -4 -8 -8 -5 -5
3 -9 -1 -9 -8 0 -7 10 -13 21 -12 12 1 20 -4 19 -11 -5 -22 15 -14 22 8 4 12
10 18 14 13 9 -13 39 -15 208 -17 148 -2 153 -2 148 -22 -3 -11 -2 -14 1 -7 3
6 10 10 14 7 5 -3 12 0 16 6 5 8 3 9 -7 4 -8 -5 -11 -4 -7 0 11 11 87 14 94 4
3 -5 -3 -6 -13 -3 -15 4 -14 3 2 -7 26 -17 52 -18 52 -3 0 7 -6 10 -14 7 -7
-3 -13 -1 -13 4 0 5 14 9 30 9 17 0 30 -3 30 -8 0 -4 -4 -8 -10 -8 -5 0 -10
-5 -10 -12 0 -6 8 -3 20 7 11 10 17 22 13 28 -3 5 -1 7 5 3 6 -3 13 -2 17 3 3
6 12 8 19 5 8 -3 17 -1 21 5 4 8 13 8 28 -1 20 -10 21 -10 8 5 -7 10 -10 17
-5 18 43 3 78 24 68 40 -3 5 0 9 6 9 6 0 8 5 5 11 -4 6 2 13 14 16 12 3 21 10
21 15 0 5 -5 6 -11 2 -6 -3 -3 8 5 25 9 17 14 31 10 31 -4 0 -1 6 5 13 6 8 8
17 4 20 -3 4 2 9 11 13 9 3 16 10 16 16 0 5 -4 6 -10 3 -14 -9 -12 29 2 43 9
9 9 12 0 12 -10 0 -10 5 -2 20 6 11 7 20 3 20 -12 0 -10 84 2 93 6 4 5 10 -4
16 -11 7 -11 9 0 14 10 4 10 6 2 6 -7 1 -13 6 -13 12 0 5 5 7 12 3 7 -5 8 -3
3 7 -13 20 -14 52 -3 67 7 8 7 12 0 12 -13 0 -10 49 5 75 11 19 12 19 22 -5
10 -23 11 -23 5 7 -5 28 -3 32 12 26 12 -4 15 -3 10 6 -8 13 10 41 27 41 6 0
2 -7 -9 -15 -10 -8 -14 -15 -8 -15 18 0 37 28 28 42 -4 7 -4 10 1 6 4 -4 16 3
27 15 11 12 17 17 14 11 -3 -7 0 -14 7 -17 10 -4 13 2 9 18 -2 12 1 26 7 29 7
5 9 0 6 -11 -3 -10 0 -7 7 7 15 30 27 40 51 40 12 0 16 -4 11 -12 -4 -7 -3 -9
1 -5 15 14 15 39 -1 33 -8 -3 -14 -1 -14 4 0 9 31 15 54 11 5 -1 5 4 -1 11
-14 17 9 42 25 26 6 -6 12 -6 17 3 5 8 4 10 -3 5 -15 -9 -15 5 1 24 7 9 25 15
40 15 16 -1 31 3 34 9 3 5 1 6 -5 2 -7 -4 -12 -2 -12 5 0 8 -5 8 -17 -2 -10
-8 4 10 31 38 27 29 53 50 57 47 4 -2 10 5 14 16 4 11 11 17 17 14 6 -4 5 -10
-3 -16 -11 -8 -10 -9 2 -5 9 3 23 0 30 -6 7 -7 6 -3 -2 8 -17 21 -15 45 3 45
6 0 7 -7 4 -16 -3 -9 -2 -12 5 -9 5 4 7 15 4 26 -5 14 -3 17 9 13 9 -3 13 -11
9 -18 -3 -6 -2 -7 3 -3 5 5 9 12 10 15 1 16 33 82 40 82 3 0 4 -6 1 -13 -3 -8
1 -14 8 -14 8 0 11 7 7 15 -3 10 -1 13 6 8 8 -5 10 -2 6 8 -7 19 12 22 20 4 3
-7 3 -2 0 11 -4 14 -2 21 4 17 5 -3 12 4 15 16 5 18 8 19 22 8 13 -11 15 -10
11 1 -6 15 20 56 29 47 3 -3 -1 -13 -10 -22 -9 -9 -11 -16 -5 -16 6 0 13 7 16
15 4 8 14 15 23 15 14 0 14 2 1 10 -8 5 -11 13 -6 17 4 4 14 -1 22 -11 8 -11
14 -15 14 -10 0 6 -5 15 -12 22 -10 10 -7 17 10 34 12 12 22 17 22 10 0 -6 -5
-12 -12 -12 -6 0 -8 -3 -5 -6 12 -13 57 25 51 44 -5 16 -5 16 9 -1 13 -16 15
-16 21 -2 3 9 2 14 -3 11 -5 -3 -12 1 -15 10 -3 8 -2 13 3 10 5 -3 11 1 15 9
3 8 11 12 19 9 8 -3 20 2 27 10 7 9 17 13 23 9 6 -4 7 -1 3 6 -6 9 -13 8 -27
-5 -31 -28 -22 -8 12 25 34 34 37 35 74 21 17 -7 24 -7 20 0 -3 6 -12 10 -20
10 -7 0 -15 7 -19 15 -3 8 0 14 7 12 7 -1 11 4 9 12 -3 12 0 12 12 2 11 -9 16
-9 22 0 4 8 3 9 -4 5 -7 -4 -12 -2 -12 3 0 6 9 11 20 11 11 0 27 12 37 28 21
33 89 103 81 82 -3 -8 -9 -24 -13 -35 l-8 -20 16 20 c9 11 17 30 17 42 0 17 4
21 17 16 11 -4 14 -3 9 5 -4 7 -2 12 4 12 6 0 9 4 5 9 -3 6 4 15 16 22 13 6
34 25 48 41 22 27 26 28 36 14 7 -9 16 -16 20 -16 4 0 2 6 -4 14 -12 15 -4 49
10 41 4 -3 6 -12 2 -20 -3 -8 0 -15 6 -15 6 0 10 6 8 13 -1 6 3 11 9 10 6 -1
11 5 11 12 0 11 -4 12 -14 3 -11 -8 -12 -7 -7 6 3 9 13 16 21 16 8 0 12 4 9 9
-7 10 72 77 86 73 6 -2 8 4 5 12 -4 9 -1 15 6 13 7 -1 10 5 9 13 -2 8 0 12 4
8 4 -4 18 5 31 20 l25 27 -16 -32 c-24 -47 -19 -54 7 -10 13 21 27 34 32 30 5
-4 3 1 -5 11 -14 17 -13 18 7 12 12 -4 24 -2 28 4 3 6 11 7 17 4 7 -4 8 -2 4
5 -6 9 -11 9 -21 1 -10 -8 -15 -8 -21 1 -4 8 -3 9 4 5 7 -4 12 -2 12 3 0 6 7
11 16 11 9 0 12 5 8 12 -5 7 -2 9 9 5 11 -4 14 -2 11 7 -3 7 2 16 10 19 11 4
13 1 10 -11 -5 -15 -4 -15 6 1 6 9 8 22 5 27 -8 13 1 13 24 1 15 -8 17 -6 13
19 -3 21 1 30 16 34 11 4 27 17 35 30 11 16 23 22 46 20 17 -1 31 2 31 8 0 5
-10 7 -22 3 -21 -6 -22 -5 -6 8 10 8 14 18 10 23 -4 4 1 3 10 -4 14 -11 18
-10 28 10 11 22 10 22 -4 4 -9 -11 -16 -15 -16 -10 0 10 76 84 86 84 2 0 2 -6
0 -12 -1 -7 -1 -10 1 -5 3 4 9 4 15 1 7 -5 7 -1 0 12 -8 14 -6 22 10 36 11 10
24 15 28 13 16 -10 -4 40 -21 56 -10 9 -15 19 -11 23 4 4 2 6 -4 4 -6 -1 -28
15 -50 37 -63 64 -69 68 -87 50z m-727 -994 c0 -5 -7 -12 -16 -15 -14 -5 -15
-4 -4 9 14 17 20 19 20 6z m-235 -220 c3 -5 1 -12 -5 -16 -5 -3 -10 1 -10 9 0
18 6 21 15 7z m-273 -253 c-7 -7 -12 -8 -12 -2 0 6 3 14 7 17 3 4 9 5 12 2 2
-3 -1 -11 -7 -17z m-632 -1068 c0 -5 -5 -10 -11 -10 -5 0 -7 5 -4 10 3 6 8 10
11 10 2 0 4 -4 4 -10z m-720 -62 c0 -7 -5 -6 -13 1 -8 6 -18 7 -22 3 -5 -4 -5
-2 -1 5 8 14 36 6 36 -9z"/>
<path d="M2530 4555 c0 -8 4 -15 10 -15 5 0 7 7 4 15 -4 8 -8 15 -10 15 -2 0
-4 -7 -4 -15z"/>
<path d="M2595 4560 c-3 -5 -1 -10 4 -10 6 0 11 5 11 10 0 6 -2 10 -4 10 -3 0
-8 -4 -11 -10z"/>
<path d="M2685 4560 c-3 -5 -1 -10 4 -10 6 0 11 5 11 10 0 6 -2 10 -4 10 -3 0
-8 -4 -11 -10z"/>
<path d="M2388 4547 c7 -8 8 -18 4 -22 -4 -5 -1 -5 6 -1 17 10 15 23 -4 30
-13 5 -14 4 -6 -7z"/>
<path d="M2420 4554 c0 -1 6 -7 14 -13 10 -9 15 -8 19 2 3 8 -3 13 -14 13 -11
0 -19 -1 -19 -2z"/>
<path d="M2616 4533 l-17 -28 19 22 c15 17 22 19 31 10 9 -9 11 -8 6 6 -10 24
-20 21 -39 -10z"/>
<path d="M2270 4545 c0 -5 5 -17 10 -25 5 -8 10 -10 10 -5 0 6 -5 17 -10 25
-5 8 -10 11 -10 5z"/>
<path d="M2190 4524 c-22 -13 -22 -14 -3 -9 15 4 25 0 32 -12 6 -10 11 -13 11
-7 0 5 -6 16 -12 23 -11 10 -7 11 16 7 16 -3 26 -2 22 1 -13 13 -41 12 -66 -3z"/>
<path d="M2713 4525 c0 -8 4 -12 9 -9 5 3 6 10 3 15 -9 13 -12 11 -12 -6z"/>
<path d="M2145 4521 c-3 -5 -2 -12 3 -15 5 -3 9 1 9 9 0 17 -3 19 -12 6z"/>
<path d="M3863 4500 c-15 -19 -18 -27 -8 -27 8 0 12 4 9 8 -2 4 3 12 12 17 9
5 15 14 13 19 -2 5 -14 -2 -26 -17z"/>
<path d="M2075 4510 c-3 -5 -1 -10 4 -10 6 0 11 5 11 10 0 6 -2 10 -4 10 -3 0
-8 -4 -11 -10z"/>
<path d="M2975 4500 c-3 -5 -1 -10 4 -10 6 0 11 5 11 10 0 6 -2 10 -4 10 -3 0
-8 -4 -11 -10z"/>
<path d="M3073 4491 c0 -10 7 -18 14 -18 10 0 10 4 1 14 -8 11 -7 12 6 7 9 -3
16 -2 16 3 0 5 -9 9 -19 10 -13 1 -19 -4 -18 -16z"/>
<path d="M3120 4491 c0 -6 4 -13 10 -16 6 -3 7 1 4 9 -7 18 -14 21 -14 7z"/>
<path d="M2095 4480 c3 -5 8 -10 11 -10 2 0 4 5 4 10 0 6 -5 10 -11 10 -5 0
-7 -4 -4 -10z"/>
<path d="M3166 4478 c3 -5 8 -7 12 -4 3 3 11 -2 19 -12 13 -16 14 -16 5 2 -5
11 -17 21 -26 22 -9 1 -13 -2 -10 -8z"/>
<path d="M4985 4479 c-4 -6 -5 -12 -2 -15 2 -3 7 2 10 11 7 17 1 20 -8 4z"/>
<path d="M3150 4465 c0 -5 5 -17 10 -25 5 -8 10 -10 10 -5 0 6 -5 17 -10 25
-5 8 -10 11 -10 5z"/>
<path d="M1883 4440 c-3 -11 -10 -17 -16 -13 -6 3 -7 1 -3 -6 4 -6 11 -9 15
-6 10 5 22 45 14 45 -3 0 -7 -9 -10 -20z"/>
<path d="M1993 4445 c0 -8 4 -12 9 -9 5 3 6 10 3 15 -9 13 -12 11 -12 -6z"/>
<path d="M1810 4426 c0 -2 8 -10 18 -17 15 -13 16 -12 3 4 -13 16 -21 21 -21
13z"/>
<path d="M3275 4421 c-3 -5 -2 -12 3 -15 5 -3 9 1 9 9 0 17 -3 19 -12 6z"/>
<path d="M3345 4420 c-3 -6 1 -7 9 -4 18 7 21 14 7 14 -6 0 -13 -4 -16 -10z"/>
<path d="M4916 4417 c-16 -12 -16 -14 -2 -14 9 0 16 4 16 9 0 5 5 6 12 2 7 -4
8 -3 4 4 -9 15 -8 15 -30 -1z"/>
<path d="M3787 4398 c9 -10 17 -18 17 -18 1 0 2 8 2 18 0 10 -8 18 -18 18 -16
0 -16 -2 -1 -18z"/>
<path d="M3310 4400 c0 -5 5 -10 11 -10 5 0 7 5 4 10 -3 6 -8 10 -11 10 -2 0
-4 -4 -4 -10z"/>
<path d="M3410 4401 c0 -6 5 -12 10 -12 6 -1 16 -2 23 -3 6 0 12 -6 12 -13 0
-6 4 -15 9 -20 5 -5 6 -3 2 5 -5 8 -1 12 11 12 17 1 17 1 0 11 -11 6 -24 12
-30 13 -7 1 -18 5 -24 9 -8 5 -13 4 -13 -2z"/>
<path d="M1726 4373 c-6 -14 -5 -15 5 -6 7 7 10 15 7 18 -3 3 -9 -2 -12 -12z"/>
<path d="M3416 4367 c3 -10 9 -15 12 -12 3 3 0 11 -7 18 -10 9 -11 8 -5 -6z"/>
<path d="M1675 4360 c-3 -5 -1 -10 4 -10 6 0 11 5 11 10 0 6 -2 10 -4 10 -3 0
-8 -4 -11 -10z"/>
<path d="M1696 4342 c-2 -4 4 -8 14 -8 10 0 16 4 14 8 -3 4 -9 8 -14 8 -5 0
-11 -4 -14 -8z"/>
<path d="M4800 4307 c-14 -23 -14 -27 -2 -27 4 0 7 5 7 10 0 6 6 15 14 19 7 5
9 11 4 14 -5 3 -15 -4 -23 -16z"/>
<path d="M1527 4284 c-8 -8 3 -34 15 -34 7 0 6 5 -1 13 -6 8 -8 17 -4 20 3 4
4 7 1 7 -2 0 -7 -3 -11 -6z"/>
<path d="M1550 4278 c0 -11 12 -10 30 2 12 7 10 9 -8 7 -12 0 -22 -5 -22 -9z"/>
<path d="M4755 4269 c-4 -6 -4 -13 -1 -16 3 -4 6 -1 6 6 0 7 5 9 12 5 7 -4 8
-3 4 4 -9 15 -13 15 -21 1z"/>
<path d="M4720 4200 c-12 -7 -10 -9 7 -7 12 0 19 5 17 9 -6 10 -6 10 -24 -2z"/>
<path d="M1402 4178 c-7 -7 -12 -17 -12 -22 0 -6 5 -3 11 7 6 9 14 15 20 12 5
-4 9 -1 9 4 0 14 -13 14 -28 -1z"/>
<path d="M4673 4155 c0 -8 4 -12 9 -9 4 3 8 9 8 15 0 5 -4 9 -8 9 -5 0 -9 -7
-9 -15z"/>
<path d="M4595 4089 c-4 -6 -5 -12 -2 -15 2 -3 7 2 10 11 7 17 1 20 -8 4z"/>
<path d="M2597 4044 c-3 -5 -48 -9 -101 -9 -81 1 -96 -2 -96 -15 0 -9 -6 -22
-12 -29 -9 -10 -9 -12 -1 -7 13 7 12 -31 -2 -53 -5 -9 -4 -12 2 -8 13 8 11
-116 -2 -125 -7 -5 -7 -8 0 -8 6 0 9 -18 9 -40 -1 -22 2 -40 8 -40 5 0 6 -5 3
-10 -8 -13 18 -8 27 5 13 17 20 -3 9 -24 -10 -17 -9 -20 5 -14 13 5 15 3 9 -8
-5 -8 -4 -11 0 -6 12 10 15 38 4 32 -5 -4 -6 1 -3 9 5 12 8 13 18 3 7 -7 16
-19 19 -27 4 -8 5 -3 2 11 -4 25 -3 26 43 25 45 -1 72 -14 72 -35 0 -16 18
-23 26 -10 4 8 3 9 -4 5 -7 -4 -12 -1 -12 9 0 10 5 13 12 9 7 -4 8 -3 4 5 -4
6 -12 9 -17 6 -5 -4 -9 -1 -9 4 0 14 17 14 25 1 4 -6 12 -7 18 -3 18 11 37 12
37 3 0 -5 -4 -12 -10 -15 -5 -3 -10 -12 -10 -18 0 -7 5 -4 11 7 9 15 13 16 21
5 6 -10 7 -7 3 9 -4 12 -3 21 2 20 4 -2 10 2 12 7 2 6 11 16 20 23 9 8 10 11
4 7 -7 -3 -13 0 -14 7 -5 60 -3 105 6 117 6 10 6 13 0 9 -6 -4 -10 9 -10 32 0
23 4 36 10 32 6 -3 4 2 -4 11 -7 9 -9 17 -3 17 5 0 13 7 16 16 6 14 4 15 -9 4
-14 -12 -15 -10 -12 11 3 13 -2 30 -9 37 -8 7 -14 9 -14 5 0 -11 -83 -11 -91
0 -4 5 -9 5 -12 1z"/>
<path d="M4525 4040 c3 -5 8 -10 11 -10 2 0 4 5 4 10 0 6 -5 10 -11 10 -5 0
-7 -4 -4 -10z"/>
<path d="M1193 4017 c-18 -22 -18 -22 2 -6 11 9 26 14 33 12 17 -6 15 4 -2 10
-8 3 -22 -4 -33 -16z"/>
<path d="M4476 4008 c-9 -12 -16 -27 -16 -33 0 -5 5 -2 11 8 6 9 13 15 17 13
4 -3 8 4 8 15 0 24 -1 24 -20 -3z"/>
<path d="M1205 4000 c-3 -6 1 -7 9 -4 18 7 21 14 7 14 -6 0 -13 -4 -16 -10z"/>
<path d="M1175 3980 c3 -5 8 -10 11 -10 2 0 4 5 4 10 0 6 -5 10 -11 10 -5 0
-7 -4 -4 -10z"/>
<path d="M1141 3966 c-9 -11 -8 -15 5 -20 9 -4 19 -4 22 -1 3 3 0 5 -6 5 -7 0
-12 5 -12 11 0 5 5 7 12 3 7 -4 8 -3 4 4 -9 15 -11 15 -25 -2z"/>
<path d="M4426 3972 c-3 -5 1 -9 9 -9 8 0 15 4 15 9 0 4 -4 8 -9 8 -6 0 -12
-4 -15 -8z"/>
<path d="M1101 3926 c-9 -10 -8 -15 3 -19 9 -4 18 -1 22 5 4 7 3 8 -4 4 -7 -4
-12 -3 -12 3 0 5 8 12 18 14 14 4 14 5 1 6 -9 0 -22 -5 -28 -13z"/>
<path d="M2755 3889 c-4 -6 -5 -12 -2 -15 2 -3 7 2 10 11 7 17 1 20 -8 4z"/>
<path d="M4319 3873 c-7 -10 -9 -15 -5 -11 5 4 15 0 23 -10 13 -15 13 -15 4 4
-6 12 -7 24 -4 28 3 3 4 6 1 6 -3 0 -12 -8 -19 -17z"/>
<path d="M1070 3859 c0 -5 5 -7 10 -4 6 3 10 8 10 11 0 2 -4 4 -10 4 -5 0 -10
-5 -10 -11z"/>
<path d="M4277 3831 c-24 -16 -26 -20 -12 -31 13 -11 14 -10 9 5 -5 12 -4 16
3 12 6 -4 14 0 17 9 3 8 10 12 16 9 5 -3 10 -1 10 4 0 15 -10 13 -43 -8z"/>
<path d="M1518 3714 c-4 -4 -29 -7 -55 -8 l-48 -1 0 -37 c0 -21 -4 -38 -9 -38
-6 0 -6 -4 1 -11 13 -13 4 -61 -11 -53 -6 3 -3 -1 7 -9 9 -8 17 -17 17 -20 0
-4 -8 -4 -17 0 -15 5 -14 3 2 -10 l20 -16 -20 -1 c-12 0 -16 -3 -9 -8 15 -9
23 -92 9 -92 -5 0 -4 -4 4 -9 17 -11 -3 -25 -21 -15 -8 4 -10 3 -5 -2 11 -12
357 -12 357 0 0 4 6 3 13 -3 10 -8 14 -7 14 4 0 7 -5 13 -11 12 -12 -2 -15 93
-3 110 5 7 5 18 1 25 -5 7 -9 45 -10 83 -1 39 -2 75 -3 81 -1 7 -37 10 -106
10 -58 -1 -106 3 -108 7 -1 5 -6 5 -9 1z"/>
<path d="M4156 3707 c3 -10 9 -15 12 -12 3 3 0 11 -7 18 -10 9 -11 8 -5 -6z"/>
<path d="M2507 3683 c3 -6 13 -10 23 -8 10 2 21 -4 24 -12 4 -9 9 -13 13 -10
3 4 0 13 -7 22 -15 18 1 20 18 3 9 -9 12 -9 12 0 0 13 -5 14 -56 16 -21 1 -30
-3 -27 -11z"/>
<path d="M2655 3689 c-4 -6 -5 -12 -2 -15 2 -3 7 2 10 11 7 17 1 20 -8 4z"/>
<path d="M4120 3655 c-19 -22 -8 -25 13 -3 9 10 13 18 8 18 -5 0 -14 -7 -21
-15z"/>
<path d="M1755 3611 c-3 -5 -2 -12 3 -15 5 -3 9 1 9 9 0 17 -3 19 -12 6z"/>
<path d="M3990 3560 c0 -5 5 -10 11 -10 5 0 7 5 4 10 -3 6 -8 10 -11 10 -2 0
-4 -4 -4 -10z"/>
<path d="M833 3525 c0 -8 4 -12 9 -9 5 3 6 10 3 15 -9 13 -12 11 -12 -6z"/>
<path d="M3827 3409 c7 -7 15 -10 18 -7 3 3 -2 9 -12 12 -14 6 -15 5 -6 -5z"/>
<path d="M1435 3361 c-3 -5 -2 -12 3 -15 5 -3 9 1 9 9 0 17 -3 19 -12 6z"/>
<path d="M1465 3360 c-3 -5 -1 -10 4 -10 6 0 11 5 11 10 0 6 -2 10 -4 10 -3 0
-8 -4 -11 -10z"/>
<path d="M1490 3361 c0 -6 4 -13 10 -16 6 -3 7 1 4 9 -7 18 -14 21 -14 7z"/>
<path d="M1516 3358 c3 -4 9 -8 15 -8 5 0 9 4 9 8 0 5 -7 9 -15 9 -8 0 -12 -4
-9 -9z"/>
<path d="M1550 3365 c0 -5 4 -16 9 -23 6 -11 10 -10 15 4 3 9 4 19 1 22 -3 3
-5 -1 -5 -9 0 -11 -2 -11 -10 1 -5 8 -10 11 -10 5z"/>
<path d="M1616 3358 c3 -4 -2 -8 -10 -8 -9 0 -16 -5 -16 -11 0 -7 9 -6 24 4
21 14 25 14 42 -1 14 -14 16 -14 6 -1 -6 9 -10 18 -7 20 2 3 -6 5 -20 5 -13 0
-21 -4 -19 -8z"/>
<path d="M1671 3363 c-1 -16 16 -26 24 -14 3 6 13 8 23 5 14 -5 14 -4 2 4 -9
7 -18 7 -26 1 -8 -7 -14 -6 -17 3 -4 9 -6 9 -6 1z"/>
<path d="M715 3340 c3 -5 8 -10 11 -10 2 0 4 5 4 10 0 6 -5 10 -11 10 -5 0 -7
-4 -4 -10z"/>
<path d="M1630 3336 c0 -2 8 -10 18 -17 15 -13 16 -12 3 4 -13 16 -21 21 -21
13z"/>
<path d="M3720 3321 c0 -6 4 -13 10 -16 6 -3 7 1 4 9 -7 18 -14 21 -14 7z"/>
<path d="M3713 3273 c0 -9 4 -10 14 -2 7 6 13 12 13 14 0 1 -6 2 -13 2 -8 0
-14 -6 -14 -14z"/>
<path d="M666 3242 c-3 -5 1 -9 9 -9 8 0 12 4 9 9 -3 4 -7 8 -9 8 -2 0 -6 -4
-9 -8z"/>
<path d="M3630 3220 c0 -5 5 -10 10 -10 6 0 10 5 10 10 0 6 -4 10 -10 10 -5 0
-10 -4 -10 -10z"/>
<path d="M4456 3113 c-6 -14 -5 -15 5 -6 7 7 10 15 7 18 -3 3 -9 -2 -12 -12z"/>
<path d="M3471 3096 c-19 -21 -20 -24 -6 -30 24 -9 32 -7 16 3 -7 5 -10 14 -6
21 6 9 9 9 16 -1 6 -10 8 -7 6 9 0 12 -2 22 -2 22 -1 0 -12 -11 -24 -24z"/>
<path d="M3510 3098 c0 -4 4 -8 9 -8 6 0 12 4 15 8 3 5 -1 9 -9 9 -8 0 -15 -4
-15 -9z"/>
<path d="M3380 3005 c0 -2 6 -8 13 -14 10 -8 14 -7 14 2 0 8 -6 14 -14 14 -7
0 -13 -1 -13 -2z"/>
<path d="M4490 3006 c0 -2 7 -7 16 -10 8 -3 12 -2 9 4 -6 10 -25 14 -25 6z"/>
<path d="M3340 2966 c0 -2 8 -10 18 -17 15 -13 16 -12 3 4 -13 16 -21 21 -21
13z"/>
<path d="M585 2940 c-3 -6 1 -7 9 -4 18 7 21 14 7 14 -6 0 -13 -4 -16 -10z"/>
<path d="M3255 2891 c-3 -7 -1 -10 6 -9 7 2 13 -2 14 -9 0 -6 3 -14 7 -18 3
-4 5 0 4 9 -3 24 -22 40 -31 27z"/>
<path d="M3240 2840 c-9 -6 -10 -10 -3 -10 6 0 15 5 18 10 8 12 4 12 -15 0z"/>
<path d="M4535 2801 c-3 -5 -2 -12 3 -15 5 -3 9 1 9 9 0 17 -3 19 -12 6z"/>
<path d="M3160 2775 c-19 -22 -8 -25 13 -3 9 10 13 18 8 18 -5 0 -14 -7 -21
-15z"/>
<path d="M566 2718 c3 -5 10 -6 15 -3 13 9 11 12 -6 12 -8 0 -12 -4 -9 -9z"/>
<path d="M1091 2722 c-5 -2 -7 -10 -4 -19 5 -12 3 -14 -8 -8 -11 6 -12 5 -2
-5 10 -11 10 -17 0 -29 -9 -12 -9 -13 0 -8 9 6 12 -2 11 -27 -1 -23 -5 -33
-12 -29 -6 4 -5 -1 3 -10 11 -14 11 -17 0 -17 -11 0 -11 -2 1 -10 13 -9 13
-10 0 -10 -9 0 -11 -3 -5 -8 6 -4 11 -22 12 -40 2 -27 -1 -31 -12 -22 -9 8
-15 8 -20 0 -4 -6 -1 -9 5 -8 17 4 39 -33 23 -39 -7 -3 -13 -9 -13 -14 0 -6 5
-7 12 -3 7 5 9 2 5 -9 -3 -9 0 -18 9 -21 10 -4 13 -2 7 7 -4 6 6 4 21 -7 22
-14 28 -15 24 -4 -6 15 25 19 38 5 10 -10 26 -9 20 1 -3 5 5 8 17 7 13 -2 21
-8 19 -16 -3 -11 -1 -12 9 -1 16 15 39 16 39 1 0 -5 -4 -8 -9 -5 -5 3 -14 -1
-21 -9 -9 -10 -9 -15 -1 -15 6 0 11 5 11 11 0 5 4 8 9 5 10 -6 34 18 26 26 -3
2 2 5 10 5 8 0 11 -5 7 -11 -3 -6 -8 -20 -9 -31 -2 -16 -1 -17 6 -5 5 8 8 17
5 21 -5 9 45 25 73 23 12 0 24 5 27 13 4 9 2 11 -7 7 -9 -6 -9 -5 0 8 7 8 10
18 7 21 -10 9 -9 71 1 86 6 10 4 12 -6 6 -11 -7 -12 -6 -2 7 7 8 10 18 7 21
-4 4 -7 38 -8 76 -1 38 -5 73 -9 78 -8 7 -295 12 -316 5z"/>
<path d="M3713 2723 c-4 -2 -7 -29 -6 -60 1 -32 -4 -64 -10 -72 -9 -12 -9 -13
1 -7 7 4 12 1 12 -9 0 -10 -5 -13 -12 -9 -10 6 -10 4 -2 -7 6 -8 12 -32 12
-54 1 -28 -1 -36 -8 -25 -7 12 -9 10 -7 -7 0 -12 5 -19 9 -17 11 7 6 -48 -6
-66 -8 -12 -8 -13 4 -3 11 10 17 10 29 0 8 -6 12 -7 8 -1 -3 6 0 11 7 11 8 0
12 -7 8 -15 -3 -10 -1 -13 6 -9 6 4 12 2 15 -5 2 -7 2 -2 0 12 -3 24 -3 24 12
6 14 -18 20 -15 16 7 -1 5 3 5 9 2 6 -4 9 -13 6 -21 -3 -8 0 -11 9 -8 8 3 12
11 9 18 -3 7 4 12 15 12 15 0 17 -3 9 -13 -15 -18 -2 -16 30 4 l27 17 -18 -21
c-14 -16 -15 -23 -6 -29 8 -4 10 -3 5 4 -4 7 3 14 19 18 13 3 23 9 21 13 -3 4
4 7 14 7 10 0 18 -5 17 -11 -1 -5 9 -9 23 -9 39 2 42 3 35 14 -3 6 -2 10 4 10
5 0 10 10 10 23 1 51 3 57 13 51 5 -4 2 6 -8 21 -14 22 -15 28 -4 35 11 7 11
11 1 24 -8 9 -9 16 -4 16 12 0 14 38 2 45 -5 4 -5 14 1 26 8 14 7 19 -1 19 -8
0 -8 4 1 15 7 9 8 15 2 15 -5 0 -9 8 -8 17 1 15 -15 17 -156 18 -86 0 -160 -1
-165 -2z"/>
<path d="M3070 2630 c-9 -6 -10 -10 -3 -10 6 0 15 5 18 10 8 12 4 12 -15 0z"/>
<path d="M4550 2541 c0 -6 4 -13 10 -16 6 -3 7 1 4 9 -7 18 -14 21 -14 7z"/>
<path d="M4555 2490 c-3 -5 -1 -10 4 -10 6 0 11 5 11 10 0 6 -2 10 -4 10 -3 0
-8 -4 -11 -10z"/>
<path d="M3073 2475 c0 -8 4 -12 9 -9 4 3 8 9 8 15 0 5 -4 9 -8 9 -5 0 -9 -7
-9 -15z"/>
<path d="M1165 2380 c-3 -5 -1 -10 4 -10 6 0 11 5 11 10 0 6 -2 10 -4 10 -3 0
-8 -4 -11 -10z"/>
<path d="M1221 2381 c-8 -5 -9 -11 -3 -15 5 -3 12 1 16 9 6 17 6 18 -13 6z"/>
<path d="M1378 2378 c5 -5 16 -8 23 -6 8 3 3 7 -10 11 -17 4 -21 3 -13 -5z"/>
<path d="M1340 2376 c0 -2 7 -9 15 -16 9 -7 15 -8 15 -2 0 5 -7 12 -15 16 -8
3 -15 4 -15 2z"/>
<path d="M3953 2361 c0 -11 5 -18 9 -15 4 3 5 11 1 19 -7 21 -12 19 -10 -4z"/>
<path d="M5016 2238 c3 -5 10 -6 15 -3 13 9 11 12 -6 12 -8 0 -12 -4 -9 -9z"/>
<path d="M3035 2220 c3 -5 8 -10 11 -10 2 0 4 5 4 10 0 6 -5 10 -11 10 -5 0
-7 -4 -4 -10z"/>
<path d="M2074 2206 c1 -8 5 -18 8 -22 4 -3 5 1 4 10 -1 8 -5 18 -8 22 -4 3
-5 -1 -4 -10z"/>
<path d="M2115 2131 c-3 -5 -2 -12 3 -15 5 -3 9 1 9 9 0 17 -3 19 -12 6z"/>
<path d="M2936 2098 c3 -4 11 -5 19 -1 21 7 19 12 -4 10 -11 0 -18 -5 -15 -9z"/>
<path d="M2890 2081 c0 -5 7 -12 16 -15 14 -5 15 -4 4 9 -14 17 -20 19 -20 6z"/>
<path d="M4995 2080 c3 -5 8 -10 11 -10 2 0 4 5 4 10 0 6 -5 10 -11 10 -5 0
-7 -4 -4 -10z"/>
<path d="M2847 2073 c-5 -9 10 -53 17 -53 3 0 1 11 -4 24 -5 13 -6 27 -3 30 4
3 4 6 0 6 -3 0 -8 -3 -10 -7z"/>
<path d="M2260 2061 c0 -6 4 -13 10 -16 6 -3 7 1 4 9 -7 18 -14 21 -14 7z"/>
<path d="M2304 2062 c3 -6 0 -13 -6 -16 -7 -2 -2 -4 12 -3 16 1 24 -3 22 -11
-1 -8 2 -11 8 -7 13 8 5 22 -22 36 -12 7 -18 7 -14 1z"/>
<path d="M2870 2060 c0 -5 5 -10 11 -10 5 0 7 5 4 10 -3 6 -8 10 -11 10 -2 0
-4 -4 -4 -10z"/>
<path d="M2930 2060 c0 -5 5 -10 11 -10 5 0 7 5 4 10 -3 6 -8 10 -11 10 -2 0
-4 -4 -4 -10z"/>
<path d="M2362 2046 c7 -8 15 -12 17 -11 5 6 -10 25 -20 25 -5 0 -4 -6 3 -14z"/>
<path d="M2393 2038 c-2 -18 0 -20 7 -8 12 18 13 30 2 30 -4 0 -9 -10 -9 -22z"/>
<path d="M2426 2047 c6 -16 36 -18 50 -4 4 4 13 2 20 -4 8 -7 14 -7 19 1 7 12
8 11 -28 14 -15 2 -30 -1 -33 -6 -3 -5 -12 -4 -20 3 -12 10 -13 9 -8 -4z"/>
<path d="M2537 2043 c6 -16 33 -25 30 -10 -1 7 4 11 11 10 6 -2 12 1 12 6 0 5
-13 8 -29 7 -18 0 -27 -5 -24 -13z"/>
<path d="M2605 2049 c-4 -6 -5 -12 -2 -15 2 -3 7 2 10 11 7 17 1 20 -8 4z"/>
<path d="M2674 2049 c-3 -6 -1 -16 5 -22 9 -9 10 -7 5 8 -7 18 -6 19 12 5 18
-14 18 -14 5 3 -16 20 -18 20 -27 6z"/>
<path d="M120 2046 c0 -2 8 -10 18 -17 15 -13 16 -12 3 4 -13 16 -21 21 -21
13z"/>
<path d="M2635 2020 c-3 -6 1 -7 9 -4 18 7 21 14 7 14 -6 0 -13 -4 -16 -10z"/>
<path d="M4435 1860 c3 -5 8 -10 11 -10 2 0 4 5 4 10 0 6 -5 10 -11 10 -5 0
-7 -4 -4 -10z"/>
<path d="M4946 1855 c4 -8 11 -15 16 -15 6 0 5 6 -2 15 -7 8 -14 15 -16 15 -2
0 -1 -7 2 -15z"/>
<path d="M190 1779 c0 -5 5 -7 10 -4 6 3 10 8 10 11 0 2 -4 4 -10 4 -5 0 -10
-5 -10 -11z"/>
<path d="M216 1697 c3 -10 9 -15 12 -12 3 3 0 11 -7 18 -10 9 -11 8 -5 -6z"/>
<path d="M4873 1595 c0 -8 4 -12 9 -9 5 3 6 10 3 15 -9 13 -12 11 -12 -6z"/>
<path d="M287 1527 c-3 -8 1 -14 8 -14 7 0 11 6 8 14 -3 7 -6 13 -8 13 -2 0
-5 -6 -8 -13z"/>
<path d="M4810 1490 c-9 -6 -10 -10 -3 -10 6 0 15 5 18 10 8 12 4 12 -15 0z"/>
<path d="M4794 1459 c-3 -6 -2 -15 3 -20 5 -5 9 -1 9 11 0 23 -2 24 -12 9z"/>
<path d="M335 1400 c3 -5 8 -10 11 -10 2 0 4 5 4 10 0 6 -5 10 -11 10 -5 0 -7
-4 -4 -10z"/>
<path d="M4776 1395 c-9 -26 -7 -32 5 -12 6 10 9 21 6 23 -2 3 -7 -2 -11 -11z"/>
<path d="M390 1321 c0 -5 7 -14 15 -21 8 -7 12 -17 8 -23 -4 -6 -1 -7 6 -3 9
6 9 12 -3 25 -9 10 -13 21 -9 24 3 4 1 7 -5 7 -7 0 -12 -4 -12 -9z"/>
<path d="M4652 1218 c-7 -7 -12 -16 -12 -21 0 -5 7 -1 16 8 9 9 14 18 12 20
-2 3 -10 -1 -16 -7z"/>
<path d="M4521 1037 c-8 -10 -7 -14 2 -14 8 0 14 6 14 14 0 7 -1 13 -2 13 -2
0 -8 -6 -14 -13z"/>
<path d="M590 1025 c0 -5 5 -17 10 -25 5 -8 10 -10 10 -5 0 6 -5 17 -10 25 -5
8 -10 11 -10 5z"/>
<path d="M657 935 c-4 -8 -1 -17 6 -21 7 -4 9 -4 5 1 -4 4 -3 14 3 22 7 8 8
13 1 13 -5 0 -12 -7 -15 -15z"/>
<path d="M4412 910 c-7 -11 -8 -20 -3 -20 9 0 24 30 18 36 -1 2 -8 -6 -15 -16z"/>
<path d="M697 885 c3 -8 9 -12 14 -9 12 7 11 11 -5 17 -10 4 -13 1 -9 -8z"/>
<path d="M720 865 c-9 -10 -9 -15 -1 -15 6 0 11 6 11 13 0 8 4 7 10 -3 6 -9
10 -10 10 -3 0 19 -17 24 -30 8z"/>
<path d="M4365 860 c-2 -4 11 -7 29 -6 19 0 32 4 30 7 -5 9 -53 8 -59 -1z"/>
<path d="M761 804 c0 -11 3 -14 6 -6 3 7 2 16 -1 19 -3 4 -6 -2 -5 -13z"/>
<path d="M785 809 c-4 -6 -5 -12 -2 -15 2 -3 7 2 10 11 7 17 1 20 -8 4z"/>
<path d="M4294 785 c-10 -8 -14 -15 -7 -15 6 0 15 5 18 10 4 6 11 7 17 4 7 -4
8 -2 4 4 -9 15 -8 15 -32 -3z"/>
<path d="M837 756 c-4 -9 -3 -15 1 -15 20 3 23 -3 11 -18 -11 -15 -11 -16 0
-6 7 6 21 9 30 6 13 -4 13 -3 -1 7 -10 6 -21 18 -26 26 -8 15 -10 15 -15 0z"/>
<path d="M4270 740 c0 -5 5 -10 11 -10 5 0 7 5 4 10 -3 6 -8 10 -11 10 -2 0
-4 -4 -4 -10z"/>
<path d="M4211 696 c-9 -10 -9 -16 -1 -21 6 -4 14 -4 17 -1 4 3 0 6 -8 6 -12
0 -12 2 1 10 8 5 12 12 9 15 -4 3 -12 -1 -18 -9z"/>
<path d="M933 646 c0 -7 6 -13 14 -13 7 0 13 4 13 8 0 4 -6 9 -13 12 -8 3 -14
0 -14 -7z"/>
<path d="M4115 620 c-26 -28 -15 -31 12 -3 12 13 19 23 14 23 -4 0 -16 -9 -26
-20z"/>
<path d="M990 606 c0 -2 7 -6 15 -10 8 -3 15 -1 15 4 0 6 -7 10 -15 10 -8 0
-15 -2 -15 -4z"/>
<path d="M1045 576 c10 -14 19 -26 22 -26 7 0 -17 39 -28 46 -6 3 -3 -5 6 -20z"/>
<path d="M4080 580 c8 -5 20 -10 25 -10 6 0 3 5 -5 10 -8 5 -19 10 -25 10 -5
0 -3 -5 5 -10z"/>
<path d="M4020 550 c-14 -11 -20 -20 -14 -20 6 0 19 9 29 20 23 25 17 25 -15
0z"/>
<path d="M4036 518 c3 -5 10 -6 15 -3 13 9 11 12 -6 12 -8 0 -12 -4 -9 -9z"/>
<path d="M1224 461 c4 -5 0 -11 -6 -14 -7 -3 -3 -4 9 -4 17 1 19 4 11 14 -12
15 -22 18 -14 4z"/>
<path d="M3856 441 c-3 -5 1 -11 9 -14 9 -4 12 -1 8 9 -6 16 -10 17 -17 5z"/>
<path d="M3830 411 c0 -6 5 -13 12 -17 6 -4 8 -3 4 4 -3 5 0 13 6 15 8 3 6 6
-4 6 -10 1 -18 -3 -18 -8z"/>
<path d="M1313 392 c-1 -10 5 -19 12 -19 10 0 11 5 4 19 -5 10 -11 18 -12 18
-2 0 -3 -8 -4 -18z"/>
<path d="M3795 400 c-3 -5 -1 -10 4 -10 6 0 11 5 11 10 0 6 -2 10 -4 10 -3 0
-8 -4 -11 -10z"/>
<path d="M3815 380 c-3 -5 -1 -10 4 -10 6 0 11 5 11 10 0 6 -2 10 -4 10 -3 0
-8 -4 -11 -10z"/>
<path d="M3739 357 c-9 -21 -9 -21 5 -3 8 10 19 15 25 12 5 -4 12 -3 15 2 2 4
-4 9 -15 9 -11 1 -24 -8 -30 -20z"/>
<path d="M1346 338 c3 -5 10 -6 15 -3 13 9 11 12 -6 12 -8 0 -12 -4 -9 -9z"/>
<path d="M1410 331 c0 -6 4 -13 10 -16 6 -3 7 1 4 9 -7 18 -14 21 -14 7z"/>
<path d="M1515 291 c-3 -5 -2 -12 3 -15 5 -3 9 1 9 9 0 17 -3 19 -12 6z"/>
<path d="M3583 285 c0 -8 4 -12 9 -9 5 3 6 10 3 15 -9 13 -12 11 -12 -6z"/>
<path d="M3630 289 c0 -5 5 -7 10 -4 6 3 10 8 10 11 0 2 -4 4 -10 4 -5 0 -10
-5 -10 -11z"/>
<path d="M3400 220 c-9 -6 -10 -10 -3 -10 6 0 15 5 18 10 8 12 4 12 -15 0z"/>
<path d="M1655 209 c-4 -6 -5 -12 -2 -15 2 -3 7 2 10 11 7 17 1 20 -8 4z"/>
<path d="M1730 200 c0 -5 5 -10 11 -10 5 0 7 5 4 10 -3 6 -8 10 -11 10 -2 0
-4 -4 -4 -10z"/>
<path d="M3321 193 c-7 -8 -10 -17 -6 -21 3 -3 10 0 15 8 8 13 10 13 10 1 0
-8 3 -12 6 -8 3 3 2 12 -3 20 -7 13 -10 13 -22 0z"/>
<path d="M3370 200 c0 -5 5 -10 11 -10 5 0 7 5 4 10 -3 6 -8 10 -11 10 -2 0
-4 -4 -4 -10z"/>
<path d="M1804 179 c-4 -7 -3 -9 4 -5 5 3 13 0 15 -6 4 -9 6 -10 6 -1 1 17
-16 25 -25 12z"/>
<path d="M3276 177 c-16 -12 -16 -13 2 -13 10 0 19 6 19 13 0 7 -1 13 -2 13
-1 0 -9 -6 -19 -13z"/>
<path d="M1970 141 c0 -5 7 -12 16 -15 14 -5 15 -4 4 9 -14 17 -20 19 -20 6z"/>
<path d="M3095 140 c-4 -6 -12 -7 -18 -3 -7 3 -4 -3 6 -14 9 -11 14 -23 10
-28 -5 -4 -2 -5 5 -1 11 6 11 11 0 24 -11 13 -10 15 4 9 12 -4 15 -2 11 9 -6
17 -10 17 -18 4z"/>
<path d="M3250 139 c0 -5 5 -7 10 -4 6 3 10 8 10 11 0 2 -4 4 -10 4 -5 0 -10
-5 -10 -11z"/>
<path d="M2023 132 c-9 -5 -6 -12 10 -21 20 -13 21 -13 8 2 -8 10 -9 17 -3 17
6 0 14 -4 17 -10 3 -5 12 -10 18 -10 7 0 3 7 -7 15 -23 17 -26 18 -43 7z"/>
<path d="M3006 113 c-6 -14 -5 -15 5 -6 7 7 10 15 7 18 -3 3 -9 -2 -12 -12z"/>
<path d="M3033 106 c-2 -19 -1 -20 11 -4 7 10 15 17 17 15 2 -1 3 0 1 2 -8 14
-28 6 -29 -13z"/>
<path d="M2181 103 c8 -13 16 -18 20 -12 3 6 9 10 13 10 3 -1 6 1 6 4 0 3 0 8
0 11 0 4 -6 2 -13 -5 -10 -8 -17 -7 -26 2 -10 9 -10 7 0 -10z"/>
<path d="M2976 111 c-4 -5 -15 -8 -26 -6 -12 2 -18 0 -15 -5 3 -5 15 -7 27 -5
24 5 34 13 26 21 -3 3 -9 1 -12 -5z"/>
<path d="M2246 97 c3 -10 9 -15 12 -12 3 3 0 11 -7 18 -10 9 -11 8 -5 -6z"/>
<path d="M2270 101 c0 -5 7 -14 15 -21 8 -7 12 -17 8 -23 -3 -6 -1 -7 5 -3 9
5 7 14 -4 32 -17 25 -24 30 -24 15z"/>
<path d="M2549 99 c-8 -44 -8 -53 1 -37 6 9 17 15 25 12 8 -4 15 -1 15 7 0 7
-3 9 -7 6 -3 -4 -12 -2 -20 4 -7 6 -13 10 -14 8z"/>
<path d="M2703 87 c-3 -5 -12 -6 -22 -2 -12 5 -13 4 -4 -6 10 -10 15 -10 27 0
12 10 16 9 25 -6 6 -10 11 -12 11 -5 0 6 5 11 11 10 6 -2 13 2 16 8 5 13 -56
14 -64 1z"/>
<path d="M2096 78 c3 -5 10 -6 15 -3 13 9 11 12 -6 12 -8 0 -12 -4 -9 -9z"/>
<path d="M2230 81 c0 -6 4 -13 10 -16 6 -3 7 1 4 9 -7 18 -14 21 -14 7z"/>
<path d="M2410 78 c0 -4 4 -8 9 -8 6 0 12 4 15 8 3 5 -1 9 -9 9 -8 0 -15 -4
-15 -9z"/>
<path d="M2458 72 c3 -10 1 -13 -6 -8 -6 3 -13 2 -16 -3 -4 -5 1 -8 10 -7 21
3 39 33 20 33 -8 0 -12 -7 -8 -15z"/>
<path d="M2513 75 c0 -8 4 -15 9 -15 4 0 8 7 8 15 0 8 -4 15 -8 15 -5 0 -9 -7
-9 -15z"/>
<path d="M2636 75 c-11 -8 -14 -15 -7 -15 7 0 9 -5 5 -12 -5 -7 -3 -8 5 -4 7
5 10 11 7 14 -3 3 -1 11 5 19 15 17 9 16 -15 -2z"/>
<path d="M2916 73 c-6 -14 -5 -15 5 -6 7 7 10 15 7 18 -3 3 -9 -2 -12 -12z"/>
<path d="M2775 60 c3 -5 8 -10 11 -10 2 0 4 5 4 10 0 6 -5 10 -11 10 -5 0 -7
-4 -4 -10z"/>
</g>
</svg>
