<?xml version="1.0" standalone="no"?>
<!DOCTYPE svg PUBLIC "-//W3C//DTD SVG 20010904//EN"
 "http://www.w3.org/TR/2001/REC-SVG-20010904/DTD/svg10.dtd">
<svg version="1.0" xmlns="http://www.w3.org/2000/svg"
 width="512.000000pt" height="512.000000pt" viewBox="0 0 512.000000 512.000000"
 preserveAspectRatio="xMidYMid meet">
<metadata>
Created by potrace 1.11, written by Peter Selinger 2001-2013
</metadata>
<g transform="translate(0.000000,512.000000) scale(0.100000,-0.100000)"
fill="#000000" stroke="none">
<path d="M306 5109 c-62 -15 -153 -68 -197 -116 -22 -24 -55 -74 -72 -111
l-32 -67 0 -2256 0 -2255 37 -76 c45 -91 103 -147 196 -191 l67 -32 2256 0
2255 0 76 37 c91 45 147 103 191 196 l32 67 0 2255 0 2255 -32 67 c-44 93
-100 151 -191 196 l-76 37 -2235 2 c-1327 0 -2252 -3 -2275 -8z m4131 -705
c96 -33 180 -115 221 -216 16 -40 17 -137 17 -1283 l0 -1240 -24 -60 c-17 -44
-40 -76 -85 -120 -108 -106 -47 -99 -902 -105 l-741 -5 56 -170 57 -170 290
-5 c249 -4 293 -7 321 -22 40 -23 70 -61 85 -110 23 -77 -23 -172 -99 -204
-47 -20 -2078 -21 -2126 0 -44 18 -95 78 -103 121 -14 76 9 133 72 182 l37 28
295 5 295 5 58 172 57 173 -721 0 c-593 0 -732 3 -776 14 -98 27 -176 94 -225
196 l-31 65 0 1240 c0 971 3 1249 13 1282 28 91 121 189 214 225 39 15 203 17
1870 17 1656 1 1832 -1 1875 -15z"/>
<path d="M930 2905 l0 -1055 1640 0 1640 0 -2 1053 -3 1052 -1637 3 -1638 2 0
-1055z"/>
</g>
</svg>
