<svg version="1" xmlns="http://www.w3.org/2000/svg" width="682.667" height="682.667" viewBox="0 0 512.000000 512.000000"><path d="M71.5 19.2C66 23.5 66 23.4 66 81c0 57.6 0 57.5 5.5 61.8l2.8 2.2h147.4l2.8-2.2c5.5-4.3 5.5-4.2 5.5-61.8 0-57.6 0-57.5-5.5-61.8l-2.8-2.2H74.3l-2.8 2.2zM212 78v44H84V34h128v44zM288.4 18c-1.2.4-3.1 2.1-4.3 3.6-2.1 2.7-2.1 3-2.1 59.5V138l2.9 3.2 2.9 3.3 74.6.3 74.6.2 3.7-3.4 3.8-3.4V23.8l-3.7-3.4L437 17l-73.2.1c-40.3 0-74.3.4-75.4.9zM427 78v44H299V78.7c0-23.9.3-43.7.7-44 .3-.4 29.1-.7 64-.7H427v44zM74.5 157.8c-3.1 1-5 2.5-6.8 5.2-1.5 2.2-1.7 7.5-1.7 58.7V278l2.9 3.2 2.9 3.3 53.3.5 53.3.5 3 5.1c1.7 2.8 3.9 6.1 4.8 7.4l1.7 2.3 9.4-2.7c20.5-5.8 26.8-6.7 52.2-7.3 27.7-.6 38.7.5 59.8 6.2 7 1.9 13.3 3.5 14 3.5 1.1 0 4.2-4.2 9.1-12.3l1.6-2.7h103.2l3.4-3.4 3.4-3.4v-56.5c0-56.4 0-56.4-2.2-59.2-4.4-5.6-2.7-5.5-79.2-5.5-47.4 0-71.4.3-73.3 1.1-1.5.5-4 2.2-5.4 3.6l-2.7 2.5-8.3-1.7c-10.1-2.1-29.2-1.6-38.2.9l-5.9 1.6-2.1-2.6c-4.3-5.5-2.8-5.4-79.4-5.3-38.9.1-71.7.4-72.8.7zM206 176.7c-15 10.2-27.2 27.3-33.2 46.3-2 6.5-2.3 9.5-2.3 23.2V262H83v-87h62.7c59.2 0 62.6.1 60.3 1.7zm221 41.8V262h-85.5v-15.8c0-13.7-.3-16.7-2.3-23.2-6-19-18.2-36.1-33.2-46.3-2.3-1.6 1.1-1.7 59.3-1.7H427v43.5z"/><path d="M234 299.5c-51.1 5.5-87.9 26.4-98.5 56-5.4 15-4.6 37.6 2.1 62.5 4.9 18.4 20.3 60.5 23.7 64.7.7 1 20.8 1.3 94.3 1.3 91.3 0 93.4 0 94.4-1.9 2.5-4.7 13.7-33.9 18-47.1 7.9-23.9 10.2-35.9 10.4-53.5.1-20.7-2.4-29.2-12.5-42.9-10.4-13.9-36.2-28.4-60.9-34.2-26-6.1-46.9-7.5-71-4.9zM64.8 390.2c-6.4 11.7-20.5 37.2-31.2 56.7s-19.3 35.8-19 36.3c.3.4 31.1.8 68.5.8 57.4 0 67.9-.2 67.9-1.4 0-.8-1.4-4.7-3.1-8.7-16.5-38.7-24.9-71.7-24.9-97.5V369H76.5l-11.7 21.2zM387.4 381.8c-.3 23.4-7.2 49.2-25.7 94.9-1.4 3.4-2.2 6.4-1.9 6.7.9.9 137 .7 137.6-.2.3-.5-8.3-16.8-19-36.3-10.7-19.5-24.8-45-31.2-56.7L435.5 369h-48l-.1 12.8z"/></svg>