<?xml version="1.0" standalone="no"?>
<!DOCTYPE svg PUBLIC "-//W3C//DTD SVG 20010904//EN"
 "http://www.w3.org/TR/2001/REC-SVG-20010904/DTD/svg10.dtd">
<svg version="1.0" xmlns="http://www.w3.org/2000/svg"
 width="512.000000pt" height="512.000000pt" viewBox="0 0 512.000000 512.000000"
 preserveAspectRatio="xMidYMid meet">
<metadata>
Created by potrace 1.11, written by Peter Selinger 2001-2013
</metadata>
<g transform="translate(0.000000,512.000000) scale(0.100000,-0.100000)"
fill="#000000" stroke="none">
<path d="M91 4330 c-4 -8 -7 -22 -6 -30 0 -8 -4 -18 -10 -22 -6 -5 -5 -8 4 -8
11 0 11 -3 1 -15 -7 -8 -17 -12 -23 -8 -6 3 -7 1 -3 -5 4 -6 14 -8 24 -5 14 5
15 3 5 -8 -14 -14 -18 -33 -5 -25 13 8 7 -61 -8 -78 -7 -9 -10 -19 -6 -23 3
-3 6 -1 6 6 0 7 5 9 10 6 6 -4 7 -12 3 -18 -4 -7 -8 -21 -8 -32 -1 -11 -6 -19
-12 -18 -15 3 -10 -24 7 -40 12 -10 12 -9 2 4 -11 15 -7 29 8 29 14 0 3 -41
-16 -55 -18 -13 -18 -14 6 -9 18 4 21 3 11 -4 -7 -5 -9 -12 -4 -15 11 -7 10
-48 -1 -66 -5 -8 -3 -17 5 -22 12 -8 6 -13 -13 -10 -3 0 -5 -7 -3 -17 2 -9 4
-21 4 -25 1 -5 5 -6 9 -3 10 6 8 -36 -2 -52 -4 -7 -2 -12 6 -12 10 0 10 -2 -1
-9 -7 -5 -10 -14 -6 -20 10 -18 14 -61 4 -55 -12 7 -11 -3 3 -29 10 -21 10
-21 -7 -7 -17 14 -18 14 -7 -7 13 -24 12 -44 -2 -55 -13 -9 -17 -40 -5 -32 5
3 7 10 4 15 -4 5 0 9 8 9 20 0 14 -38 -9 -55 -18 -13 -18 -14 6 -9 18 4 21 3
11 -4 -7 -5 -9 -12 -4 -15 11 -7 10 -48 -1 -66 -5 -8 -3 -17 5 -22 12 -8 6
-13 -13 -10 -3 0 -5 -7 -3 -17 2 -9 4 -21 4 -25 1 -5 5 -6 9 -3 10 6 8 -36 -2
-52 -4 -7 -2 -12 6 -12 10 0 10 -2 -1 -9 -7 -5 -10 -14 -6 -20 10 -18 14 -61
4 -55 -12 7 -11 -3 3 -29 10 -21 10 -21 -7 -7 -17 14 -18 14 -7 -7 13 -24 12
-44 -2 -55 -13 -9 -17 -40 -5 -32 5 3 7 10 4 15 -4 5 0 9 8 9 20 0 14 -38 -9
-55 -18 -13 -18 -14 6 -9 18 4 21 3 11 -4 -7 -5 -9 -12 -4 -15 11 -7 10 -48
-1 -66 -5 -8 -3 -17 5 -22 12 -8 6 -13 -13 -10 -3 0 -5 -7 -3 -17 2 -9 4 -21
4 -25 1 -5 5 -6 9 -3 10 6 8 -36 -2 -52 -4 -7 -2 -12 6 -12 10 0 10 -2 -1 -9
-7 -5 -10 -14 -6 -20 10 -18 14 -61 4 -55 -12 7 -11 -3 3 -29 10 -21 10 -21
-7 -7 -17 14 -18 14 -7 -7 13 -24 12 -44 -2 -55 -13 -9 -17 -40 -5 -32 5 3 7
10 4 15 -4 5 0 9 8 9 20 0 14 -38 -9 -55 -18 -13 -18 -14 6 -9 18 4 21 3 11
-4 -7 -5 -9 -12 -4 -15 11 -7 10 -48 -1 -66 -5 -8 -3 -17 5 -22 12 -8 6 -13
-13 -10 -3 0 -5 -7 -3 -17 2 -9 4 -21 4 -25 1 -5 5 -6 9 -3 10 6 8 -36 -2 -52
-4 -7 -2 -12 6 -12 10 0 10 -2 -1 -9 -7 -5 -10 -14 -6 -20 10 -18 14 -61 4
-55 -12 7 -11 -3 3 -29 10 -21 10 -21 -7 -7 -17 14 -18 14 -7 -7 13 -24 12
-44 -2 -55 -13 -9 -17 -40 -5 -32 5 3 7 10 4 15 -4 5 0 9 8 9 20 0 14 -38 -9
-55 -18 -13 -18 -14 6 -9 18 4 21 3 11 -4 -7 -5 -9 -12 -4 -15 11 -7 10 -48
-1 -66 -5 -8 -3 -17 5 -22 12 -8 6 -13 -13 -10 -3 0 -5 -7 -3 -17 2 -9 4 -21
4 -25 1 -5 5 -6 9 -3 10 6 8 -36 -2 -52 -4 -7 -2 -12 6 -12 10 0 10 -2 -1 -9
-7 -5 -10 -14 -6 -20 10 -18 14 -61 4 -55 -12 7 -11 -3 3 -29 10 -21 10 -21
-7 -7 -17 14 -18 14 -7 -7 13 -24 12 -44 -2 -55 -13 -9 -17 -40 -5 -32 5 3 7
10 4 15 -4 5 0 9 8 9 20 0 14 -38 -9 -55 -18 -13 -18 -14 6 -9 18 4 21 3 11
-4 -7 -5 -9 -12 -4 -15 11 -7 10 -48 -1 -66 -5 -8 -3 -17 5 -22 12 -8 6 -13
-13 -10 -3 0 -5 -7 -3 -17 2 -9 4 -21 4 -25 1 -5 5 -6 9 -3 10 6 8 -36 -2 -52
-4 -7 -2 -12 6 -12 10 0 10 -2 -1 -9 -7 -5 -10 -14 -6 -20 10 -18 14 -61 4
-55 -12 7 -11 -3 3 -29 10 -21 10 -21 -7 -7 -17 14 -17 14 -7 -7 9 -16 9 -23
-1 -26 -7 -3 -5 -6 6 -6 19 -1 24 -37 5 -43 -7 -3 -5 -7 6 -11 11 -4 15 -3 10
4 -4 7 -1 10 7 7 8 -3 14 -10 14 -15 0 -6 4 -15 9 -20 5 -5 6 -2 1 6 -6 11 -2
13 19 9 14 -3 29 -1 32 4 3 4 10 5 16 2 8 -5 9 -1 5 12 -7 18 -6 18 7 1 9 -11
16 -14 19 -7 3 6 4 5 3 -2 -2 -7 -12 -12 -24 -12 -12 1 -19 -3 -16 -7 3 -5 9
-7 14 -4 4 3 11 -1 13 -7 4 -10 6 -10 6 0 1 7 6 10 11 7 9 -5 14 6 12 26 0 3
10 5 23 5 13 0 22 -3 19 -7 -2 -4 10 -6 28 -4 18 2 33 4 33 5 0 1 8 3 18 5 9
2 15 -1 11 -6 -8 -13 10 -11 25 4 11 10 13 10 7 0 -4 -7 -2 -13 5 -13 6 0 9
-8 6 -20 -3 -11 -1 -18 4 -14 5 3 9 16 9 29 0 13 5 27 12 31 6 4 8 3 4 -4 -3
-6 -2 -13 3 -16 5 -4 12 -2 16 4 4 6 12 7 18 3 21 -13 47 -13 47 0 0 7 3 8 8
2 10 -14 65 -15 74 -1 5 7 8 7 8 -3 0 -11 3 -11 17 0 11 10 14 10 9 2 -4 -7
-3 -13 3 -13 5 0 13 5 16 10 8 13 25 13 25 -1 0 -5 -5 -7 -12 -3 -7 5 -8 3 -3
-6 5 -8 4 -11 -3 -6 -6 3 -14 1 -18 -5 -4 -8 -3 -9 4 -5 7 4 12 1 12 -6 0 -7
9 1 20 17 22 33 27 27 8 -8 -9 -19 -9 -20 3 -10 11 9 19 8 33 -3 11 -8 25 -14
30 -14 6 1 0 7 -13 14 -32 18 -35 42 -5 42 12 0 20 -4 17 -9 -3 -4 1 -8 8 -6
26 3 40 -1 35 -10 -4 -5 0 -8 6 -7 20 3 39 17 34 25 -3 4 6 7 19 7 13 0 21 -4
18 -9 -3 -4 1 -8 8 -6 25 3 40 -1 35 -9 -3 -5 9 -8 27 -7 18 1 43 -5 57 -13
l25 -14 -24 20 c-14 11 -34 19 -46 17 -12 -1 -22 4 -22 11 0 7 4 11 9 8 20
-13 58 -14 58 -2 0 8 3 9 8 3 10 -14 65 -15 74 -1 5 7 8 7 8 -3 0 -11 3 -11
17 0 9 8 14 10 11 4 -3 -5 1 -16 9 -24 12 -11 14 -10 11 4 -2 10 3 20 11 23 9
3 11 -1 7 -16 -4 -12 -2 -23 5 -28 8 -4 9 -3 5 4 -4 7 -2 20 4 29 11 17 11 17
6 1 -3 -10 -1 -18 4 -18 5 0 7 -7 4 -15 -4 -8 -2 -15 4 -15 5 0 8 13 7 28 -2
23 2 28 21 28 12 0 21 -3 18 -7 -2 -4 10 -6 28 -4 18 2 33 4 33 5 0 1 8 3 18
5 9 2 15 -1 11 -6 -8 -13 10 -11 25 4 11 9 13 9 7 0 -4 -7 -2 -13 5 -13 6 0 9
-8 6 -20 -3 -11 -1 -18 4 -14 5 3 9 16 9 29 0 13 5 27 12 31 6 4 8 3 4 -4 -3
-6 -2 -13 3 -16 5 -4 12 -2 16 4 4 6 12 7 18 3 21 -13 47 -13 47 0 0 7 3 8 8
2 10 -14 65 -15 74 -1 5 7 8 7 8 -3 0 -11 3 -11 17 0 11 10 14 10 9 2 -4 -7
-3 -13 3 -13 5 0 13 5 16 10 8 13 25 13 25 -1 0 -5 -5 -7 -12 -3 -7 5 -8 3 -3
-6 5 -8 4 -11 -3 -6 -6 3 -14 1 -18 -5 -4 -8 -3 -9 4 -5 7 4 12 1 12 -6 0 -7
9 1 20 17 22 33 27 27 8 -8 -9 -19 -9 -20 3 -10 11 9 19 8 33 -3 11 -8 25 -14
30 -14 6 1 0 7 -13 14 -32 18 -35 42 -5 42 12 0 20 -4 17 -9 -3 -4 1 -8 8 -6
26 3 40 -1 35 -10 -4 -5 0 -8 6 -7 20 3 39 17 34 25 -3 4 6 7 19 7 13 0 21 -4
18 -9 -3 -4 1 -8 8 -6 25 3 40 -1 35 -9 -3 -5 9 -8 27 -7 18 1 43 -5 57 -13
l25 -14 -24 20 c-14 11 -34 19 -46 17 -12 -1 -22 4 -22 11 0 7 4 11 9 8 20
-13 58 -14 58 -2 0 8 3 9 8 3 10 -14 65 -15 74 -1 5 7 8 7 8 -3 0 -11 3 -11
17 0 9 8 14 10 11 4 -3 -5 1 -16 9 -24 12 -11 14 -10 11 4 -2 10 3 20 11 23 9
3 11 -1 7 -16 -4 -12 -2 -23 5 -28 8 -4 9 -3 5 4 -4 7 -2 20 4 29 11 17 11 17
6 0 -3 -9 -1 -17 4 -17 5 0 7 -7 4 -15 -4 -8 -2 -15 4 -15 5 0 8 13 7 28 -2
23 2 28 21 28 12 0 21 -3 18 -7 -2 -4 10 -6 28 -4 18 2 33 4 33 5 0 1 8 3 18
5 9 2 15 -1 11 -6 -8 -13 10 -11 25 4 11 9 13 9 7 0 -4 -7 -2 -13 5 -13 6 0 9
-8 6 -20 -3 -11 -1 -18 4 -14 5 3 9 16 9 29 0 13 5 27 12 31 6 4 8 3 4 -4 -3
-6 -2 -13 3 -16 5 -4 12 -2 16 4 4 6 12 7 18 3 21 -13 47 -13 47 0 0 7 3 8 8
2 10 -14 65 -15 74 -1 6 8 8 7 8 -2 0 -8 5 -10 12 -5 19 11 58 11 51 0 -4 -6
0 -8 10 -4 9 3 19 1 23 -5 4 -7 3 -8 -4 -4 -7 4 -12 2 -12 -3 0 -16 20 -13 26
4 4 8 10 12 15 9 6 -3 18 0 27 7 9 7 14 10 10 5 -8 -10 8 -28 39 -44 21 -12
44 1 29 15 -3 4 -6 1 -6 -6 0 -9 -5 -9 -20 -1 -11 6 -18 15 -15 20 3 4 -1 10
-7 13 -7 2 1 4 19 3 17 0 29 -4 27 -7 -2 -4 20 -6 50 -5 38 2 53 -1 49 -10 -2
-7 5 -11 18 -10 12 0 25 8 27 16 4 12 3 13 -10 3 -12 -10 -15 -10 -15 0 0 7
11 13 23 13 12 0 20 -4 17 -10 -4 -5 1 -7 10 -3 9 3 19 1 23 -5 4 -7 3 -8 -4
-4 -7 4 -12 2 -12 -3 0 -16 20 -13 26 4 4 8 10 12 15 9 6 -3 18 0 27 7 9 7 14
10 10 5 -8 -10 8 -28 39 -44 21 -12 44 1 29 15 -3 4 -6 1 -6 -6 0 -9 -5 -9
-20 -1 -11 6 -18 15 -15 20 3 4 -1 10 -7 13 -7 2 1 4 19 3 17 0 29 -4 27 -7
-2 -4 20 -6 50 -5 38 2 53 -1 49 -10 -2 -7 5 -11 18 -10 12 0 25 8 27 16 4 12
3 13 -10 3 -12 -10 -15 -10 -15 0 0 7 11 13 23 13 12 0 20 -4 17 -10 -4 -5 1
-7 10 -3 9 3 19 1 23 -5 4 -7 3 -8 -4 -4 -7 4 -12 2 -12 -3 0 -16 20 -13 26 4
4 8 10 12 15 9 6 -3 18 0 27 7 9 7 14 10 10 5 -8 -10 8 -28 39 -44 21 -12 44
1 29 15 -3 4 -6 1 -6 -6 0 -9 -5 -9 -20 -1 -11 6 -18 15 -15 20 3 4 -1 10 -7
13 -7 2 1 4 19 3 17 0 29 -4 27 -7 -2 -4 20 -6 50 -5 38 2 53 -1 49 -10 -2 -7
5 -11 18 -10 12 0 25 8 27 16 4 12 3 13 -10 3 -12 -10 -15 -10 -15 0 0 7 11
13 23 13 12 0 20 -4 17 -10 -4 -5 1 -7 10 -3 9 3 19 1 23 -5 4 -7 3 -8 -4 -4
-7 4 -12 2 -12 -3 0 -16 20 -13 26 4 4 8 10 12 15 9 6 -3 18 0 27 7 9 7 14 10
10 5 -8 -10 8 -28 39 -44 21 -12 44 1 29 15 -3 4 -6 1 -6 -6 0 -9 -5 -9 -20
-1 -11 6 -18 15 -15 20 3 4 -1 10 -7 13 -7 2 1 4 19 3 17 0 29 -4 27 -7 -2 -4
20 -6 50 -5 37 2 53 -1 50 -9 -3 -7 4 -11 18 -10 13 1 34 -5 48 -13 l25 -14
-25 20 c-13 11 -28 18 -32 16 -3 -2 -9 0 -13 5 -3 6 5 8 20 5 16 -3 25 0 25 8
0 8 3 9 8 3 10 -14 65 -15 74 -1 5 7 8 7 8 -3 0 -11 3 -11 17 0 9 8 14 10 11
4 -3 -5 1 -16 9 -24 12 -11 14 -10 11 4 -2 10 3 20 11 23 9 3 11 -1 7 -16 -4
-12 -2 -23 5 -28 8 -4 9 -3 5 4 -4 7 -2 20 4 29 11 17 11 17 6 1 -3 -10 -1
-18 4 -18 5 0 7 -7 4 -15 -4 -8 -2 -15 4 -15 5 0 8 13 7 28 -2 23 2 28 21 28
12 0 21 -3 18 -7 -2 -4 10 -6 28 -4 18 2 33 4 33 5 0 1 8 3 18 5 9 2 15 -1 11
-6 -8 -13 10 -11 25 3 11 10 13 10 7 0 -4 -6 -2 -12 5 -12 6 0 9 -8 6 -20 -3
-11 -1 -18 4 -14 5 3 9 16 9 29 0 13 5 27 12 31 6 4 8 3 4 -4 -3 -6 -2 -13 3
-16 5 -4 12 -2 16 4 4 6 12 7 18 3 21 -13 47 -13 47 0 0 7 3 8 8 2 10 -14 65
-15 74 -1 5 7 8 7 8 -3 0 -11 3 -11 17 0 11 10 14 10 9 2 -4 -7 -3 -13 3 -13
5 0 13 5 16 10 8 13 25 13 25 -1 0 -5 -5 -7 -12 -3 -7 5 -8 3 -3 -6 5 -8 4
-11 -3 -6 -6 3 -14 1 -18 -5 -4 -8 -3 -9 4 -5 7 4 12 1 12 -6 0 -7 9 1 20 17
22 33 27 27 8 -8 -9 -19 -9 -20 3 -10 11 9 19 8 33 -3 11 -8 25 -14 30 -14 6
1 0 7 -13 14 -32 18 -35 42 -5 42 12 0 20 -4 17 -9 -3 -4 1 -8 8 -6 26 3 40
-1 35 -10 -4 -5 0 -8 6 -7 20 3 39 17 34 25 -3 4 6 7 19 7 13 0 21 -4 18 -9
-3 -4 1 -8 8 -6 25 3 40 -1 35 -9 -3 -5 9 -8 27 -7 18 1 43 -5 57 -13 l25 -14
-24 20 c-14 11 -34 19 -46 17 -12 -1 -22 4 -22 11 0 7 4 11 9 8 20 -13 58 -14
58 -2 0 8 3 9 8 3 10 -14 65 -15 74 -1 6 8 8 8 8 -1 0 -7 6 -10 14 -7 8 3 17
1 20 -4 3 -5 -6 -8 -19 -6 -14 1 -25 -2 -25 -6 0 -10 46 -7 57 3 3 4 13 1 21
-6 13 -9 14 -9 8 1 -4 6 -2 12 3 12 6 0 11 5 11 11 0 5 -4 7 -10 4 -5 -3 -10
1 -10 10 0 12 5 15 16 11 12 -5 15 -2 10 10 -6 15 -4 15 10 3 16 -13 16 -12 6
7 -6 12 -8 24 -5 28 3 3 0 6 -7 6 -9 0 -7 5 6 16 10 8 14 13 7 10 -6 -4 -14
-2 -18 4 -3 5 -2 10 2 10 5 0 9 9 10 20 1 11 -2 18 -6 16 -9 -6 -7 31 2 40 12
12 8 26 -5 18 -9 -5 -9 -2 1 9 11 14 11 17 0 17 -11 0 -11 2 1 9 8 6 18 7 24
4 5 -3 6 -1 2 6 -4 6 -11 9 -16 6 -5 -3 -11 -1 -15 5 -3 5 -2 10 2 10 5 0 9 9
10 20 1 11 -2 18 -6 16 -9 -6 -7 31 2 40 12 12 8 26 -5 18 -9 -5 -9 -2 1 9 11
14 11 17 0 17 -11 0 -11 2 1 9 8 6 18 7 24 4 5 -3 6 -1 2 6 -4 6 -11 9 -16 6
-5 -3 -11 -1 -15 5 -3 5 -2 10 2 10 5 0 9 9 10 20 1 11 -2 18 -6 16 -9 -6 -7
31 2 40 12 12 8 26 -5 18 -9 -5 -9 -2 1 9 11 14 11 17 0 17 -11 0 -11 2 1 9 8
6 18 7 24 4 5 -3 6 -1 2 6 -4 6 -11 9 -16 6 -5 -3 -11 -1 -15 5 -3 5 -2 10 2
10 5 0 9 9 10 20 1 11 -2 18 -6 16 -9 -6 -7 31 2 40 12 12 8 26 -6 18 -8 -5
-8 -2 2 9 11 14 11 17 0 17 -11 0 -11 2 1 9 8 6 18 7 24 4 5 -3 6 -1 2 6 -4 6
-11 9 -16 6 -5 -3 -11 -1 -15 5 -3 5 -2 10 2 10 5 0 9 9 10 20 1 11 -2 18 -6
16 -9 -6 -7 31 2 40 12 12 8 26 -5 18 -9 -5 -9 -2 1 9 11 14 11 17 0 17 -11 0
-11 2 1 9 8 6 18 7 24 4 5 -3 6 -1 2 6 -4 6 -11 9 -16 6 -5 -3 -11 -1 -15 5
-3 5 -2 10 2 10 5 0 9 9 10 20 1 11 -2 18 -6 16 -9 -6 -7 31 2 40 12 12 8 26
-5 18 -9 -5 -9 -2 1 9 11 14 11 17 0 17 -11 0 -11 2 1 9 8 6 18 7 24 4 5 -3 6
-1 2 6 -4 6 -11 9 -16 6 -5 -3 -11 -1 -15 5 -3 5 -2 10 2 10 5 0 9 9 10 20 1
11 -2 18 -6 16 -9 -6 -7 31 2 40 12 12 8 26 -5 18 -9 -5 -9 -2 1 9 11 14 11
17 0 17 -11 0 -11 2 1 9 8 6 18 7 24 4 5 -3 6 -1 2 6 -4 6 -11 9 -16 6 -5 -3
-11 -1 -15 5 -3 5 -2 10 2 10 5 0 9 9 10 20 1 11 -2 18 -6 16 -9 -6 -7 31 2
40 12 12 8 26 -5 18 -9 -5 -9 -2 1 9 11 14 11 17 0 17 -11 0 -11 2 1 9 8 6 18
7 24 4 5 -3 6 -1 2 6 -4 6 -11 9 -16 6 -5 -3 -11 -1 -15 5 -3 5 -2 10 2 10 5
0 9 9 10 20 1 11 -2 18 -6 16 -9 -6 -7 31 2 40 12 12 8 26 -5 18 -9 -5 -9 -2
1 9 11 14 11 17 0 17 -11 0 -11 2 1 9 8 6 18 7 24 4 5 -3 6 -1 2 6 -4 6 -11 9
-16 6 -5 -3 -11 -1 -15 5 -3 5 -2 10 2 10 5 0 9 9 10 20 1 11 -2 18 -6 16 -9
-6 -7 31 2 40 12 12 8 26 -5 18 -9 -5 -9 -2 1 9 11 14 11 17 0 17 -11 0 -11 2
1 9 8 6 18 7 24 4 5 -3 6 -1 2 6 -4 6 -11 9 -16 6 -5 -3 -11 -1 -15 5 -3 5 -2
10 2 10 5 0 9 9 10 20 1 11 -2 18 -6 16 -9 -6 -7 31 2 40 12 12 8 26 -6 18 -8
-5 -8 -2 2 9 11 14 11 17 0 17 -11 0 -11 2 1 9 8 6 18 7 24 4 5 -3 6 -1 2 6
-4 6 -11 9 -16 6 -5 -3 -11 -1 -15 5 -3 5 -2 10 2 10 5 0 9 9 10 20 1 11 -2
18 -6 16 -9 -6 -7 31 2 40 12 12 8 26 -5 18 -9 -5 -9 -2 1 9 11 14 11 17 0 17
-11 0 -11 2 1 9 8 6 18 7 24 4 5 -3 6 -1 2 6 -4 6 -11 9 -16 6 -5 -3 -11 -1
-15 5 -3 5 -2 10 2 10 5 0 9 9 10 20 1 11 -2 18 -6 16 -9 -6 -7 31 2 40 12 12
8 26 -6 18 -8 -5 -8 -2 2 9 11 14 11 17 0 17 -11 0 -11 2 1 9 8 6 18 7 24 4 5
-3 6 -1 2 6 -4 6 -11 9 -16 6 -5 -3 -11 -1 -15 5 -3 5 -2 10 2 10 5 0 9 9 10
20 1 11 -2 18 -6 16 -9 -6 -7 31 2 40 12 12 8 26 -5 18 -9 -5 -9 -2 1 9 11 14
11 17 0 17 -11 0 -11 2 1 9 8 6 18 7 24 4 5 -3 6 -1 2 6 -4 6 -11 9 -16 6 -5
-3 -11 -1 -15 5 -3 5 -2 10 2 10 5 0 9 9 10 20 1 11 -2 18 -6 16 -9 -6 -7 31
2 40 12 12 8 26 -5 18 -9 -5 -9 -2 1 9 11 14 11 17 0 17 -11 0 -11 2 1 9 8 6
18 7 24 4 5 -3 6 -1 2 6 -4 6 -11 9 -16 6 -5 -3 -11 -1 -15 5 -3 5 -2 10 2 10
5 0 9 9 10 20 1 11 -2 18 -6 16 -9 -6 -7 31 2 40 12 12 8 26 -5 18 -9 -5 -9
-2 1 9 11 14 11 17 0 17 -11 0 -11 2 1 9 8 6 18 7 24 4 5 -3 6 -1 2 6 -4 6
-11 9 -16 6 -5 -3 -11 -1 -15 5 -3 5 -2 10 2 10 5 0 9 9 10 20 1 11 -2 18 -6
16 -9 -6 -7 31 2 40 12 12 8 26 -5 18 -9 -5 -9 -2 1 9 11 14 11 17 0 17 -11 0
-11 2 1 9 8 6 18 7 24 4 5 -3 6 -1 2 6 -4 6 -11 9 -16 6 -5 -3 -11 -1 -15 5
-3 5 -2 10 2 10 5 0 9 9 10 20 1 11 -2 18 -6 16 -9 -6 -7 31 2 40 12 12 8 26
-5 18 -9 -5 -9 -2 1 9 11 14 11 17 0 17 -11 0 -11 2 1 9 8 6 18 7 24 4 5 -3 6
-1 2 6 -4 6 -11 9 -16 6 -5 -3 -11 -1 -15 5 -3 5 -2 10 2 10 5 0 9 9 10 20 1
11 -1 19 -5 16 -4 -2 -7 11 -7 30 0 19 5 34 10 34 6 0 3 5 -5 10 -12 8 -12 10
-1 10 11 0 11 3 1 15 -7 8 -10 21 -7 28 16 41 103 40 -2473 41 -2179 1 -2463
-1 -2469 -14z m434 -210 c-8 -13 37 -31 49 -20 11 11 57 -10 49 -23 -3 -6 -1
-7 6 -3 18 12 63 18 57 8 -3 -5 7 -8 21 -7 15 0 28 7 31 15 3 12 2 13 -6 1 -6
-8 -12 -9 -16 -3 -3 6 -17 9 -31 8 -13 -2 -22 1 -19 5 3 5 19 7 35 4 23 -4 29
-2 23 7 -6 10 -5 11 8 1 8 -7 18 -11 21 -8 4 3 5 2 2 -2 -7 -9 38 -31 50 -24
16 9 29 8 37 -4 5 -6 8 -6 8 3 0 6 5 12 11 12 5 0 7 -6 3 -12 -5 -9 -2 -9 9 1
13 11 17 11 17 1 0 -8 3 -11 6 -8 3 4 0 17 -7 30 -11 20 -10 21 3 11 8 -7 19
-9 23 -5 5 4 5 1 1 -5 -9 -16 -4 -16 29 -1 20 9 28 9 38 -1 10 -11 8 -12 -10
-7 -27 9 -36 -6 -19 -29 10 -14 15 -15 21 -5 5 8 4 11 -2 7 -6 -4 -13 0 -17 8
-6 18 -2 19 26 4 15 -8 19 -8 14 0 -4 6 -3 11 3 11 5 0 12 -8 14 -17 4 -15 5
-15 6 -2 0 9 -6 22 -14 29 -17 14 -20 30 -4 30 5 0 7 -5 4 -10 -8 -13 37 -31
49 -20 9 9 58 -9 51 -19 -2 -4 4 -7 14 -7 10 0 18 6 18 12 0 7 -6 10 -13 7 -6
-2 -14 0 -17 4 -3 5 17 8 44 7 32 -2 47 1 43 8 -4 5 4 5 16 -2 18 -9 20 -14 9
-21 -7 -4 -10 -11 -6 -16 5 -4 12 -1 18 7 8 13 10 13 19 0 5 -8 10 -10 10 -4
0 6 -7 17 -15 24 -17 14 -20 30 -5 30 6 0 9 -5 8 -12 -2 -6 5 -14 16 -16 13
-3 16 0 11 9 -6 8 -4 10 6 3 18 -11 39 -16 64 -15 11 0 37 1 57 2 22 1 35 5
32 11 -4 6 3 5 15 -1 25 -14 27 -23 5 -19 -10 2 -18 -3 -20 -10 -1 -7 0 -8 3
-2 3 6 11 6 25 -1 15 -8 19 -8 14 0 -4 6 -3 11 3 11 5 0 12 -8 14 -17 4 -15 5
-15 6 -2 0 9 -6 22 -14 29 -17 14 -20 30 -5 30 5 0 9 -5 7 -11 -3 -14 40 -31
48 -19 3 5 16 5 30 -2 13 -6 22 -15 18 -21 -3 -6 -1 -7 6 -3 18 12 63 18 57 8
-3 -5 7 -8 21 -7 15 0 28 7 31 15 3 12 2 13 -6 1 -6 -8 -12 -9 -16 -3 -3 6
-17 9 -31 8 -13 -2 -22 1 -19 5 3 5 19 7 35 4 23 -4 29 -2 23 7 -6 10 -5 11 8
1 8 -7 18 -11 21 -8 4 3 5 2 2 -2 -10 -13 39 -30 54 -19 17 13 21 12 32 -6 7
-10 9 -10 9 0 0 6 5 12 11 12 5 0 7 -6 3 -12 -5 -9 -2 -9 9 1 13 11 17 11 17
1 0 -8 3 -11 6 -8 3 4 0 17 -7 30 -11 20 -10 21 3 11 8 -7 19 -9 23 -5 5 4 5
1 1 -5 -9 -16 -4 -16 29 -1 20 9 28 9 38 -1 10 -11 8 -12 -10 -7 -27 9 -36 -6
-19 -29 10 -14 15 -15 21 -5 5 8 4 11 -2 7 -6 -4 -13 0 -17 8 -6 18 -2 19 26
4 15 -8 19 -8 14 0 -4 6 -3 11 3 11 5 0 12 -8 14 -17 4 -15 5 -15 6 -2 0 9 -6
22 -14 29 -17 14 -20 30 -4 30 5 0 7 -5 4 -10 -8 -13 37 -31 49 -20 9 9 58 -9
51 -19 -2 -4 4 -7 14 -7 10 0 18 6 18 12 0 7 -6 10 -13 7 -6 -2 -14 0 -17 4
-3 5 17 8 44 7 32 -2 47 1 43 8 -4 5 4 5 16 -2 18 -9 20 -14 9 -21 -7 -4 -10
-11 -6 -16 5 -4 12 -1 18 7 8 13 10 13 19 0 5 -8 10 -10 10 -4 0 6 -7 17 -15
24 -17 14 -20 30 -5 30 6 0 9 -5 8 -12 -2 -6 5 -14 16 -16 13 -3 16 0 11 9 -6
8 -4 10 6 3 18 -11 39 -16 64 -15 11 0 37 1 57 2 22 1 35 5 32 11 -4 6 3 5 15
-1 25 -14 27 -23 5 -19 -10 2 -18 -3 -20 -10 -1 -7 0 -8 3 -2 3 6 11 6 25 -1
15 -8 19 -8 14 0 -4 6 -3 11 3 11 5 0 12 -8 14 -17 4 -15 5 -15 6 -2 0 9 -6
22 -14 29 -17 14 -20 30 -4 30 5 0 7 -5 4 -10 -8 -13 37 -31 49 -20 9 9 58 -9
51 -19 -2 -4 4 -7 14 -7 10 0 18 6 18 12 0 7 -6 10 -13 7 -6 -2 -14 0 -17 4
-3 5 17 8 44 7 32 -2 47 1 43 8 -4 5 4 5 16 -2 18 -9 20 -14 9 -21 -7 -4 -10
-11 -6 -16 5 -4 12 -1 18 7 8 13 10 13 19 0 5 -8 10 -10 10 -4 0 6 -7 17 -15
24 -17 14 -20 30 -5 30 6 0 9 -5 8 -12 -2 -6 5 -14 16 -16 13 -3 16 0 11 9 -6
8 -4 10 6 3 18 -11 39 -16 64 -15 11 0 55 1 97 2 47 1 75 6 72 11 -4 6 4 5 16
-2 18 -9 20 -14 9 -21 -7 -4 -10 -11 -6 -16 5 -4 12 -1 18 7 8 13 10 13 19 0
5 -8 10 -10 10 -4 0 6 -7 17 -15 24 -17 14 -20 30 -5 30 6 0 9 -5 8 -12 -2 -6
5 -14 16 -16 13 -3 16 0 11 9 -6 8 -4 10 6 3 18 -11 39 -16 64 -15 11 0 55 1
97 2 47 1 75 6 72 11 -4 6 4 5 16 -2 18 -9 20 -14 9 -21 -7 -4 -10 -11 -6 -16
5 -4 12 -1 18 7 8 13 10 13 19 0 5 -8 10 -10 10 -4 0 6 -7 17 -15 24 -17 14
-20 30 -5 30 6 0 9 -5 8 -12 -2 -6 5 -14 16 -16 13 -3 16 0 11 9 -6 8 -4 10 6
3 18 -11 39 -16 64 -15 11 0 55 1 97 2 47 1 75 6 72 11 -4 6 4 5 16 -2 18 -9
20 -14 9 -21 -7 -4 -10 -11 -6 -16 5 -4 12 -1 18 7 8 13 10 13 19 0 5 -8 10
-10 10 -4 0 6 -7 17 -15 24 -17 14 -20 30 -5 30 6 0 9 -5 8 -12 -2 -6 5 -14
16 -16 13 -3 16 0 11 9 -6 8 -4 10 6 3 18 -11 39 -16 64 -15 11 0 37 1 57 2
22 1 35 5 32 11 -4 6 3 5 15 -1 25 -14 27 -23 5 -19 -10 2 -18 -3 -20 -10 -1
-7 0 -8 3 -2 3 6 11 6 25 -1 15 -8 19 -8 14 0 -4 6 -3 11 3 11 5 0 12 -8 14
-17 4 -15 5 -15 6 -2 0 9 -6 22 -14 29 -17 14 -20 30 -5 30 5 0 9 -5 7 -11 -3
-14 40 -31 48 -19 3 5 16 5 30 -2 13 -6 23 -14 20 -17 -2 -4 4 -7 14 -7 10 0
18 6 18 12 0 7 -6 10 -13 7 -6 -2 -14 0 -17 4 -3 5 17 8 44 7 32 -2 47 1 43 8
-4 5 4 5 16 -2 18 -9 20 -14 9 -21 -7 -4 -10 -11 -6 -16 5 -4 12 -1 18 7 8 13
10 13 19 0 5 -8 10 -10 10 -4 0 6 -7 17 -15 24 -17 14 -20 30 -5 30 5 0 9 -5
7 -12 -1 -6 6 -14 17 -16 13 -3 16 0 11 9 -6 8 -4 10 6 3 18 -11 39 -16 64
-15 11 0 37 1 57 2 22 1 35 5 32 11 -4 6 3 5 15 -1 25 -14 27 -23 5 -19 -10 2
-18 -3 -20 -10 -1 -7 0 -8 3 -2 3 6 11 6 25 -1 15 -8 19 -8 14 0 -4 6 -3 11 3
11 5 0 12 -8 14 -17 4 -15 5 -15 6 -2 0 9 -6 22 -14 29 -17 14 -20 30 -5 30 5
0 9 -5 7 -11 -3 -14 40 -31 48 -19 3 5 16 5 30 -2 13 -6 22 -15 18 -20 -3 -6
2 -6 13 0 28 15 36 15 45 0 7 -10 9 -10 9 0 0 6 5 12 11 12 5 0 7 -6 3 -12 -5
-9 -2 -9 9 1 13 11 17 11 17 1 0 -8 3 -11 6 -8 3 4 0 17 -7 30 -11 20 -10 21
3 11 8 -7 19 -9 23 -5 5 4 5 1 1 -5 -9 -16 -1 -16 27 -1 19 10 20 9 10 -3 -8
-10 -9 -19 -1 -29 8 -12 9 -12 4 3 -3 9 -1 17 4 17 6 0 10 -4 10 -10 0 -5 5
-10 12 -10 9 0 9 3 0 12 -16 16 -15 25 3 25 8 0 12 -4 10 -8 -3 -4 2 -10 11
-13 8 -3 13 -2 10 2 -3 5 9 16 27 26 18 10 24 11 14 3 -15 -13 -15 -16 -2 -27
12 -10 15 -9 16 6 0 11 3 14 6 7 2 -7 9 -13 14 -13 6 0 8 4 4 9 -9 15 15 24
30 11 8 -7 14 -15 13 -18 0 -4 0 -9 2 -12 9 -24 8 -55 -2 -68 -8 -10 -9 -13
-2 -9 7 4 15 0 18 -9 3 -8 2 -13 -2 -10 -9 6 -6 -99 4 -115 4 -8 3 -9 -4 -5
-9 5 -10 -3 -6 -31 3 -21 8 -42 12 -47 3 -5 1 -7 -4 -3 -11 6 -9 -97 2 -114 4
-7 3 -10 -2 -6 -11 6 -9 -97 2 -114 4 -8 3 -9 -4 -5 -9 5 -10 -3 -6 -31 3 -21
8 -42 12 -47 3 -5 1 -7 -4 -3 -11 6 -9 -97 2 -114 4 -7 3 -10 -2 -6 -11 6 -9
-97 2 -114 4 -8 3 -9 -4 -5 -9 5 -10 -3 -6 -31 3 -21 8 -42 12 -47 3 -5 1 -7
-4 -3 -11 6 -9 -97 2 -114 4 -7 3 -10 -2 -6 -11 6 -9 -97 2 -114 4 -8 3 -9 -4
-5 -13 8 -12 -20 1 -41 5 -7 4 -13 -2 -13 -5 0 -13 5 -16 10 -3 6 -11 10 -16
10 -6 0 3 -12 18 -26 15 -14 22 -23 15 -19 -9 5 -11 0 -7 -17 4 -17 0 -29 -14
-42 -21 -19 -20 -36 2 -36 8 0 8 3 -2 9 -9 6 -10 11 -2 15 6 4 13 0 16 -8 3
-9 7 -23 10 -32 3 -8 1 -13 -4 -10 -10 7 -6 -98 5 -115 5 -8 3 -9 -6 -4 -10 6
-12 4 -7 -7 3 -9 0 -21 -6 -27 -9 -9 -7 -11 8 -6 18 5 18 5 3 -6 -15 -12 -15
-14 0 -27 9 -7 12 -11 7 -9 -12 6 -11 -95 1 -114 4 -7 3 -10 -2 -6 -11 6 -9
-97 2 -114 4 -8 3 -9 -4 -5 -9 5 -10 -3 -6 -31 3 -21 8 -42 12 -47 3 -5 1 -7
-4 -3 -11 6 -9 -97 2 -114 4 -7 3 -10 -2 -6 -11 6 -9 -97 2 -114 4 -8 3 -9 -4
-5 -9 5 -10 -3 -6 -31 3 -21 8 -42 12 -47 3 -5 1 -7 -4 -3 -11 6 -9 -97 2
-114 4 -7 3 -10 -2 -6 -11 6 -9 -97 2 -114 4 -8 3 -9 -4 -5 -9 5 -10 -3 -6
-31 3 -21 8 -42 12 -47 3 -5 1 -7 -4 -3 -11 6 -9 -97 2 -114 4 -8 3 -9 -5 -5
-9 6 -10 0 -5 -20 5 -18 3 -25 -4 -20 -6 3 -13 0 -15 -6 -4 -10 -8 -9 -16 2
-6 8 -11 10 -11 5 0 -14 -4408 -14 -4429 -1 -9 6 -12 5 -7 -2 9 -15 -28 -11
-43 5 -6 7 -10 13 -7 13 2 0 1 14 -4 31 -7 23 -6 31 6 36 12 4 12 8 -3 20 -10
8 -12 12 -6 8 9 -4 11 5 7 35 -4 27 -1 46 8 57 7 9 8 14 2 10 -7 -4 -15 0 -18
9 -3 8 -2 12 4 9 6 -4 7 10 4 35 -4 27 -1 46 8 57 7 9 8 14 2 10 -7 -4 -15 0
-18 9 -3 8 -2 12 4 9 6 -4 7 10 4 35 -4 27 -1 46 8 57 7 9 8 14 2 10 -7 -4
-15 0 -18 9 -3 8 -2 12 4 9 6 -4 7 10 4 36 -4 25 -2 39 3 36 5 -4 10 1 10 9 0
9 -6 13 -14 10 -9 -4 -11 -2 -6 7 4 6 6 23 5 37 -2 20 -1 22 7 10 8 -12 10
-10 8 8 -1 14 -6 21 -15 17 -8 -3 -10 0 -5 8 4 6 6 23 5 37 -2 20 -1 22 7 10
8 -12 10 -10 8 8 -1 14 -6 21 -15 17 -8 -3 -10 0 -5 8 4 6 6 23 5 37 -2 20 -1
22 7 10 8 -12 10 -10 8 8 -1 14 -6 21 -15 17 -8 -3 -10 0 -6 7 4 7 7 32 5 56
-1 25 3 50 11 59 7 9 8 14 2 10 -7 -4 -15 0 -18 9 -3 8 -2 12 4 9 6 -4 7 10 4
35 -4 27 -1 46 8 57 7 9 8 14 2 10 -7 -4 -15 0 -18 9 -3 8 -2 12 4 9 6 -4 7
10 4 35 -4 27 -1 46 8 57 7 9 8 14 2 10 -7 -4 -15 0 -18 9 -3 8 -2 12 4 9 6
-4 7 10 4 35 -4 27 -1 46 8 57 7 9 8 14 2 10 -7 -4 -15 0 -18 9 -3 8 -2 12 4
9 6 -4 7 10 4 35 -4 27 -1 46 8 57 7 9 8 14 2 10 -7 -4 -15 0 -18 9 -3 8 -2
12 4 9 6 -4 7 10 4 36 -4 25 -2 39 3 36 5 -4 10 1 10 9 0 9 -6 13 -14 10 -9
-4 -11 -2 -6 7 4 6 6 23 5 37 -2 20 -1 22 7 10 8 -12 10 -10 8 8 -1 14 -6 21
-15 17 -8 -3 -10 0 -5 8 4 6 6 23 5 37 -2 20 -1 22 7 10 8 -12 10 -10 8 8 -1
14 -6 21 -15 17 -8 -3 -10 0 -5 8 4 6 6 23 5 37 -2 20 -1 22 7 10 8 -12 10
-10 8 8 -1 14 -6 21 -15 17 -8 -3 -10 0 -6 6 9 15 8 124 -2 140 -4 8 -3 10 4
5 8 -5 10 5 6 34 -4 27 -1 46 8 57 7 9 8 14 2 10 -7 -4 -15 0 -18 9 -3 8 -2
12 4 9 6 -4 7 10 4 35 -4 27 -1 46 8 57 7 9 8 14 2 10 -7 -4 -15 0 -18 9 -3 8
-2 12 4 9 6 -4 7 10 4 35 -4 27 -1 46 8 57 7 9 8 14 2 10 -7 -4 -15 0 -18 9
-3 8 -2 12 4 9 6 -4 7 10 4 35 -4 27 -1 46 8 57 7 9 8 14 2 10 -7 -4 -15 0
-18 9 -3 8 -2 12 4 9 6 -4 7 10 4 36 -4 25 -2 39 3 36 5 -4 10 1 10 9 0 9 -6
13 -14 10 -9 -4 -11 -2 -6 7 4 6 6 23 5 37 -2 20 -1 22 7 10 8 -12 10 -10 8 8
-1 14 -6 21 -15 17 -8 -3 -10 0 -5 8 4 6 6 20 4 31 -2 13 1 16 11 10 10 -6 11
-5 1 7 -14 17 -14 58 0 77 6 8 5 12 -3 12 -8 0 -11 2 -8 5 3 3 13 3 22 -1 15
-6 15 -8 -1 -21 -15 -12 -13 -12 8 0 20 12 29 13 40 4 11 -10 11 -9 0 6 -14
18 -12 21 13 11 9 -3 14 -9 12 -13 -3 -4 3 -7 13 -7 10 0 18 6 18 12 0 7 -6
10 -12 8 -7 -3 -18 3 -26 13 -12 16 -12 17 1 7 19 -14 102 -15 94 -2 -4 6 3 5
15 -1 25 -14 27 -23 5 -19 -10 2 -18 -3 -20 -10 -1 -7 0 -8 3 -2 3 6 11 6 25
-1 15 -8 19 -8 14 0 -4 6 -3 11 3 11 5 0 12 -8 14 -17 4 -15 5 -15 6 -2 0 9
-6 22 -14 29 -17 14 -20 30 -4 30 5 0 7 -5 4 -10z m140 0 c-3 -5 -12 -10 -18
-10 -7 0 -6 4 3 10 19 12 23 12 15 0z m144 -3 c17 10 20 10 10 2 -9 -8 -17
-17 -17 -21 -4 -16 -15 -12 -26 7 -6 11 -7 15 -2 8 7 -8 16 -7 35 4z m541 3
c0 -5 -5 -10 -11 -10 -5 0 -7 5 -4 10 3 6 8 10 11 10 2 0 4 -4 4 -10z m275 0
c-3 -5 -12 -10 -18 -10 -7 0 -6 4 3 10 19 12 23 12 15 0z m144 -3 c17 10 20
10 10 2 -9 -8 -17 -17 -17 -21 -4 -16 -15 -12 -26 7 -6 11 -7 15 -2 8 7 -8 16
-7 35 4z m541 3 c0 -5 -5 -10 -11 -10 -5 0 -7 5 -4 10 3 6 8 10 11 10 2 0 4
-4 4 -10z m480 0 c0 -5 -5 -10 -11 -10 -5 0 -7 5 -4 10 3 6 8 10 11 10 2 0 4
-4 4 -10z m320 0 c0 -5 -5 -10 -11 -10 -5 0 -7 5 -4 10 3 6 8 10 11 10 2 0 4
-4 4 -10z m320 0 c0 -5 -5 -10 -11 -10 -5 0 -7 5 -4 10 3 6 8 10 11 10 2 0 4
-4 4 -10z m320 0 c0 -5 -5 -10 -11 -10 -5 0 -7 5 -4 10 3 6 8 10 11 10 2 0 4
-4 4 -10z m480 0 c0 -5 -5 -10 -11 -10 -5 0 -7 5 -4 10 3 6 8 10 11 10 2 0 4
-4 4 -10z m275 0 c-3 -5 -12 -10 -18 -10 -7 0 -6 4 3 10 19 12 23 12 15 0z
m-4145 -4 c0 -2 -7 -7 -16 -10 -8 -3 -12 -2 -9 4 6 10 25 14 25 6z m285 -24
c-3 -3 -11 0 -18 7 -9 10 -8 11 6 5 10 -3 15 -9 12 -12z m205 10 c0 -5 -7 -9
-15 -9 -8 0 -12 4 -9 9 3 4 9 8 15 8 5 0 9 -4 9 -8z m755 -10 c-3 -3 -11 0
-18 7 -9 10 -8 11 6 5 10 -3 15 -9 12 -12z m205 10 c0 -5 -7 -9 -15 -9 -8 0
-12 4 -9 9 3 4 9 8 15 8 5 0 9 -4 9 -8z m2675 -10 c-3 -3 -11 0 -18 7 -9 10
-8 11 6 5 10 -3 15 -9 12 -12z m45 10 c0 -5 -7 -9 -15 -9 -8 0 -12 4 -9 9 3 4
9 8 15 8 5 0 9 -4 9 -8z m-4397 -2947 c-3 -9 -8 -14 -10 -11 -3 3 -2 9 2 15 9
16 15 13 8 -4z m4844 -1 c-3 -3 -12 -4 -19 -1 -8 3 -5 6 6 6 11 1 17 -2 13 -5z
m-4150 -26 c-3 -8 -6 -5 -6 6 -1 11 2 17 5 13 3 -3 4 -12 1 -19z m960 0 c-3
-8 -6 -5 -6 6 -1 11 2 17 5 13 3 -3 4 -12 1 -19z m2880 0 c-3 -8 -6 -5 -6 6
-1 11 2 17 5 13 3 -3 4 -12 1 -19z m337 14 c3 -5 -1 -9 -9 -9 -8 0 -12 4 -9 9
3 4 7 8 9 8 2 0 6 -4 9 -8z"/>
<path d="M4782 4105 c4 -5 2 -15 -5 -23 -10 -13 -9 -15 5 -9 10 3 20 2 23 -3
4 -6 1 -10 -6 -10 -7 0 -10 -3 -6 -6 3 -3 11 -3 17 1 8 5 7 11 -2 22 -7 9 -12
19 -10 22 2 3 -2 7 -10 10 -7 2 -10 0 -6 -4z"/>
<path d="M443 4093 c-17 -6 -17 -20 0 -20 8 0 14 6 14 14 0 7 -1 13 -1 12 -1
0 -7 -3 -13 -6z"/>
<path d="M574 4089 c-3 -6 -1 -16 5 -22 9 -9 10 -7 5 7 -6 15 -4 17 6 11 9 -5
11 -4 6 3 -9 15 -13 15 -22 1z"/>
<path d="M1054 4089 c-3 -6 -1 -16 5 -22 9 -9 10 -7 5 7 -6 15 -4 17 6 11 9
-5 11 -4 6 3 -9 15 -13 15 -22 1z"/>
<path d="M1163 4093 c-17 -6 -17 -20 0 -20 8 0 14 6 14 14 0 7 -1 13 -1 12 -1
0 -7 -3 -13 -6z"/>
<path d="M1195 4089 c-4 -6 -5 -12 -2 -15 2 -3 7 2 10 11 7 17 1 20 -8 4z"/>
<path d="M1274 4089 c-3 -5 -2 -9 3 -8 4 1 10 0 13 -1 3 -1 13 -3 24 -5 14 -3
16 -1 7 8 -14 14 -39 18 -47 6z"/>
<path d="M1356 4087 c-16 -12 -16 -13 2 -13 10 0 19 6 19 13 0 7 -1 13 -2 13
-1 0 -9 -6 -19 -13z"/>
<path d="M1403 4093 c-17 -6 -17 -20 0 -20 8 0 14 6 14 14 0 7 -1 13 -1 12 -1
0 -7 -3 -13 -6z"/>
<path d="M1534 4089 c-3 -6 -1 -16 5 -22 9 -9 10 -7 5 7 -6 15 -4 17 6 11 9
-5 11 -4 6 3 -9 15 -13 15 -22 1z"/>
<path d="M2014 4089 c-3 -6 -1 -16 5 -22 9 -9 10 -7 5 7 -6 15 -4 17 6 11 9
-5 11 -4 6 3 -9 15 -13 15 -22 1z"/>
<path d="M2123 4093 c-17 -6 -17 -20 0 -20 8 0 14 6 14 14 0 7 -1 13 -1 12 -1
0 -7 -3 -13 -6z"/>
<path d="M2155 4089 c-4 -6 -5 -12 -2 -15 2 -3 7 2 10 11 7 17 1 20 -8 4z"/>
<path d="M2234 4089 c-3 -5 -2 -9 3 -8 4 1 10 0 13 -1 3 -1 13 -3 24 -5 14 -3
16 -1 7 8 -14 14 -39 18 -47 6z"/>
<path d="M2316 4087 c-16 -12 -16 -13 2 -13 10 0 19 6 19 13 0 7 -1 13 -2 13
-1 0 -9 -6 -19 -13z"/>
<path d="M2363 4093 c-17 -6 -17 -20 0 -20 8 0 14 6 14 14 0 7 -1 13 -1 12 -1
0 -7 -3 -13 -6z"/>
<path d="M2494 4089 c-3 -6 -1 -16 5 -22 9 -9 10 -7 5 7 -6 15 -4 17 6 11 9
-5 11 -4 6 3 -9 15 -13 15 -22 1z"/>
<path d="M2603 4093 c-17 -6 -17 -20 0 -20 8 0 14 6 14 14 0 7 -1 13 -1 12 -1
0 -7 -3 -13 -6z"/>
<path d="M2635 4089 c-4 -6 -5 -12 -2 -15 2 -3 7 2 10 11 7 17 1 20 -8 4z"/>
<path d="M2714 4089 c-3 -5 -2 -9 3 -8 4 1 10 0 13 -1 3 -1 13 -3 24 -5 14 -3
16 -1 7 8 -14 14 -39 18 -47 6z"/>
<path d="M2796 4087 c-16 -12 -16 -13 2 -13 10 0 19 6 19 13 0 7 -1 13 -2 13
-1 0 -9 -6 -19 -13z"/>
<path d="M2843 4093 c-17 -6 -17 -20 0 -20 8 0 14 6 14 14 0 7 -1 13 -1 12 -1
0 -7 -3 -13 -6z"/>
<path d="M2883 4093 c-17 -6 -17 -20 0 -20 8 0 14 6 14 14 0 7 -1 13 -1 12 -1
0 -7 -3 -13 -6z"/>
<path d="M2923 4093 c-17 -6 -17 -20 0 -20 8 0 14 6 14 14 0 7 -1 13 -1 12 -1
0 -7 -3 -13 -6z"/>
<path d="M2955 4089 c-4 -6 -5 -12 -2 -15 2 -3 7 2 10 11 7 17 1 20 -8 4z"/>
<path d="M3034 4089 c-3 -5 -2 -9 3 -8 4 1 10 0 13 -1 3 -1 13 -3 24 -5 14 -3
16 -1 7 8 -14 14 -39 18 -47 6z"/>
<path d="M3116 4087 c-16 -12 -16 -13 2 -13 10 0 19 6 19 13 0 7 -1 13 -2 13
-1 0 -9 -6 -19 -13z"/>
<path d="M3163 4093 c-17 -6 -17 -20 0 -20 8 0 14 6 14 14 0 7 -1 13 -1 12 -1
0 -7 -3 -13 -6z"/>
<path d="M3203 4093 c-17 -6 -17 -20 0 -20 8 0 14 6 14 14 0 7 -1 13 -1 12 -1
0 -7 -3 -13 -6z"/>
<path d="M3243 4093 c-17 -6 -17 -20 0 -20 8 0 14 6 14 14 0 7 -1 13 -1 12 -1
0 -7 -3 -13 -6z"/>
<path d="M3275 4089 c-4 -6 -5 -12 -2 -15 2 -3 7 2 10 11 7 17 1 20 -8 4z"/>
<path d="M3354 4089 c-3 -5 -2 -9 3 -8 4 1 10 0 13 -1 3 -1 13 -3 24 -5 14 -3
16 -1 7 8 -14 14 -39 18 -47 6z"/>
<path d="M3436 4087 c-16 -12 -16 -13 2 -13 10 0 19 6 19 13 0 7 -1 13 -2 13
-1 0 -9 -6 -19 -13z"/>
<path d="M3483 4093 c-17 -6 -17 -20 0 -20 8 0 14 6 14 14 0 7 -1 13 -1 12 -1
0 -7 -3 -13 -6z"/>
<path d="M3523 4093 c-17 -6 -17 -20 0 -20 8 0 14 6 14 14 0 7 -1 13 -1 12 -1
0 -7 -3 -13 -6z"/>
<path d="M3563 4093 c-17 -6 -17 -20 0 -20 8 0 14 6 14 14 0 7 -1 13 -1 12 -1
0 -7 -3 -13 -6z"/>
<path d="M3595 4089 c-4 -6 -5 -12 -2 -15 2 -3 7 2 10 11 7 17 1 20 -8 4z"/>
<path d="M3674 4089 c-3 -5 -2 -9 3 -8 4 1 10 0 13 -1 3 -1 13 -3 24 -5 14 -3
16 -1 7 8 -14 14 -39 18 -47 6z"/>
<path d="M3756 4087 c-16 -12 -16 -13 2 -13 10 0 19 6 19 13 0 7 -1 13 -2 13
-1 0 -9 -6 -19 -13z"/>
<path d="M3803 4093 c-17 -6 -17 -20 0 -20 8 0 14 6 14 14 0 7 -1 13 -1 12 -1
0 -7 -3 -13 -6z"/>
<path d="M3934 4089 c-3 -6 -1 -16 5 -22 9 -9 10 -7 5 7 -6 15 -4 17 6 11 9
-5 11 -4 6 3 -9 15 -13 15 -22 1z"/>
<path d="M4043 4093 c-17 -6 -17 -20 0 -20 8 0 14 6 14 14 0 7 -1 13 -1 12 -1
0 -7 -3 -13 -6z"/>
<path d="M4075 4089 c-4 -6 -5 -12 -2 -15 2 -3 7 2 10 11 7 17 1 20 -8 4z"/>
<path d="M4154 4089 c-3 -5 -2 -9 3 -8 4 1 10 0 13 -1 3 -1 13 -3 24 -5 14 -3
16 -1 7 8 -14 14 -39 18 -47 6z"/>
<path d="M4236 4087 c-16 -12 -16 -13 2 -13 10 0 19 6 19 13 0 7 -1 13 -2 13
-1 0 -9 -6 -19 -13z"/>
<path d="M4283 4093 c-17 -6 -17 -20 0 -20 8 0 14 6 14 14 0 7 -1 13 -1 12 -1
0 -7 -3 -13 -6z"/>
<path d="M4414 4089 c-3 -6 -1 -16 5 -22 9 -9 10 -7 5 7 -6 15 -4 17 6 11 9
-5 11 -4 6 3 -9 15 -13 15 -22 1z"/>
<path d="M4713 4085 c0 -8 4 -15 9 -15 4 0 8 4 8 9 0 6 -4 12 -8 15 -5 3 -9
-1 -9 -9z"/>
<path d="M335 4061 c-3 -5 -2 -12 3 -15 5 -3 9 1 9 9 0 17 -3 19 -12 6z"/>
<path d="M4679 4053 c-13 -16 -12 -17 4 -4 16 13 21 21 13 21 -2 0 -10 -8 -17
-17z"/>
<path d="M310 4040 c0 -5 5 -10 11 -10 5 0 7 5 4 10 -3 6 -8 10 -11 10 -2 0
-4 -4 -4 -10z"/>
<path d="M4790 3966 c0 -2 7 -7 16 -10 8 -3 12 -2 9 4 -6 10 -25 14 -25 6z"/>
<path d="M4795 3851 c-3 -5 -2 -12 3 -15 5 -3 9 1 9 9 0 17 -3 19 -12 6z"/>
<path d="M4795 3810 c-3 -6 1 -7 9 -4 18 7 21 14 7 14 -6 0 -13 -4 -16 -10z"/>
<path d="M4795 3490 c-3 -6 1 -7 9 -4 18 7 21 14 7 14 -6 0 -13 -4 -16 -10z"/>
<path d="M4795 3451 c-6 -11 13 -26 22 -17 4 3 1 6 -6 6 -7 0 -9 5 -6 10 3 6
4 10 1 10 -3 0 -7 -4 -11 -9z"/>
<path d="M313 3435 c0 -8 4 -12 9 -9 5 3 6 10 3 15 -9 13 -12 11 -12 -6z"/>
<path d="M4795 3331 c-6 -11 13 -26 22 -17 4 3 1 6 -6 6 -7 0 -9 5 -6 10 3 6
4 10 1 10 -3 0 -7 -4 -11 -9z"/>
<path d="M313 3315 c0 -8 4 -12 9 -9 5 3 6 10 3 15 -9 13 -12 11 -12 -6z"/>
<path d="M740 3318 c-25 -4 -52 -10 -60 -14 -8 -3 -15 -4 -15 -3 0 1 -11 -4
-25 -11 -14 -8 -27 -14 -30 -15 -16 -1 -101 -71 -106 -87 -5 -16 -8 -17 -22
-6 -12 10 -14 10 -8 0 8 -14 -2 -55 -12 -48 -4 2 -8 -8 -9 -22 -4 -37 -8 -55
-14 -67 -5 -9 -4 -51 0 -57 1 -2 4 -18 7 -36 2 -21 0 -31 -6 -27 -6 3 -10 1
-10 -4 0 -6 10 -11 23 -11 17 0 19 -2 7 -9 -8 -6 -18 -7 -22 -5 -4 3 -5 -2 -2
-10 3 -9 10 -16 16 -16 5 0 6 5 3 10 -3 6 -3 10 2 10 4 0 16 -16 25 -34 14
-30 15 -36 2 -54 -11 -15 -11 -23 -3 -28 7 -4 9 -3 5 4 -3 6 -2 13 4 17 6 3
13 -1 16 -10 4 -10 10 -12 18 -6 13 11 40 -6 44 -29 1 -8 -7 -4 -18 10 -13 17
-20 20 -20 10 0 -8 9 -21 20 -27 16 -11 21 -10 30 5 9 14 9 13 5 -8 -3 -19 3
-31 27 -50 18 -14 29 -19 25 -12 -5 7 -3 12 5 12 10 0 9 3 -2 9 -8 6 -18 7
-22 5 -4 -3 -5 3 -1 12 4 11 8 13 11 6 2 -7 8 -10 13 -6 9 5 13 -9 10 -33 -1
-7 3 -13 9 -13 6 0 8 -6 4 -12 -5 -9 -2 -9 9 1 13 10 17 10 17 1 0 -9 4 -9 16
1 15 12 16 11 10 -11 -5 -18 -5 -21 3 -11 8 12 12 12 25 2 9 -7 14 -17 11 -21
-2 -4 5 -7 17 -6 12 0 23 7 24 14 1 7 0 8 -3 2 -2 -5 -9 -10 -14 -10 -6 0 -7
5 -3 12 5 7 2 8 -7 3 -8 -5 -11 -4 -6 1 5 5 14 9 20 9 7 1 11 7 9 15 -2 8 0
12 4 7 4 -4 9 -17 11 -30 2 -12 8 -26 14 -32 8 -7 9 -4 5 12 -4 12 -2 24 3 28
7 4 8 -1 4 -11 -4 -12 -3 -15 5 -10 15 9 15 1 2 -24 -7 -13 -7 -21 2 -26 6 -4
9 -3 5 2 -3 5 1 20 10 34 8 14 12 18 10 10 -2 -8 5 -24 16 -35 20 -20 20 -20
8 3 -6 12 -8 22 -2 22 5 0 12 -7 15 -17 6 -14 8 -14 21 3 15 19 15 18 8 -1 -3
-11 -11 -23 -16 -26 -5 -4 -5 -9 2 -13 6 -4 11 -2 11 5 0 7 6 4 14 -6 8 -11
12 -23 10 -26 -2 -4 3 -10 12 -13 12 -5 11 2 -6 30 -12 19 -20 38 -16 41 3 4
6 1 6 -6 0 -7 4 -10 9 -6 5 3 12 1 16 -5 4 -6 12 -7 18 -4 9 5 9 4 0 -6 -6 -7
-9 -19 -6 -27 5 -12 7 -12 14 -1 7 10 9 10 10 -2 0 -8 2 -23 4 -33 5 -24 -15
-78 -25 -72 -5 3 -12 0 -17 -7 -18 -29 -53 -37 -135 -34 -84 3 -156 29 -151
55 2 6 -4 11 -13 11 -11 0 -15 6 -11 20 3 11 1 18 -4 14 -5 -3 -10 2 -10 10
-1 9 -3 21 -4 26 -1 6 -3 17 -4 25 -1 12 -21 15 -115 15 -80 0 -116 -4 -118
-12 -3 -7 0 -35 5 -63 5 -27 11 -66 12 -85 1 -19 8 -36 16 -38 11 -3 11 -1 -1
8 -13 10 -13 11 0 7 8 -2 15 -10 15 -18 1 -8 6 -13 12 -12 6 1 9 -6 6 -17 -3
-11 -10 -17 -16 -13 -6 3 -7 1 -3 -5 4 -6 13 -9 21 -5 8 3 15 1 15 -5 0 -6 -6
-13 -12 -15 -7 -3 2 -4 21 -2 18 2 31 1 28 -2 -5 -5 1 -14 30 -47 7 -8 9 -17
5 -20 -3 -4 2 -4 12 0 18 7 18 8 0 21 -22 16 -11 17 15 1 18 -11 18 -12 -2
-28 -16 -14 -17 -17 -4 -17 9 0 14 4 11 9 -3 4 0 8 5 8 10 0 15 -14 12 -32 0
-5 5 -7 12 -5 6 1 11 -4 10 -10 -4 -19 5 -16 16 6 8 15 7 18 -6 17 -8 0 -17 7
-19 17 -2 17 -1 17 21 3 29 -19 39 -20 29 -3 -5 8 -2 8 9 -2 18 -14 24 -26 8
-17 -5 3 -14 0 -20 -8 -9 -10 -7 -17 6 -27 16 -13 17 -12 4 4 -12 15 -11 17 6
17 11 0 25 10 32 23 6 12 9 14 7 5 -3 -10 -1 -20 5 -24 6 -3 8 -12 5 -20 -3
-8 -1 -14 4 -14 6 0 10 5 10 10 0 6 4 10 10 10 5 0 7 -8 4 -17 -5 -15 -4 -16
5 -3 9 13 11 13 11 0 0 -9 3 -11 8 -5 10 15 31 13 41 -4 5 -8 11 -9 15 -3 3 6
17 9 30 8 18 -2 22 1 19 14 -3 10 0 20 5 24 5 3 9 -2 8 -12 -1 -13 6 -16 29
-14 17 1 38 3 47 3 10 0 20 4 23 10 4 5 -2 6 -12 2 -19 -7 -18 -5 9 15 14 12
16 10 13 -13 -1 -16 1 -23 7 -17 5 5 10 18 11 29 0 11 7 20 14 20 9 0 10 -4 2
-13 -8 -10 -4 -12 18 -10 15 1 36 7 47 12 16 10 17 12 2 17 -10 4 -14 3 -11
-2 3 -5 1 -12 -5 -16 -5 -3 -10 3 -10 15 0 16 5 19 23 15 16 -4 29 0 41 14 10
11 22 19 25 16 4 -2 8 5 9 16 4 42 6 47 19 42 11 -5 11 -9 -2 -23 -13 -15 -14
-20 -3 -26 7 -4 10 -3 5 1 -4 5 0 17 10 27 9 10 12 18 8 18 -4 0 0 9 11 21 10
12 18 23 17 25 -2 2 -3 5 -2 7 5 15 4 45 -2 41 -14 -8 -3 28 12 38 11 7 11 11
2 15 -7 2 -13 9 -13 14 0 6 4 8 9 4 6 -3 6 7 0 27 -6 22 -6 34 1 36 8 3 7 8 0
17 -6 7 -12 26 -13 43 -1 16 -5 28 -9 25 -5 -2 -8 3 -8 11 0 9 0 18 0 21 0 7
-114 123 -120 122 -3 -1 -30 12 -60 28 -30 16 -104 45 -163 66 -130 45 -191
82 -184 110 4 16 3 18 -8 9 -12 -10 -13 -7 -10 11 3 12 -1 29 -7 36 -8 11 -7
12 6 7 19 -7 22 12 4 20 -7 3 -4 4 7 3 11 -1 20 4 20 11 0 6 4 12 9 11 5 0 13
5 17 13 7 11 9 11 9 0 0 -8 -10 -23 -22 -33 -22 -19 -22 -20 -2 -10 12 6 25 7
29 3 5 -4 6 -2 2 3 -3 6 0 17 6 25 16 20 53 48 44 34 -4 -7 5 -19 21 -29 l27
-18 -20 23 -20 23 23 -12 c31 -16 64 -22 57 -10 -4 5 -10 7 -15 4 -5 -3 -12 0
-16 7 -4 7 -4 10 1 6 4 -4 15 -2 23 5 11 8 14 8 9 0 -4 -6 -2 -15 4 -18 5 -4
8 -13 5 -21 -4 -11 -2 -12 15 -1 18 11 18 13 2 25 -9 6 -12 12 -6 12 18 0 43
-29 37 -44 -7 -18 12 -30 22 -15 5 8 3 9 -5 4 -10 -6 -11 -3 -2 14 7 11 14 21
17 21 3 0 2 -5 -1 -10 -3 -6 3 -22 13 -38 11 -15 20 -30 21 -35 1 -12 15 -31
34 -46 16 -13 20 -13 29 0 8 11 9 11 5 -3 -6 -16 21 -48 39 -48 5 0 2 5 -6 10
-13 8 -13 10 2 10 9 0 20 -4 23 -10 3 -5 12 -10 18 -9 9 0 8 2 -1 6 -6 2 -9
10 -6 15 5 7 2 8 -5 3 -10 -6 -11 -3 -2 14 14 25 23 28 14 5 -5 -13 -3 -15 13
-6 10 5 29 8 41 6 12 -2 25 1 29 8 4 6 3 8 -2 5 -6 -3 -16 -2 -24 4 -11 6 -6
8 15 5 24 -2 31 1 31 16 0 10 -4 18 -9 18 -5 0 -3 8 4 17 8 9 9 14 3 10 -7 -4
-15 0 -18 9 -5 12 -2 15 11 10 16 -5 16 -5 -1 8 -10 8 -19 26 -20 40 0 14 -7
28 -13 31 -7 2 -13 9 -13 15 0 46 -154 151 -243 166 -55 9 -180 10 -227 2z
m400 -358 c0 -5 -9 -14 -20 -20 -14 -7 -20 -7 -20 0 0 5 7 10 15 10 8 0 15 5
15 10 0 6 2 10 5 10 3 0 5 -4 5 -10z m-620 -160 c0 -5 -2 -10 -4 -10 -3 0 -8
5 -11 10 -3 6 -1 10 4 10 6 0 11 -4 11 -10z m90 -80 c0 -5 -2 -10 -4 -10 -3 0
-8 5 -11 10 -3 6 -1 10 4 10 6 0 11 -4 11 -10z m94 -33 c-3 -8 -11 -14 -19
-14 -21 0 -19 15 3 20 9 3 18 5 19 6 1 0 0 -5 -3 -12z m49 -23 c7 1 9 1 4 -1
-4 -3 -4 -10 0 -16 4 -7 -1 -6 -10 2 -9 7 -17 19 -16 25 0 7 2 7 5 -1 3 -7 11
-11 17 -9z m486 -310 c-6 -8 -8 -14 -4 -14 4 0 2 -7 -5 -15 -7 -8 -17 -12 -22
-9 -5 3 -2 14 8 25 9 10 14 19 10 19 -4 0 -4 5 -1 10 4 6 11 8 16 4 6 -4 6
-11 -2 -20z m-73 -91 c-4 -25 -38 -44 -56 -32 -12 8 -11 9 5 7 11 -2 19 2 18
9 -2 7 4 10 13 6 8 -3 14 -2 13 3 -2 13 0 24 5 24 2 0 3 -8 2 -17z m-89 -75
c-3 -8 -6 -5 -6 6 -1 11 2 17 5 13 3 -3 4 -12 1 -19z m-187 -2 c0 -2 -7 -7
-16 -10 -8 -3 -12 -2 -9 4 6 10 25 14 25 6z m74 -12 c3 -8 2 -12 -4 -9 -6 3
-10 10 -10 16 0 14 7 11 14 -7z m-184 -4 c8 -5 12 -11 10 -14 -3 -2 -14 2 -24
10 -22 15 -10 19 14 4z m96 -12 c5 4 6 3 1 -2 -11 -14 -45 -18 -52 -6 -4 6 1
7 11 3 13 -5 15 -3 9 8 -7 11 -6 12 7 2 8 -7 19 -9 24 -5z m68 4 c2 -4 -4 -8
-14 -8 -10 0 -16 4 -14 8 3 4 9 8 14 8 5 0 11 -4 14 -8z"/>
<path d="M1745 3318 c-61 -13 -126 -39 -161 -65 -17 -13 -37 -23 -44 -23 -7 0
-11 -3 -7 -6 3 -3 -6 -18 -21 -33 -50 -51 -92 -120 -92 -150 0 -6 -4 -11 -8
-11 -4 0 -8 -10 -9 -22 -1 -11 -8 -25 -15 -29 -11 -7 -11 -9 0 -9 7 0 10 -5 7
-10 -4 -6 -9 -8 -13 -6 -4 2 -7 -20 -6 -50 0 -57 -3 -62 -26 -41 -8 6 -7 3 3
-9 18 -22 23 -39 8 -29 -5 3 -13 1 -16 -5 -4 -6 -1 -9 7 -8 10 2 13 -14 14
-64 1 -43 -3 -68 -10 -68 -7 0 -6 -3 1 -8 7 -4 15 -24 17 -44 4 -31 2 -36 -12
-32 -15 5 -15 4 -2 -5 13 -10 13 -12 0 -21 -8 -5 -10 -10 -5 -10 6 0 15 4 21
10 6 6 11 -1 12 -22 2 -18 8 -36 15 -41 7 -5 3 -6 -10 -2 -14 4 -23 2 -23 -5
0 -6 4 -9 8 -6 10 6 22 -3 42 -28 9 -12 10 -17 3 -12 -7 4 -13 2 -13 -3 0 -6
5 -11 10 -11 6 0 10 -9 10 -21 0 -12 -4 -17 -11 -14 -6 4 -5 -2 3 -14 7 -12
20 -21 28 -21 12 1 11 3 -3 14 -10 8 -14 17 -9 20 9 5 24 -16 27 -39 0 -5 7
-9 14 -7 7 1 10 -1 7 -6 -6 -11 5 -26 29 -40 11 -6 14 -12 7 -12 -7 0 -25 12
-40 27 -15 15 -34 28 -42 30 -9 1 -5 -7 10 -19 14 -11 24 -25 23 -29 -2 -5 3
-8 10 -6 6 1 11 -3 10 -10 -1 -6 5 -17 14 -25 9 -7 14 -8 10 -2 -14 23 20 21
42 -2 13 -13 26 -22 30 -20 4 3 6 -8 5 -25 -1 -16 2 -27 6 -24 5 3 10 2 13 -2
2 -5 2 -2 0 6 -2 9 2 11 14 6 10 -4 23 -8 30 -8 6 0 9 -6 6 -13 -2 -6 1 -15 8
-20 7 -4 10 -3 6 3 -4 6 0 13 8 16 8 4 16 -2 20 -14 4 -10 10 -17 14 -14 5 2
17 -2 27 -9 13 -10 23 -11 31 -4 9 7 13 7 13 -1 0 -7 4 -10 9 -7 5 4 12 0 14
-6 4 -10 6 -10 6 -1 1 7 8 10 16 7 8 -4 15 -1 15 4 0 6 -8 9 -19 7 -15 -3 -18
1 -13 18 5 20 6 20 12 2 5 -13 9 -15 14 -7 4 7 12 10 17 6 5 -3 7 -9 5 -13 -3
-3 4 -7 15 -7 11 0 18 5 16 11 -3 5 9 10 24 11 24 1 27 -1 18 -13 -7 -7 -9
-16 -6 -19 3 -3 10 4 17 15 12 23 32 29 24 7 -3 -8 -1 -17 5 -21 7 -3 8 0 5 9
-4 11 0 14 15 11 14 -3 19 0 15 7 -5 8 -1 9 10 5 10 -4 15 -3 11 3 -6 10 4 13
40 11 l20 -1 -20 9 c-14 6 -30 3 -52 -9 -27 -16 -32 -16 -37 -3 -9 23 -7 30 4
13 9 -13 12 -13 21 3 6 9 15 14 21 11 6 -4 18 2 26 12 11 15 13 15 9 2 -5 -16
14 -20 29 -6 3 4 13 4 22 1 14 -4 14 -3 3 5 -11 8 -12 14 -3 24 9 11 9 18 -1
28 -10 12 -9 12 6 1 15 -12 21 -9 18 11 0 4 7 4 17 1 15 -6 16 -5 2 12 -14 17
-14 17 7 5 12 -8 19 -19 15 -25 -3 -5 2 -4 11 4 9 7 17 16 17 19 0 3 -3 2 -7
-1 -3 -4 -12 -2 -20 4 -16 14 1 41 22 33 7 -3 16 0 20 5 3 6 11 8 17 5 7 -4 8
-2 4 5 -6 9 -11 9 -21 1 -10 -8 -15 -8 -20 0 -4 6 -4 14 -1 17 3 4 6 1 6 -6 0
-7 4 -10 10 -6 5 3 7 12 4 19 -3 7 2 19 10 26 9 7 13 17 9 23 -3 6 -1 7 5 3 8
-5 12 2 12 19 0 17 4 24 12 19 8 -5 9 0 5 15 -4 18 -3 20 8 11 12 -10 13 -7 5
18 -4 17 -5 33 -2 37 6 6 11 25 17 65 1 14 4 27 5 30 1 3 1 13 0 24 -1 10 2
16 8 13 5 -4 9 0 9 8 0 8 -3 12 -7 10 -4 -2 -7 2 -7 10 0 8 3 12 7 10 4 -2 7
2 7 10 0 8 -5 11 -10 8 -5 -3 -7 0 -5 8 3 8 11 13 17 11 7 -1 10 2 6 8 -3 6
-10 8 -14 6 -4 -3 -8 16 -8 41 -1 30 2 41 8 32 5 -8 9 -9 9 -3 0 5 -5 15 -12
22 -16 16 -19 45 -4 39 7 -3 13 1 13 8 0 8 -7 11 -15 7 -12 -4 -14 0 -10 16 3
11 1 23 -4 24 -6 2 -11 18 -11 35 -1 17 -5 29 -9 27 -7 -5 -10 11 -7 32 0 4
-3 10 -8 13 -12 9 -45 71 -37 71 4 0 -5 10 -20 21 -15 12 -25 24 -22 26 9 9
-89 82 -145 108 -30 14 -64 25 -76 25 -13 0 -23 3 -23 8 0 10 -146 10 -195 0z
m142 -204 c-3 -4 2 -18 13 -32 11 -13 17 -28 14 -33 -2 -4 11 -2 30 6 44 18
59 19 27 1 -20 -11 -21 -14 -7 -19 10 -4 14 -12 10 -18 -4 -8 -3 -9 5 -5 9 6
9 11 0 22 -6 8 -7 14 -3 14 5 0 15 -9 22 -20 7 -12 17 -18 23 -14 7 4 7 -1 -1
-15 -10 -19 -9 -22 6 -19 16 3 20 -4 28 -57 2 -11 4 -20 6 -20 1 0 3 -12 4
-26 2 -14 6 -31 10 -37 3 -6 1 -14 -5 -18 -8 -5 -9 -3 -4 7 5 8 4 10 0 6 -12
-10 -16 -67 -5 -67 5 0 7 9 5 20 -2 11 0 20 6 20 8 0 4 -56 -6 -87 -2 -7 1
-13 8 -14 9 0 9 -2 0 -6 -10 -3 -10 -10 -2 -25 7 -13 7 -18 1 -14 -6 3 -13 2
-17 -4 -3 -5 -1 -10 6 -10 8 0 7 -5 -2 -17 -10 -11 -10 -14 -1 -9 6 4 12 3 12
-3 0 -5 -4 -12 -9 -15 -5 -4 -8 -14 -6 -24 1 -9 -4 -29 -11 -43 -7 -15 -10
-30 -6 -34 4 -5 -1 -5 -10 -2 -11 4 -15 2 -12 -6 7 -19 -46 -77 -84 -93 -55
-23 -126 -24 -174 -2 -52 23 -99 73 -91 95 4 10 2 14 -5 9 -16 -10 -25 13 -11
30 10 12 9 13 -7 8 -10 -4 -16 -4 -12 1 4 4 3 14 -3 22 -6 7 -9 13 -6 13 3 0
1 16 -4 36 -8 26 -7 39 3 52 8 10 9 13 1 9 -6 -4 -14 -3 -18 3 -3 5 -2 10 3
10 11 0 9 30 -3 49 -6 11 -4 13 8 8 18 -7 17 17 -3 54 -7 12 -8 19 -2 15 5 -3
13 1 16 10 3 8 2 12 -3 9 -5 -3 -13 0 -17 6 -4 7 -3 9 3 6 6 -4 16 0 23 8 11
13 10 14 -6 9 -18 -7 -18 -7 -1 13 9 11 17 24 17 29 0 5 -4 2 -10 -6 -5 -8
-12 -12 -15 -8 -3 3 1 12 9 20 9 10 11 20 5 29 -5 8 -9 19 -9 24 0 6 4 4 8 -3
6 -9 15 -3 31 18 12 17 26 28 31 25 5 -3 11 -1 14 4 8 12 -12 8 -44 -8 l-25
-12 25 20 c14 11 28 21 33 21 4 0 6 5 5 12 -2 8 11 12 39 12 37 0 40 2 32 18
-13 25 -1 22 22 -4 11 -14 18 -17 17 -8 -2 8 2 14 9 15 6 0 15 4 20 9 4 5 3 7
-3 3 -6 -3 -11 0 -11 7 0 7 6 13 13 13 7 0 11 -4 8 -9 -9 -14 13 -9 26 7 7 8
15 15 18 15 3 0 2 -3 -1 -6z m-157 -34 c0 -5 -5 -10 -11 -10 -5 0 -7 5 -4 10
3 6 8 10 11 10 2 0 4 -4 4 -10z m24 -6 c3 -8 2 -12 -4 -9 -6 3 -10 10 -10 16
0 14 7 11 14 -7z m56 12 c0 -3 -4 -8 -10 -11 -5 -3 -10 -1 -10 4 0 6 5 11 10
11 6 0 10 -2 10 -4z m131 -19 c-13 -13 -26 -3 -16 12 3 6 11 8 17 5 6 -4 6
-10 -1 -17z m152 -842 c-7 -21 -12 -19 -10 4 0 11 5 18 9 15 4 -3 5 -11 1 -19z
m-327 -50 c6 16 8 16 16 1 5 -9 13 -14 19 -11 5 4 9 1 9 -5 0 -7 -6 -10 -14
-7 -7 3 -18 1 -22 -3 -6 -6 -22 1 -39 16 -29 24 -29 24 -3 8 26 -15 28 -15 34
1z m124 9 c0 -8 -19 -13 -24 -6 -3 5 1 9 9 9 8 0 15 -2 15 -3z"/>
<path d="M1859 3083 c-8 -9 -9 -14 -2 -10 6 4 14 1 16 -5 4 -10 6 -10 6 0 1 8
6 10 14 6 8 -5 8 -2 -2 9 -7 9 -15 17 -16 17 -1 0 -9 -8 -16 -17z"/>
<path d="M1734 3036 c1 -8 5 -18 8 -22 4 -3 5 1 4 10 -1 8 -5 18 -8 22 -4 3
-5 -1 -4 -10z"/>
<path d="M1990 3010 c0 -5 5 -10 11 -10 5 0 7 5 4 10 -3 6 -8 10 -11 10 -2 0
-4 -4 -4 -10z"/>
<path d="M2029 2978 c-5 -18 -6 -38 -1 -34 7 8 12 36 6 36 -2 0 -4 -1 -5 -2z"/>
<path d="M1646 2951 c-4 -5 -2 -12 3 -15 5 -4 12 -2 15 3 4 5 2 12 -3 15 -5 4
-12 2 -15 -3z"/>
<path d="M2040 2885 c0 -8 4 -15 10 -15 5 0 7 7 4 15 -4 8 -8 15 -10 15 -2 0
-4 -7 -4 -15z"/>
<path d="M4152 3315 c-22 -7 -44 -10 -47 -7 -3 3 -5 0 -5 -6 0 -7 -3 -11 -7
-10 -13 2 -63 -14 -63 -21 0 -4 -15 -15 -32 -26 -18 -10 -46 -33 -62 -49 -16
-17 -33 -30 -38 -28 -5 1 -7 -2 -4 -7 3 -5 -5 -24 -18 -44 -13 -19 -27 -44
-31 -56 -4 -13 -11 -18 -18 -14 -7 4 -5 -2 3 -12 13 -17 13 -18 -1 -13 -12 5
-14 0 -11 -23 3 -20 -1 -31 -13 -35 -13 -5 -14 -9 -3 -15 11 -7 10 -11 -2 -18
-8 -6 -11 -13 -7 -17 4 -4 1 -14 -6 -22 -8 -11 -8 -13 0 -9 14 9 5 -71 -11
-92 -8 -11 -8 -13 2 -7 7 4 12 1 12 -9 0 -9 -4 -14 -8 -11 -5 3 -9 -1 -9 -9 0
-8 3 -12 7 -10 3 2 7 -12 7 -31 1 -19 -4 -34 -10 -34 -7 0 -6 -4 2 -9 16 -11
23 -69 10 -93 -6 -11 -5 -19 3 -24 6 -4 8 -3 4 4 -3 6 -1 14 6 18 7 4 10 4 6
-1 -4 -4 -2 -15 5 -23 8 -11 8 -14 0 -9 -6 4 -14 3 -18 -3 -3 -5 1 -10 9 -10
9 0 17 -6 18 -12 0 -7 2 -17 2 -23 1 -5 5 -16 9 -22 5 -7 5 -13 0 -13 -4 0 -1
-5 7 -11 13 -9 13 -10 0 -6 -8 2 -14 10 -12 16 1 7 -1 10 -6 7 -11 -6 -9 -43
3 -53 4 -5 5 -2 1 5 -5 8 0 12 13 12 12 0 21 -5 21 -11 0 -5 -5 -7 -12 -3 -7
4 -8 3 -4 -4 4 -7 1 -12 -6 -12 -8 0 -7 -4 4 -11 10 -5 15 -17 12 -27 -5 -14
-4 -14 4 -2 8 10 8 18 0 27 -14 18 0 16 18 -1 16 -17 19 -30 4 -21 -5 3 -10 1
-10 -4 0 -6 6 -11 13 -11 8 0 7 -4 -3 -10 -8 -5 -10 -10 -4 -10 5 0 16 6 23
13 11 10 12 8 6 -10 -4 -14 -2 -23 4 -23 6 0 11 5 11 12 0 6 6 3 14 -8 10 -13
11 -23 4 -32 -17 -20 -2 -25 18 -5 16 16 17 16 11 1 -3 -10 -2 -20 3 -23 4 -3
10 0 12 7 3 8 7 6 11 -5 3 -9 1 -19 -5 -23 -7 -5 -8 -2 -3 6 5 9 4 11 -4 6
-16 -11 -3 -26 16 -19 11 4 14 3 9 -5 -5 -8 -2 -10 9 -6 12 5 14 2 8 -12 -6
-17 -5 -17 10 -5 14 11 17 11 18 0 1 -8 1 -18 0 -22 -1 -5 3 -6 9 -2 5 3 10 1
10 -4 0 -6 4 -11 9 -11 4 0 8 9 7 20 0 11 3 18 9 17 5 -1 9 -12 9 -24 -1 -19
1 -20 18 -10 16 10 21 9 29 -5 6 -11 16 -15 26 -11 12 5 14 3 8 -7 -5 -9 -4
-11 4 -6 16 11 2 29 -17 21 -9 -3 -13 -3 -9 1 4 4 1 14 -6 22 -8 11 -3 9 17
-3 31 -21 56 -28 56 -16 0 9 38 12 44 3 3 -4 -4 -9 -15 -10 -42 -4 -49 -6 -49
-13 0 -4 11 -6 24 -5 13 0 22 5 19 9 -7 12 30 4 40 -8 5 -6 7 -4 4 6 -3 9 -1
22 4 30 7 11 9 11 9 1 0 -7 5 -10 10 -7 6 3 10 1 10 -5 0 -7 -7 -10 -14 -7
-10 4 -13 1 -9 -8 3 -8 9 -13 13 -10 4 3 13 -2 20 -10 7 -8 17 -15 23 -15 6 0
2 7 -10 15 -22 15 -22 45 -1 45 6 0 8 -7 4 -15 -3 -8 -2 -15 3 -15 5 0 11 9
14 20 3 11 9 20 14 19 22 -4 32 3 27 19 -5 16 -5 16 6 0 11 -18 36 -26 25 -9
-3 5 -1 12 4 15 5 4 13 1 17 -5 5 -8 3 -9 -6 -4 -8 5 -11 4 -6 -3 8 -14 34 -5
62 20 13 11 28 16 40 13 18 -6 18 -6 1 5 -9 6 -21 9 -26 5 -5 -3 -12 -2 -15 3
-5 8 21 14 68 14 17 0 24 3 16 8 -15 9 -14 16 8 38 9 11 25 18 35 16 14 -2 16
0 8 10 -6 7 -7 17 -3 21 4 5 1 5 -6 1 -7 -4 -10 -12 -7 -17 3 -5 -2 -6 -11 -2
-16 6 -16 7 1 19 9 7 23 10 31 7 17 -6 19 13 2 23 -7 4 -8 3 -4 -4 5 -8 1 -10
-10 -5 -15 5 -15 7 0 15 9 5 20 7 24 4 5 -3 9 1 9 9 0 8 -5 12 -10 8 -5 -3 -3
5 4 18 7 13 12 26 11 29 -1 3 7 5 17 5 11 0 22 3 26 6 3 4 -1 6 -11 5 -9 0
-19 6 -21 14 -4 13 -3 13 7 0 10 -12 11 -11 7 8 -4 18 -2 22 9 18 8 -3 12 -2
9 3 -3 6 3 14 12 20 10 6 13 11 8 11 -6 0 -17 -6 -24 -12 -11 -11 -12 -8 -6
12 8 24 12 48 19 95 1 11 -3 26 -8 34 -9 12 -8 13 3 6 11 -6 13 -2 9 19 -4 19
-1 26 11 27 14 0 14 1 1 7 -8 4 -16 17 -16 29 -1 13 3 20 7 17 5 -3 9 0 9 5 0
6 -4 11 -8 11 -12 0 -12 43 0 57 6 8 8 16 4 20 -3 3 -6 0 -7 -8 -1 -8 -5 2 -9
21 -6 24 -5 37 3 42 9 6 9 8 1 8 -7 0 -15 7 -18 16 -5 12 -2 15 9 10 9 -3 13
-2 10 4 -3 6 -14 10 -23 10 -15 0 -15 2 -2 10 11 7 11 10 2 10 -7 0 -11 4 -8
9 4 5 2 11 -3 13 -5 1 -11 14 -13 28 -1 14 -11 34 -20 44 -10 11 -18 26 -18
33 0 33 -153 162 -205 173 -5 1 -18 6 -28 12 -45 24 -201 31 -265 13z m155
-218 c-1 -5 4 -12 12 -15 8 -3 11 0 7 7 -5 7 -1 9 10 4 15 -6 15 -7 0 -15 -11
-6 -22 -5 -32 2 -8 8 -14 8 -14 2 0 -16 28 -22 55 -12 25 10 45 -3 24 -16 -8
-5 -9 -3 -4 7 5 8 4 10 0 6 -5 -4 -10 -14 -11 -23 -2 -13 0 -13 14 -2 9 7 21
18 25 23 4 6 5 -2 1 -16 -3 -17 -1 -30 7 -35 8 -5 11 -2 7 8 -4 8 -2 21 3 29
8 11 9 9 7 -6 -2 -15 2 -19 17 -18 11 1 15 0 9 -3 -7 -3 -10 -14 -7 -24 3 -12
0 -20 -6 -20 -8 0 -8 -4 1 -14 9 -10 15 -10 20 -3 4 6 10 8 14 4 4 -3 1 -14
-7 -24 -12 -15 -12 -16 3 -10 10 3 17 3 17 -1 -1 -4 0 -9 1 -12 3 -7 9 -66 13
-122 2 -28 -1 -48 -7 -48 -6 0 -5 -5 2 -12 16 -16 15 -31 0 -22 -9 5 -9 2 1
-9 9 -12 10 -17 2 -17 -9 0 -9 -5 -1 -20 10 -19 4 -26 -23 -21 -5 1 -6 -3 -2
-9 3 -6 10 -8 15 -5 5 3 8 -3 7 -14 0 -11 -5 -17 -10 -14 -5 3 -6 -3 -3 -14 4
-11 -1 -37 -11 -59 -9 -21 -16 -42 -15 -46 1 -5 -2 -8 -8 -8 -5 0 -10 -5 -10
-11 0 -21 -61 -63 -110 -76 -8 -2 -38 -5 -67 -5 -42 -1 -62 5 -100 29 -26 16
-47 35 -45 41 1 7 -2 12 -6 12 -12 0 -51 79 -56 115 -2 17 -5 30 -6 30 -1 0
-3 8 -5 18 -2 11 1 15 8 10 7 -4 6 1 -2 10 -16 20 -8 34 12 21 7 -5 5 -2 -5 8
-21 19 -24 38 -5 39 6 0 3 4 -8 9 l-20 9 20 1 c12 1 15 4 7 7 -10 4 -9 10 5
26 12 15 13 18 2 9 -22 -17 -33 -2 -11 15 9 8 11 12 4 8 -17 -9 -11 25 12 60
10 15 13 24 7 21 -6 -4 -11 -2 -11 4 0 6 -5 8 -12 4 -10 -6 -10 -5 -1 8 7 8
10 18 6 21 -3 4 -1 7 6 7 8 0 11 -7 6 -17 -5 -14 -4 -15 6 -6 10 10 9 15 -1
28 -14 17 0 21 17 4 8 -8 13 -7 18 2 5 8 4 10 -4 5 -6 -4 -14 0 -17 9 -7 19
27 49 37 33 4 -5 9 -3 12 7 4 9 3 14 -1 12 -4 -3 -12 0 -18 7 -7 8 -4 18 14
36 14 14 22 19 18 13 -4 -7 -5 -13 -2 -13 2 0 13 -3 23 -6 15 -5 15 -4 3 5
-13 9 -13 11 0 12 32 2 53 8 64 20 8 9 6 9 -11 0 -16 -8 -22 -8 -26 2 -5 14
30 16 51 3 7 -4 12 -3 12 2 0 6 10 8 23 5 17 -4 19 -3 7 6 -12 8 -11 10 7 8
12 0 21 -5 20 -10z m-133 -15 c3 -5 -1 -9 -9 -9 -8 0 -15 4 -15 9 0 4 4 8 9 8
6 0 12 -4 15 -8z m-79 -82 c-3 -5 -11 -10 -16 -10 -6 0 -7 5 -4 10 3 6 11 10
16 10 6 0 7 -4 4 -10z m-52 -135 c-3 -9 -8 -14 -10 -11 -3 3 -2 9 2 15 9 16
15 13 8 -4z m560 -548 c3 -8 -1 -14 -8 -14 -7 0 -11 6 -8 14 3 7 6 13 8 13 2
0 5 -6 8 -13z m-18 -36 c3 -5 0 -13 -6 -17 -7 -4 -9 -3 -5 4 3 5 0 13 -6 15
-9 4 -10 6 -1 6 6 1 14 -3 18 -8z m-535 -57 c0 -2 -9 0 -20 6 -11 6 -20 13
-20 16 0 2 9 0 20 -6 11 -6 20 -13 20 -16z m456 -9 c-10 -8 -23 -12 -28 -9
-14 9 -2 19 24 21 22 2 22 1 4 -12z m-432 -21 c3 -8 2 -12 -4 -9 -6 3 -10 10
-10 16 0 14 7 11 14 -7z"/>
<path d="M4235 3060 c3 -5 8 -10 11 -10 2 0 4 5 4 10 0 6 -5 10 -11 10 -5 0
-7 -4 -4 -10z"/>
<path d="M4117 3037 c-3 -8 3 -14 16 -15 12 0 17 2 12 6 -6 4 -13 11 -16 15
-4 4 -9 2 -12 -6z"/>
<path d="M4415 3000 c-3 -5 -1 -10 4 -10 6 0 11 5 11 10 0 6 -2 10 -4 10 -3 0
-8 -4 -11 -10z"/>
<path d="M4450 2878 c0 -4 4 -8 9 -8 6 0 12 4 15 8 3 5 -1 9 -9 9 -8 0 -15 -4
-15 -9z"/>
<path d="M4473 2823 c4 -3 1 -13 -6 -22 -11 -14 -10 -14 6 -2 20 15 22 31 5
31 -6 0 -8 -3 -5 -7z"/>
<path d="M2493 3312 c-20 -3 -23 -10 -24 -50 -1 -26 0 -53 1 -61 1 -8 -4 -18
-12 -22 -11 -7 -11 -9 1 -9 11 0 11 -3 0 -17 -8 -9 -9 -14 -3 -10 9 5 12 -8
11 -44 0 -46 -2 -50 -14 -33 -7 10 -13 13 -13 8 0 -6 6 -16 13 -22 16 -17 19
-84 3 -75 -6 4 -5 -1 3 -10 9 -11 10 -17 2 -17 -6 0 -11 -5 -11 -11 0 -5 5 -7
10 -4 14 9 12 -8 -2 -24 -10 -11 -10 -13 0 -7 7 5 12 1 12 -9 0 -9 -4 -14 -9
-10 -5 3 -13 1 -16 -5 -4 -6 -1 -9 7 -8 17 4 23 -43 6 -53 -10 -7 -10 -9 0 -9
6 0 12 -9 12 -19 0 -14 -6 -18 -22 -15 l-23 5 23 -10 c24 -11 29 -27 10 -34
-10 -4 -10 -6 0 -6 6 -1 12 -7 12 -15 0 -8 -6 -17 -12 -19 -10 -4 -9 -6 1 -6
11 -1 11 -4 0 -18 -8 -9 -9 -14 -3 -10 9 5 12 -8 11 -44 0 -46 -2 -50 -14 -33
-7 10 -13 13 -13 8 0 -6 6 -16 13 -22 16 -17 19 -84 3 -75 -6 4 -5 -1 3 -10 9
-11 10 -17 2 -17 -6 0 -11 -5 -11 -11 0 -5 5 -7 10 -4 14 9 12 -8 -2 -24 -10
-11 -10 -13 0 -7 7 5 12 1 12 -9 0 -9 -4 -13 -10 -10 -5 3 -10 1 -10 -4 0 -6
5 -11 12 -11 6 0 1 -12 -13 -27 -19 -22 -19 -24 -3 -10 21 17 22 17 22 -7 0
-14 -4 -23 -9 -21 -4 3 -11 1 -14 -5 -4 -6 -1 -9 7 -8 17 4 23 -43 6 -53 -10
-7 -10 -9 0 -9 6 0 12 -6 12 -14 0 -8 -6 -17 -12 -19 -12 -5 25 -11 47 -8 6 1
-1 -8 -14 -19 -28 -24 -15 -27 17 -4 16 11 22 12 20 3 -3 -14 21 -19 37 -8 15
10 45 7 45 -4 0 -6 9 -2 20 8 32 29 29 13 -4 -20 -16 -16 -27 -22 -23 -13 7
20 -20 33 -38 18 -6 -5 -15 -7 -18 -3 -4 3 -7 1 -7 -5 0 -14 10 -15 30 -2 11
7 17 5 21 -7 3 -9 13 -17 23 -19 10 -1 15 0 12 3 -10 11 26 43 48 43 17 0 18
-2 6 -9 -8 -6 -19 -7 -25 -4 -5 3 -5 0 2 -7 10 -11 15 -11 28 0 16 13 16 15 0
26 -15 11 -15 13 4 19 12 3 19 11 16 16 -6 9 9 14 30 9 5 -1 2 7 -6 17 -9 10
-19 28 -22 41 -4 19 -2 22 10 18 12 -5 13 -3 6 6 -20 25 -22 58 -5 58 14 0 14
2 3 9 -7 5 -10 14 -7 20 4 6 3 11 -3 11 -9 0 -7 37 4 68 2 6 1 12 -3 12 -4 0
-7 11 -7 25 0 18 4 24 15 20 10 -3 9 0 -3 9 -17 13 -17 14 0 32 17 17 17 17 1
11 -13 -5 -18 -1 -18 13 0 14 5 18 18 14 16 -5 16 -5 0 6 -16 9 -15 45 1 36 3
-2 7 9 8 26 0 20 -2 26 -7 17 -5 -7 -7 -16 -4 -20 2 -4 -3 -12 -11 -19 -19
-16 -19 -9 0 37 18 43 19 52 2 29 -11 -15 -12 -12 -12 21 0 21 4 44 8 51 5 6
4 12 -1 12 -5 0 -9 7 -9 16 0 15 2 15 13 -1 7 -9 17 -14 23 -11 5 4 15 -2 21
-13 9 -17 8 -20 -6 -14 -14 5 -14 3 -3 -15 7 -11 17 -18 23 -15 5 3 6 1 2 -5
-3 -6 -2 -13 2 -16 5 -3 8 -28 7 -55 -1 -28 2 -48 7 -45 8 5 11 -4 11 -37 0
-9 6 -16 13 -16 8 0 10 5 6 11 -5 6 -8 18 -7 26 0 8 -4 18 -9 22 -13 9 -16 37
-6 43 5 3 7 -3 5 -14 -2 -11 3 -22 10 -25 8 -3 12 -14 10 -25 -2 -11 3 -25 10
-31 8 -6 11 -19 8 -27 -4 -10 -2 -14 4 -10 6 4 9 -10 8 -39 -1 -24 2 -39 6
-32 4 7 11 9 14 6 4 -4 3 -13 -1 -20 -14 -21 -12 -57 3 -62 8 -3 11 -1 8 4
-11 18 -14 51 -4 45 5 -4 7 -11 4 -16 -4 -5 -1 -9 6 -9 7 0 9 -3 6 -6 -3 -4
-1 -16 5 -28 15 -26 20 -45 19 -73 -1 -13 5 -22 12 -20 6 1 11 -4 9 -12 -2 -8
3 -18 10 -23 10 -7 10 -9 -2 -5 -8 2 -14 12 -13 22 1 13 -2 14 -10 5 -9 -9 -7
-16 11 -30 12 -10 22 -25 22 -34 0 -14 12 -20 32 -17 5 0 7 -5 5 -12 -1 -7 6
-11 18 -9 16 2 17 1 5 -7 -10 -7 -20 -5 -32 6 -10 9 -21 13 -25 10 -3 -4 0 -7
8 -7 12 0 11 -2 -1 -11 -12 -8 -11 -9 5 -7 11 2 19 -2 18 -8 -1 -6 4 -11 12
-11 8 0 12 4 9 9 -9 15 19 8 40 -9 20 -18 20 -18 4 8 -13 20 -14 26 -3 26 8 0
12 -3 10 -7 -2 -4 12 -7 31 -8 21 -1 32 3 29 9 -11 16 13 36 40 33 14 -1 23 2
19 7 -3 5 -10 7 -15 4 -5 -4 -9 3 -9 14 0 11 5 23 12 27 8 5 9 1 4 -12 -6 -15
-5 -16 5 -7 10 10 9 15 -1 28 -15 18 0 20 20 3 10 -9 10 -7 -1 7 -18 23 -14
55 6 55 19 0 29 20 17 32 -7 7 -8 17 -3 27 5 9 10 21 10 26 1 6 12 10 24 9
l21 -1 -22 15 c-17 11 -19 18 -12 33 7 12 16 16 28 12 9 -3 14 -3 10 2 -4 4
-2 15 5 24 11 14 10 15 -7 1 -18 -14 -19 -14 -12 5 5 11 11 28 13 38 3 9 10
17 15 17 5 0 6 -4 3 -10 -3 -6 1 -7 10 -3 13 4 14 8 4 14 -7 4 -14 16 -15 26
-3 16 -1 16 13 -2 15 -19 15 -19 8 4 -5 18 -4 22 5 16 9 -5 11 -4 6 4 -4 6
-12 9 -17 6 -5 -4 -9 -1 -9 4 0 6 11 11 24 11 14 0 27 4 30 9 4 5 -2 7 -13 4
-26 -7 -34 22 -11 42 11 10 17 22 13 28 -4 6 -1 7 7 2 9 -6 12 -4 8 7 -4 8 -2
21 2 29 7 11 10 10 16 -4 8 -21 21 -22 21 -2 0 8 -3 13 -6 11 -3 -2 -13 3 -21
12 -13 14 -12 15 3 9 22 -8 22 9 0 22 -17 10 -17 10 0 11 9 0 17 -4 17 -10 0
-5 5 -9 12 -7 7 1 13 -8 14 -20 1 -13 -3 -23 -8 -23 -5 0 -6 -6 -1 -12 11 -19
13 -39 2 -32 -5 3 -9 0 -9 -5 0 -6 5 -11 10 -11 6 0 10 -5 10 -11 0 -5 -6 -7
-12 -3 -10 6 -10 5 -1 -7 16 -20 17 -30 1 -41 -11 -8 -11 -10 0 -15 10 -4 9
-8 -4 -17 -13 -10 -14 -15 -4 -21 9 -6 11 -4 5 5 -5 9 -4 11 4 6 8 -5 9 -12 3
-19 -5 -7 -8 -25 -6 -41 2 -19 -3 -35 -14 -44 -15 -12 -15 -13 -1 -9 13 4 16
-3 15 -46 -1 -32 -7 -56 -15 -63 -11 -9 -12 -12 -1 -19 9 -5 11 -4 6 3 -4 7
-3 12 2 12 5 0 10 -11 10 -25 0 -22 -3 -24 -17 -13 -13 10 -12 8 2 -8 19 -23
23 -39 7 -29 -5 3 -10 1 -10 -4 0 -6 5 -11 10 -11 6 0 10 -5 10 -11 0 -5 -6
-7 -12 -3 -9 6 -9 3 0 -9 8 -9 11 -21 7 -27 -4 -6 -1 -17 5 -25 10 -12 10 -19
-1 -32 -7 -10 -9 -15 -5 -11 5 4 15 3 21 -2 9 -8 14 -6 18 4 4 9 1 14 -6 12
-7 -1 -9 -1 -4 1 4 3 5 8 3 12 -3 4 1 8 8 8 8 0 13 -9 11 -23 -2 -23 14 -23
44 0 11 8 13 8 7 -1 -9 -16 -2 -16 27 -2 21 10 21 10 3 -5 -17 -13 -18 -18 -6
-29 7 -6 11 -7 8 -2 -3 6 4 19 15 29 20 19 20 19 13 0 -17 -43 -17 -48 0 -23
16 22 23 25 42 18 15 -6 21 -13 16 -21 -4 -7 -3 -9 1 -5 12 10 15 38 4 31 -5
-3 -9 0 -9 6 0 6 -5 8 -12 4 -9 -5 -8 -2 1 9 11 14 16 15 29 5 13 -11 14 -11
8 0 -4 7 -3 19 4 27 6 7 7 16 2 19 -14 8 -8 81 7 100 12 14 12 16 -1 11 -19
-8 -18 36 1 59 12 14 11 16 -5 10 -18 -5 -18 -5 0 10 19 15 19 16 2 16 -16 0
-17 2 -5 17 12 15 12 16 -1 8 -9 -5 -7 0 4 14 20 22 20 22 0 16 -19 -7 -19 -6
0 9 19 15 19 16 2 16 -16 0 -17 2 -5 17 12 15 12 16 -1 8 -9 -5 -7 0 4 14 20
22 20 22 0 16 -19 -7 -19 -6 0 9 19 15 19 16 2 16 -16 0 -17 2 -5 17 12 15 12
16 -1 8 -9 -5 -7 0 4 14 20 22 20 22 0 16 -19 -7 -19 -6 0 9 15 12 16 16 5 16
-10 0 -15 10 -14 30 0 17 4 30 8 30 5 0 5 6 0 13 -10 16 -12 87 -1 81 4 -3 8
0 8 5 0 6 -3 11 -8 11 -4 0 -7 21 -6 48 2 59 2 60 14 42 7 -10 10 -11 10 -2 0
7 -7 15 -15 18 -14 6 -13 8 2 20 14 11 15 13 2 9 -20 -7 -20 35 0 59 12 14 11
16 -5 10 -18 -5 -18 -5 0 10 19 15 19 16 2 16 -16 0 -17 2 -5 17 8 9 9 14 2
10 -7 -5 -10 -1 -8 10 2 10 4 22 4 26 1 5 6 5 11 2 6 -3 10 -1 10 4 0 6 -8 11
-17 11 -15 0 -16 2 -3 10 9 6 10 10 3 10 -14 0 -13 62 2 72 6 5 5 8 -2 8 -7 0
-13 10 -13 23 0 22 -1 22 -145 22 -162 -1 -159 0 -184 -78 -7 -20 -16 -35 -20
-33 -4 3 -8 -1 -8 -9 0 -8 4 -12 9 -9 9 6 -1 -25 -13 -42 -5 -6 -6 -14 -2 -17
3 -4 0 -7 -7 -7 -7 0 -10 -3 -7 -7 4 -3 0 -15 -10 -25 -9 -10 -11 -18 -5 -18
6 0 3 -16 -8 -37 -10 -21 -16 -42 -12 -47 3 -5 -3 -6 -13 -2 -14 5 -15 3 -8
-6 7 -9 7 -21 0 -38 -5 -14 -12 -34 -14 -45 -2 -11 -8 -22 -13 -23 -6 -2 -8
-8 -4 -13 3 -5 1 -9 -5 -9 -6 0 -7 -7 -4 -17 5 -12 3 -14 -7 -8 -9 6 -11 4 -6
-4 11 -17 -53 -193 -67 -184 -6 3 -7 1 -3 -6 4 -6 2 -27 -4 -46 -13 -38 -31
-57 -25 -25 2 11 0 20 -4 20 -10 0 -24 38 -22 57 1 6 -3 14 -9 18 -14 9 -12
27 3 20 6 -4 4 0 -5 8 -18 14 -26 43 -10 33 5 -3 9 1 9 9 0 11 -4 12 -13 4 -8
-7 -14 -7 -19 1 -3 5 -4 10 -1 10 3 0 -4 25 -15 55 -11 30 -17 60 -13 66 5 8
3 9 -6 4 -10 -6 -12 -4 -7 8 3 10 3 17 -2 17 -12 0 -43 99 -35 112 4 6 3 8 -3
5 -13 -8 -47 89 -37 105 4 7 3 8 -5 4 -7 -5 -14 4 -18 26 -4 18 -6 36 -5 41 1
4 -3 7 -8 7 -5 0 -10 9 -10 19 0 11 -4 23 -10 26 -5 3 -10 15 -10 26 0 44 -24
52 -153 53 -67 1 -132 0 -144 -2z m240 -465 c4 3 7 1 7 -5 0 -17 -20 -15 -26
3 -4 8 -11 12 -17 8 -6 -4 -7 -1 -2 7 6 10 11 10 20 -3 7 -9 15 -14 18 -10z
m674 7 c-3 -3 -12 -4 -19 -1 -8 3 -5 6 6 6 11 1 17 -2 13 -5z m-197 -494 c0
-5 -4 -10 -10 -10 -5 0 -10 5 -10 10 0 6 5 10 10 10 6 0 10 -4 10 -10z"/>
<path d="M4795 3211 c-3 -5 -2 -12 3 -15 5 -3 9 1 9 9 0 17 -3 19 -12 6z"/>
<path d="M300 3199 c0 -5 5 -7 10 -4 6 3 10 8 10 11 0 2 -4 4 -10 4 -5 0 -10
-5 -10 -11z"/>
<path d="M2436 3202 c-3 -5 1 -9 9 -9 8 0 12 4 9 9 -3 4 -7 8 -9 8 -2 0 -6 -4
-9 -8z"/>
<path d="M4795 3170 c-3 -6 1 -7 9 -4 18 7 21 14 7 14 -6 0 -13 -4 -16 -10z"/>
<path d="M4798 3113 c7 -3 16 -2 19 1 4 3 -2 6 -13 5 -11 0 -14 -3 -6 -6z"/>
<path d="M786 3092 c-2 -4 -1 -14 5 -22 7 -12 9 -12 9 -1 0 11 3 11 18 0 14
-11 13 -10 -2 9 -21 25 -23 25 -30 14z"/>
<path d="M980 3044 c0 -13 18 -39 24 -34 2 3 -2 14 -10 24 -8 11 -14 16 -14
10z"/>
<path d="M955 3020 c-3 -5 -1 -10 4 -10 6 0 11 5 11 10 0 6 -2 10 -4 10 -3 0
-8 -4 -11 -10z"/>
<path d="M4799 3018 c-8 -27 -5 -36 9 -30 10 4 12 7 4 10 -7 2 -10 8 -6 13 3
5 3 9 0 9 -3 0 -6 -1 -7 -2z"/>
<path d="M1010 2978 c11 -12 20 -26 20 -30 0 -5 5 -6 10 -3 6 3 10 1 10 -6 0
-7 3 -10 6 -6 4 3 -7 20 -24 37 -35 34 -53 41 -22 8z"/>
<path d="M1255 2949 c-4 -6 -5 -12 -2 -15 2 -3 7 2 10 11 7 17 1 20 -8 4z"/>
<path d="M1180 2940 c-7 -5 -6 -11 5 -20 13 -11 15 -10 9 6 -5 19 -5 19 10 0
15 -18 15 -18 13 1 -1 20 -17 25 -37 13z"/>
<path d="M1070 2931 c0 -6 4 -13 10 -16 6 -3 7 1 4 9 -7 18 -14 21 -14 7z"/>
<path d="M4795 2921 c-3 -5 -2 -12 3 -15 5 -3 9 1 9 9 0 17 -3 19 -12 6z"/>
<path d="M469 2841 c6 -10 7 -22 3 -26 -4 -5 -1 -5 6 -1 9 5 9 12 2 27 -6 10
-13 19 -16 19 -2 0 0 -8 5 -19z"/>
<path d="M4753 2815 c0 -8 4 -12 9 -9 5 3 6 10 3 15 -9 13 -12 11 -12 -6z"/>
<path d="M2718 2799 c-10 -5 -18 -14 -18 -19 0 -6 8 -10 18 -10 14 0 15 -2 2
-10 -9 -6 -10 -10 -3 -10 6 0 14 -9 18 -19 8 -25 34 -36 30 -13 -1 9 -8 16
-14 15 -10 -3 -15 10 -12 30 1 4 -6 10 -14 13 -14 6 -13 8 2 20 21 16 15 18
-9 3z"/>
<path d="M4796 2802 c-3 -5 1 -9 9 -9 8 0 12 4 9 9 -3 4 -7 8 -9 8 -2 0 -6 -4
-9 -8z"/>
<path d="M313 2715 c0 -8 4 -12 9 -9 5 3 6 10 3 15 -9 13 -12 11 -12 -6z"/>
<path d="M3645 2720 c-3 -6 1 -7 9 -4 18 7 21 14 7 14 -6 0 -13 -4 -16 -10z"/>
<path d="M3326 2701 c-11 -12 -14 -21 -7 -26 11 -6 12 -5 15 15 0 6 8 15 16
20 8 5 10 10 4 10 -6 0 -19 -9 -28 -19z"/>
<path d="M3361 2696 c-9 -11 -9 -16 1 -22 7 -4 10 -4 6 1 -4 4 -3 14 3 22 6 7
9 13 6 13 -2 0 -10 -6 -16 -14z"/>
<path d="M4776 2698 c3 -4 11 -5 19 -1 21 7 19 12 -4 10 -11 0 -18 -5 -15 -9z"/>
<path d="M3775 2649 c-4 -6 -5 -12 -2 -15 2 -3 7 2 10 11 7 17 1 20 -8 4z"/>
<path d="M4755 2641 c-3 -5 -2 -12 3 -15 5 -3 9 1 9 9 0 17 -3 19 -12 6z"/>
<path d="M3356 2607 c3 -10 9 -15 12 -12 3 3 0 11 -7 18 -10 9 -11 8 -5 -6z"/>
<path d="M3775 2609 c-4 -6 -5 -12 -2 -15 2 -3 7 2 10 11 7 17 1 20 -8 4z"/>
<path d="M313 2595 c0 -8 4 -12 9 -9 5 3 6 10 3 15 -9 13 -12 11 -12 -6z"/>
<path d="M2810 2569 c-11 -8 -12 -12 -2 -16 6 -2 9 -10 5 -16 -3 -7 -2 -9 2
-4 7 5 16 48 11 47 -1 0 -8 -5 -16 -11z"/>
<path d="M4735 2569 c-4 -6 -5 -12 -2 -15 2 -3 7 2 10 11 7 17 1 20 -8 4z"/>
<path d="M2303 2564 c4 -4 2 -13 -4 -21 -15 -17 -1 -17 16 1 12 12 12 15 -2
21 -10 3 -14 3 -10 -1z"/>
<path d="M1358 2543 c7 -3 16 -2 19 1 4 3 -2 6 -13 5 -11 0 -14 -3 -6 -6z"/>
<path d="M3270 2545 c0 -7 30 -13 34 -7 3 4 -4 9 -15 9 -10 1 -19 0 -19 -2z"/>
<path d="M2831 2514 c0 -11 3 -14 6 -6 3 7 2 16 -1 19 -3 4 -6 -2 -5 -13z"/>
<path d="M1277 2513 c-10 -9 -9 -23 1 -23 5 0 9 7 9 15 0 17 -1 18 -10 8z"/>
<path d="M3789 2502 c-13 -15 -12 -16 4 -3 20 15 22 9 6 -22 -10 -21 -10 -21
5 -3 18 23 20 32 7 40 -5 3 -15 -2 -22 -12z"/>
<path d="M994 2486 c0 -13 4 -22 8 -20 9 6 6 44 -3 44 -4 0 -6 -11 -5 -24z"/>
<path d="M2310 2499 c0 -5 5 -7 10 -4 6 3 10 8 10 11 0 2 -4 4 -10 4 -5 0 -10
-5 -10 -11z"/>
<path d="M3236 2475 c-3 -8 -1 -15 4 -15 6 0 10 7 10 15 0 8 -2 15 -4 15 -2 0
-6 -7 -10 -15z"/>
<path d="M1381 2471 c-10 -6 -9 -10 3 -14 8 -3 18 -2 21 3 8 13 -9 20 -24 11z"/>
<path d="M2290 2460 c0 -5 5 -10 11 -10 5 0 7 5 4 10 -3 6 -8 10 -11 10 -2 0
-4 -4 -4 -10z"/>
<path d="M2270 2440 c0 -5 5 -10 11 -10 5 0 7 5 4 10 -3 6 -8 10 -11 10 -2 0
-4 -4 -4 -10z"/>
<path d="M4683 2435 c0 -7 6 -11 14 -8 7 3 13 6 13 8 0 2 -6 5 -13 8 -8 3 -14
-1 -14 -8z"/>
<path d="M1398 2423 c7 -3 16 -2 19 1 4 3 -2 6 -13 5 -11 0 -14 -3 -6 -6z"/>
<path d="M406 2403 c-6 -14 -5 -15 5 -6 7 7 10 15 7 18 -3 3 -9 -2 -12 -12z"/>
<path d="M3226 2404 c-19 -19 -21 -31 -3 -15 8 6 16 9 19 6 2 -3 5 2 5 10 0
19 -2 19 -21 -1z"/>
<path d="M2242 2398 c-16 -16 -15 -25 4 -32 15 -6 15 -4 3 11 -12 15 -12 16 3
10 12 -4 15 -2 11 9 -6 17 -6 17 -21 2z"/>
<path d="M2870 2386 c0 -2 7 -7 16 -10 8 -3 12 -2 9 4 -6 10 -25 14 -25 6z"/>
<path d="M2870 2360 c0 -6 7 -10 15 -10 8 0 15 2 15 4 0 2 -7 6 -15 10 -8 3
-15 1 -15 -4z"/>
<path d="M430 2346 c0 -2 7 -7 16 -10 8 -3 12 -2 9 4 -6 10 -25 14 -25 6z"/>
<path d="M2185 2320 c-3 -5 -1 -10 4 -10 6 0 11 5 11 10 0 6 -2 10 -4 10 -3 0
-8 -4 -11 -10z"/>
<path d="M2220 2320 c-9 -6 -10 -10 -3 -10 6 0 15 5 18 10 8 12 4 12 -15 0z"/>
<path d="M3186 2314 c-5 -13 -4 -14 7 -6 8 7 18 8 22 4 5 -4 5 -1 1 6 -10 17
-23 15 -30 -4z"/>
<path d="M3646 2317 c3 -10 9 -15 12 -12 3 3 0 11 -7 18 -10 9 -11 8 -5 -6z"/>
<path d="M3920 2300 c0 -5 5 -10 11 -10 5 0 7 5 4 10 -3 6 -8 10 -11 10 -2 0
-4 -4 -4 -10z"/>
<path d="M3895 2289 c-4 -6 -5 -12 -2 -15 2 -3 7 2 10 11 7 17 1 20 -8 4z"/>
<path d="M2726 2282 c-3 -5 1 -9 9 -9 8 0 12 4 9 9 -3 4 -7 8 -9 8 -2 0 -6 -4
-9 -8z"/>
<path d="M506 2267 c3 -9 10 -17 16 -17 5 0 6 -4 3 -10 -3 -5 -1 -10 4 -10 17
0 13 15 -9 35 -18 17 -20 17 -14 2z"/>
<path d="M1530 2264 c0 -8 5 -14 10 -14 6 0 10 -7 10 -15 0 -8 4 -15 9 -15 21
0 18 16 -5 37 -17 16 -24 18 -24 7z"/>
<path d="M475 2260 c3 -5 8 -10 11 -10 2 0 4 5 4 10 0 6 -5 10 -11 10 -5 0 -7
-4 -4 -10z"/>
<path d="M2134 2248 l-19 -23 25 20 c14 11 27 21 29 22 2 2 0 3 -6 3 -5 0 -18
-10 -29 -22z"/>
<path d="M300 2239 c0 -5 5 -7 10 -4 6 3 10 8 10 11 0 2 -4 4 -10 4 -5 0 -10
-5 -10 -11z"/>
<path d="M3945 2240 c3 -5 8 -10 11 -10 2 0 4 5 4 10 0 6 -5 10 -11 10 -5 0
-7 -4 -4 -10z"/>
<path d="M4795 2210 c-3 -6 1 -7 9 -4 18 7 21 14 7 14 -6 0 -13 -4 -16 -10z"/>
<path d="M1145 2200 c-3 -6 1 -7 9 -4 18 7 21 14 7 14 -6 0 -13 -4 -16 -10z"/>
<path d="M1559 2193 c-13 -16 -12 -17 4 -4 9 7 17 15 17 17 0 8 -8 3 -21 -13z"/>
<path d="M2710 2200 c-9 -6 -10 -10 -3 -10 6 0 15 5 18 10 8 12 4 12 -15 0z"/>
<path d="M3125 2200 c-3 -5 1 -10 10 -10 9 0 13 5 10 10 -3 6 -8 10 -10 10 -2
0 -7 -4 -10 -10z"/>
<path d="M2502 2167 c-8 -10 -6 -13 9 -14 19 -2 26 11 10 21 -5 3 -14 0 -19
-7z"/>
<path d="M4415 2169 c-4 -6 -12 -8 -19 -6 -7 3 -13 -5 -14 -16 -1 -16 1 -18 7
-8 5 7 14 10 20 7 7 -5 10 -2 9 6 -2 7 3 12 10 10 8 -1 11 2 7 8 -8 13 -12 13
-20 -1z"/>
<path d="M4795 2171 c-6 -11 13 -26 22 -17 4 3 1 6 -6 6 -7 0 -9 5 -6 10 3 6
4 10 1 10 -3 0 -7 -4 -11 -9z"/>
<path d="M705 2160 c-3 -5 -2 -10 4 -10 5 0 13 5 16 10 3 6 2 10 -4 10 -5 0
-13 -4 -16 -10z"/>
<path d="M3070 2161 c0 -5 7 -12 16 -15 14 -5 15 -4 4 9 -14 17 -20 19 -20 6z"/>
<path d="M3483 2149 c-2 -23 3 -25 10 -4 4 8 3 16 -1 19 -4 3 -9 -4 -9 -15z"/>
<path d="M3460 2150 c0 -5 -6 -7 -14 -4 -8 3 -16 1 -20 -4 -3 -5 5 -8 16 -7
19 1 41 25 24 25 -3 0 -6 -4 -6 -10z"/>
<path d="M3016 2142 c-3 -5 1 -9 9 -9 8 0 12 4 9 9 -3 4 -7 8 -9 8 -2 0 -6 -4
-9 -8z"/>
<path d="M4116 2142 c-2 -4 4 -8 14 -8 10 0 16 4 14 8 -3 4 -9 8 -14 8 -5 0
-11 -4 -14 -8z"/>
<path d="M973 2125 c0 -8 4 -12 9 -9 5 3 6 10 3 15 -9 13 -12 11 -12 -6z"/>
<path d="M910 2121 c0 -6 4 -13 10 -16 6 -3 7 1 4 9 -7 18 -14 21 -14 7z"/>
<path d="M4795 2051 c-6 -11 13 -26 22 -17 4 3 1 6 -6 6 -7 0 -9 5 -6 10 3 6
4 10 1 10 -3 0 -7 -4 -11 -9z"/>
<path d="M4795 1931 c-3 -5 -2 -12 3 -15 5 -3 9 1 9 9 0 17 -3 19 -12 6z"/>
<path d="M4795 1890 c-3 -6 1 -7 9 -4 18 7 21 14 7 14 -6 0 -13 -4 -16 -10z"/>
<path d="M4795 1570 c-3 -6 1 -7 9 -4 18 7 21 14 7 14 -6 0 -13 -4 -16 -10z"/>
<path d="M4795 1531 c-6 -11 13 -26 22 -17 4 3 1 6 -6 6 -7 0 -9 5 -6 10 3 6
4 10 1 10 -3 0 -7 -4 -11 -9z"/>
<path d="M313 1515 c0 -8 4 -12 9 -9 5 3 6 10 3 15 -9 13 -12 11 -12 -6z"/>
<path d="M300 1426 c0 -2 8 -10 18 -17 15 -13 16 -12 3 4 -13 16 -21 21 -21
13z"/>
<path d="M5070 4201 c0 -6 4 -13 10 -16 6 -3 7 1 4 9 -7 18 -14 21 -14 7z"/>
<path d="M55 4180 c3 -5 8 -10 11 -10 2 0 4 5 4 10 0 6 -5 10 -11 10 -5 0 -7
-4 -4 -10z"/>
<path d="M5047 4039 c7 -7 15 -10 18 -7 3 3 -2 9 -12 12 -14 6 -15 5 -6 -5z"/>
<path d="M61 3914 c0 -11 3 -14 6 -6 3 7 2 16 -1 19 -3 4 -6 -2 -5 -13z"/>
<path d="M5047 3879 c7 -7 15 -10 18 -7 3 3 -2 9 -12 12 -14 6 -15 5 -6 -5z"/>
<path d="M55 3791 c-6 -11 13 -26 22 -17 4 3 1 6 -6 6 -7 0 -9 5 -6 10 3 6 4
10 1 10 -3 0 -7 -4 -11 -9z"/>
<path d="M5047 3719 c7 -7 15 -10 18 -7 3 3 -2 9 -12 12 -14 6 -15 5 -6 -5z"/>
<path d="M55 3700 c3 -5 8 -10 11 -10 2 0 4 5 4 10 0 6 -5 10 -11 10 -5 0 -7
-4 -4 -10z"/>
<path d="M5047 3559 c7 -7 15 -10 18 -7 3 3 -2 9 -12 12 -14 6 -15 5 -6 -5z"/>
<path d="M61 3434 c0 -11 3 -14 6 -6 3 7 2 16 -1 19 -3 4 -6 -2 -5 -13z"/>
<path d="M5047 3399 c7 -7 15 -10 18 -7 3 3 -2 9 -12 12 -14 6 -15 5 -6 -5z"/>
<path d="M55 3311 c-6 -11 13 -26 22 -17 4 3 1 6 -6 6 -7 0 -9 5 -6 10 3 6 4
10 1 10 -3 0 -7 -4 -11 -9z"/>
<path d="M5047 3239 c7 -7 15 -10 18 -7 3 3 -2 9 -12 12 -14 6 -15 5 -6 -5z"/>
<path d="M55 3220 c3 -5 8 -10 11 -10 2 0 4 5 4 10 0 6 -5 10 -11 10 -5 0 -7
-4 -4 -10z"/>
<path d="M5047 3079 c7 -7 15 -10 18 -7 3 3 -2 9 -12 12 -14 6 -15 5 -6 -5z"/>
<path d="M61 2954 c0 -11 3 -14 6 -6 3 7 2 16 -1 19 -3 4 -6 -2 -5 -13z"/>
<path d="M5047 2919 c7 -7 15 -10 18 -7 3 3 -2 9 -12 12 -14 6 -15 5 -6 -5z"/>
<path d="M55 2831 c-6 -11 13 -26 22 -17 4 3 1 6 -6 6 -7 0 -9 5 -6 10 3 6 4
10 1 10 -3 0 -7 -4 -11 -9z"/>
<path d="M5047 2759 c7 -7 15 -10 18 -7 3 3 -2 9 -12 12 -14 6 -15 5 -6 -5z"/>
<path d="M55 2740 c3 -5 8 -10 11 -10 2 0 4 5 4 10 0 6 -5 10 -11 10 -5 0 -7
-4 -4 -10z"/>
<path d="M5047 2599 c7 -7 15 -10 18 -7 3 3 -2 9 -12 12 -14 6 -15 5 -6 -5z"/>
<path d="M61 2474 c0 -11 3 -14 6 -6 3 7 2 16 -1 19 -3 4 -6 -2 -5 -13z"/>
<path d="M5047 2439 c7 -7 15 -10 18 -7 3 3 -2 9 -12 12 -14 6 -15 5 -6 -5z"/>
<path d="M55 2351 c-6 -11 13 -26 22 -17 4 3 1 6 -6 6 -7 0 -9 5 -6 10 3 6 4
10 1 10 -3 0 -7 -4 -11 -9z"/>
<path d="M5047 2279 c7 -7 15 -10 18 -7 3 3 -2 9 -12 12 -14 6 -15 5 -6 -5z"/>
<path d="M55 2260 c3 -5 8 -10 11 -10 2 0 4 5 4 10 0 6 -5 10 -11 10 -5 0 -7
-4 -4 -10z"/>
<path d="M5047 2119 c7 -7 15 -10 18 -7 3 3 -2 9 -12 12 -14 6 -15 5 -6 -5z"/>
<path d="M61 1994 c0 -11 3 -14 6 -6 3 7 2 16 -1 19 -3 4 -6 -2 -5 -13z"/>
<path d="M5047 1959 c7 -7 15 -10 18 -7 3 3 -2 9 -12 12 -14 6 -15 5 -6 -5z"/>
<path d="M55 1871 c-6 -11 13 -26 22 -17 4 3 1 6 -6 6 -7 0 -9 5 -6 10 3 6 4
10 1 10 -3 0 -7 -4 -11 -9z"/>
<path d="M5047 1799 c7 -7 15 -10 18 -7 3 3 -2 9 -12 12 -14 6 -15 5 -6 -5z"/>
<path d="M55 1780 c3 -5 8 -10 11 -10 2 0 4 5 4 10 0 6 -5 10 -11 10 -5 0 -7
-4 -4 -10z"/>
<path d="M5047 1639 c7 -7 15 -10 18 -7 3 3 -2 9 -12 12 -14 6 -15 5 -6 -5z"/>
<path d="M61 1514 c0 -11 3 -14 6 -6 3 7 2 16 -1 19 -3 4 -6 -2 -5 -13z"/>
<path d="M5047 1479 c7 -7 15 -10 18 -7 3 3 -2 9 -12 12 -14 6 -15 5 -6 -5z"/>
<path d="M55 1391 c-6 -11 13 -26 22 -17 4 3 1 6 -6 6 -7 0 -9 5 -6 10 3 6 4
10 1 10 -3 0 -7 -4 -11 -9z"/>
<path d="M5047 1319 c7 -7 15 -10 18 -7 3 3 -2 9 -12 12 -14 6 -15 5 -6 -5z"/>
<path d="M55 1300 c3 -5 8 -10 11 -10 2 0 4 5 4 10 0 6 -5 10 -11 10 -5 0 -7
-4 -4 -10z"/>
<path d="M257 1134 c-11 -11 -8 -26 3 -19 6 3 10 1 10 -6 0 -7 3 -10 6 -6 3 3
2 13 -3 22 -5 8 -12 12 -16 9z"/>
<path d="M344 1129 c-4 -7 -3 -9 4 -5 5 3 13 0 15 -6 4 -9 6 -10 6 -1 1 17
-16 25 -25 12z"/>
<path d="M467 1133 c-13 -12 -7 -20 16 -18 12 1 33 -5 47 -13 l25 -14 -25 20
c-14 11 -27 19 -29 16 -2 -2 -9 1 -16 6 -7 5 -15 7 -18 3z"/>
<path d="M735 1130 c-3 -5 -1 -10 4 -10 6 0 11 5 11 10 0 6 -2 10 -4 10 -3 0
-8 -4 -11 -10z"/>
<path d="M856 1132 c-2 -4 -1 -14 5 -22 7 -12 9 -10 9 8 0 23 -5 28 -14 14z"/>
<path d="M1215 1131 c-3 -5 -1 -12 5 -16 5 -3 10 1 10 9 0 18 -6 21 -15 7z"/>
<path d="M1305 1129 c-5 -8 -4 -10 3 -5 7 4 12 1 12 -8 0 -20 -5 -20 -24 0 -9
8 -16 11 -16 5 0 -6 9 -15 20 -21 16 -9 22 -8 26 5 8 21 -11 42 -21 24z"/>
<path d="M1427 1133 c-13 -12 -7 -20 16 -18 12 1 33 -5 47 -13 l25 -14 -25 20
c-14 11 -27 19 -29 16 -2 -2 -9 1 -16 6 -7 5 -15 7 -18 3z"/>
<path d="M1695 1130 c-3 -5 -1 -10 4 -10 6 0 11 5 11 10 0 6 -2 10 -4 10 -3 0
-8 -4 -11 -10z"/>
<path d="M1816 1132 c-2 -4 -1 -14 5 -22 7 -12 9 -10 9 8 0 23 -5 28 -14 14z"/>
<path d="M2175 1131 c-3 -5 -1 -12 5 -16 5 -3 10 1 10 9 0 18 -6 21 -15 7z"/>
<path d="M2265 1129 c-5 -8 -4 -10 3 -5 7 4 12 1 12 -8 0 -20 -5 -20 -24 0 -9
8 -16 11 -16 5 0 -6 9 -15 20 -21 16 -9 22 -8 26 5 8 21 -11 42 -21 24z"/>
<path d="M2387 1133 c-13 -12 -7 -20 16 -18 12 1 33 -5 47 -13 l25 -14 -25 20
c-14 11 -27 19 -29 16 -2 -2 -9 1 -16 6 -7 5 -15 7 -18 3z"/>
<path d="M2554 1128 c-3 -5 -10 -6 -15 -3 -5 4 -9 2 -9 -4 0 -13 52 -9 57 5 4
13 -25 15 -33 2z"/>
<path d="M2735 1130 c-3 -5 -1 -10 4 -10 6 0 11 5 11 10 0 6 -2 10 -4 10 -3 0
-8 -4 -11 -10z"/>
<path d="M3055 1130 c-3 -5 -1 -10 4 -10 6 0 11 5 11 10 0 6 -2 10 -4 10 -3 0
-8 -4 -11 -10z"/>
<path d="M3375 1130 c-3 -5 -1 -10 4 -10 6 0 11 5 11 10 0 6 -2 10 -4 10 -3 0
-8 -4 -11 -10z"/>
<path d="M3695 1130 c-3 -5 -1 -10 4 -10 6 0 11 5 11 10 0 6 -2 10 -4 10 -3 0
-8 -4 -11 -10z"/>
<path d="M4095 1131 c-3 -5 -1 -12 5 -16 5 -3 10 1 10 9 0 18 -6 21 -15 7z"/>
<path d="M4184 1129 c-4 -7 -3 -9 4 -5 5 3 13 0 15 -6 4 -9 6 -10 6 -1 1 17
-16 25 -25 12z"/>
<path d="M4307 1133 c-13 -12 -7 -20 16 -18 12 1 33 -5 47 -13 l25 -14 -25 20
c-14 11 -27 19 -29 16 -2 -2 -9 1 -16 6 -7 5 -15 7 -18 3z"/>
<path d="M4575 1130 c-3 -5 -1 -10 4 -10 6 0 11 5 11 10 0 6 -2 10 -4 10 -3 0
-8 -4 -11 -10z"/>
<path d="M4696 1132 c-2 -4 -1 -14 5 -22 7 -12 9 -10 9 8 0 23 -5 28 -14 14z"/>
<path d="M296 1113 c-6 -14 -5 -15 5 -6 7 7 10 15 7 18 -3 3 -9 -2 -12 -12z"/>
<path d="M320 1121 c0 -13 39 -35 48 -27 3 3 0 6 -6 6 -6 0 -18 7 -26 16 -9 8
-16 11 -16 5z"/>
<path d="M386 1122 c-3 -5 1 -9 9 -9 8 0 12 4 9 9 -3 4 -7 8 -9 8 -2 0 -6 -4
-9 -8z"/>
<path d="M550 1118 c0 -6 3 -8 6 -5 4 3 15 2 25 -4 14 -7 17 -6 14 4 -7 16
-45 20 -45 5z"/>
<path d="M610 1118 c0 -4 4 -8 9 -8 6 0 12 4 15 8 3 5 -1 9 -9 9 -8 0 -15 -4
-15 -9z"/>
<path d="M1030 1118 c0 -6 3 -8 6 -5 4 3 15 2 25 -4 14 -7 17 -6 14 4 -7 16
-45 20 -45 5z"/>
<path d="M1090 1118 c0 -4 4 -8 9 -8 6 0 12 4 15 8 3 5 -1 9 -9 9 -8 0 -15 -4
-15 -9z"/>
<path d="M1257 1111 c-4 -17 -3 -21 5 -13 5 5 8 16 6 23 -3 8 -7 3 -11 -10z"/>
<path d="M1346 1122 c-3 -5 1 -9 9 -9 8 0 12 4 9 9 -3 4 -7 8 -9 8 -2 0 -6 -4
-9 -8z"/>
<path d="M1510 1118 c0 -6 3 -8 6 -5 4 3 15 2 25 -4 14 -7 17 -6 14 4 -7 16
-45 20 -45 5z"/>
<path d="M1570 1118 c0 -4 4 -8 9 -8 6 0 12 4 15 8 3 5 -1 9 -9 9 -8 0 -15 -4
-15 -9z"/>
<path d="M1990 1118 c0 -6 3 -8 6 -5 4 3 15 2 25 -4 14 -7 17 -6 14 4 -7 16
-45 20 -45 5z"/>
<path d="M2050 1118 c0 -4 4 -8 9 -8 6 0 12 4 15 8 3 5 -1 9 -9 9 -8 0 -15 -4
-15 -9z"/>
<path d="M2217 1111 c-4 -17 -3 -21 5 -13 5 5 8 16 6 23 -3 8 -7 3 -11 -10z"/>
<path d="M2306 1122 c-3 -5 1 -9 9 -9 8 0 12 4 9 9 -3 4 -7 8 -9 8 -2 0 -6 -4
-9 -8z"/>
<path d="M2470 1118 c0 -6 3 -8 6 -5 4 3 15 2 25 -4 14 -7 17 -6 14 4 -7 16
-45 20 -45 5z"/>
<path d="M2680 1120 c0 -5 5 -10 11 -10 5 0 7 5 4 10 -3 6 -8 10 -11 10 -2 0
-4 -4 -4 -10z"/>
<path d="M2805 1119 c-6 -8 -4 -10 5 -4 10 6 12 4 6 -11 -6 -15 -5 -17 5 -6 9
9 10 15 2 23 -8 8 -13 7 -18 -2z"/>
<path d="M3000 1120 c0 -5 5 -10 11 -10 5 0 7 5 4 10 -3 6 -8 10 -11 10 -2 0
-4 -4 -4 -10z"/>
<path d="M3125 1119 c-6 -8 -4 -10 5 -4 10 6 12 4 6 -11 -6 -15 -5 -17 5 -6 9
9 10 15 2 23 -8 8 -13 7 -18 -2z"/>
<path d="M3320 1120 c0 -5 5 -10 11 -10 5 0 7 5 4 10 -3 6 -8 10 -11 10 -2 0
-4 -4 -4 -10z"/>
<path d="M3445 1119 c-6 -8 -4 -10 5 -4 10 6 12 4 6 -11 -6 -15 -5 -17 5 -6 9
9 10 15 2 23 -8 8 -13 7 -18 -2z"/>
<path d="M3640 1120 c0 -5 5 -10 11 -10 5 0 7 5 4 10 -3 6 -8 10 -11 10 -2 0
-4 -4 -4 -10z"/>
<path d="M3765 1119 c-6 -8 -4 -10 5 -4 10 6 12 4 6 -11 -6 -15 -5 -17 5 -6 9
9 10 15 2 23 -8 8 -13 7 -18 -2z"/>
<path d="M3910 1118 c0 -6 3 -8 6 -5 4 3 15 2 25 -4 14 -7 17 -6 14 4 -7 16
-45 20 -45 5z"/>
<path d="M3970 1118 c0 -4 4 -8 9 -8 6 0 12 4 15 8 3 5 -1 9 -9 9 -8 0 -15 -4
-15 -9z"/>
<path d="M4137 1111 c-4 -17 -3 -21 5 -13 5 5 8 16 6 23 -3 8 -7 3 -11 -10z"/>
<path d="M4160 1121 c0 -13 39 -35 48 -27 3 3 0 6 -6 6 -6 0 -18 7 -26 16 -9
8 -16 11 -16 5z"/>
<path d="M4226 1122 c-3 -5 1 -9 9 -9 8 0 12 4 9 9 -3 4 -7 8 -9 8 -2 0 -6 -4
-9 -8z"/>
<path d="M4390 1118 c0 -6 3 -8 6 -5 4 3 15 2 25 -4 14 -7 17 -6 14 4 -7 16
-45 20 -45 5z"/>
<path d="M4450 1118 c0 -4 4 -8 9 -8 6 0 12 4 15 8 3 5 -1 9 -9 9 -8 0 -15 -4
-15 -9z"/>
<path d="M4870 1118 c0 -6 3 -8 6 -5 4 3 15 2 25 -4 14 -7 17 -6 14 4 -7 16
-45 20 -45 5z"/>
<path d="M894 1106 c11 -9 24 -16 30 -16 12 0 7 5 -24 19 -24 11 -24 11 -6 -3z"/>
<path d="M1854 1106 c11 -9 24 -16 30 -16 12 0 7 5 -24 19 -24 11 -24 11 -6
-3z"/>
<path d="M2595 1111 c-3 -5 -2 -12 3 -15 5 -3 9 1 9 9 0 17 -3 19 -12 6z"/>
<path d="M2915 1111 c-3 -5 -2 -12 3 -15 5 -3 9 1 9 9 0 17 -3 19 -12 6z"/>
<path d="M3235 1111 c-3 -5 -2 -12 3 -15 5 -3 9 1 9 9 0 17 -3 19 -12 6z"/>
<path d="M3555 1111 c-3 -5 -2 -12 3 -15 5 -3 9 1 9 9 0 17 -3 19 -12 6z"/>
<path d="M4734 1106 c11 -9 24 -16 30 -16 12 0 7 5 -24 19 -24 11 -24 11 -6
-3z"/>
<path d="M835 1100 c-3 -5 -1 -10 4 -10 6 0 11 5 11 10 0 6 -2 10 -4 10 -3 0
-8 -4 -11 -10z"/>
<path d="M1115 1100 c-3 -5 -1 -10 4 -10 6 0 11 5 11 10 0 6 -2 10 -4 10 -3 0
-8 -4 -11 -10z"/>
<path d="M1795 1100 c-3 -5 -1 -10 4 -10 6 0 11 5 11 10 0 6 -2 10 -4 10 -3 0
-8 -4 -11 -10z"/>
<path d="M2075 1100 c-3 -5 -1 -10 4 -10 6 0 11 5 11 10 0 6 -2 10 -4 10 -3 0
-8 -4 -11 -10z"/>
<path d="M2655 1100 c3 -5 8 -10 11 -10 2 0 4 5 4 10 0 6 -5 10 -11 10 -5 0
-7 -4 -4 -10z"/>
<path d="M2975 1100 c3 -5 8 -10 11 -10 2 0 4 5 4 10 0 6 -5 10 -11 10 -5 0
-7 -4 -4 -10z"/>
<path d="M3295 1100 c3 -5 8 -10 11 -10 2 0 4 5 4 10 0 6 -5 10 -11 10 -5 0
-7 -4 -4 -10z"/>
<path d="M3615 1100 c3 -5 8 -10 11 -10 2 0 4 5 4 10 0 6 -5 10 -11 10 -5 0
-7 -4 -4 -10z"/>
<path d="M3995 1100 c-3 -5 -1 -10 4 -10 6 0 11 5 11 10 0 6 -2 10 -4 10 -3 0
-8 -4 -11 -10z"/>
<path d="M4675 1100 c-3 -5 -1 -10 4 -10 6 0 11 5 11 10 0 6 -2 10 -4 10 -3 0
-8 -4 -11 -10z"/>
<path d="M1720 983 c0 -4 -127 -7 -283 -7 -175 1 -291 -2 -307 -9 -14 -6 -29
-9 -33 -8 -5 1 -6 -3 -3 -8 4 -5 2 -12 -3 -15 -15 -10 -22 -72 -11 -102 6 -16
11 -31 12 -34 0 -3 3 -9 8 -15 4 -5 6 -18 5 -28 -2 -9 1 -15 5 -12 5 3 11 1
15 -4 3 -6 13 -7 22 -4 12 5 14 3 8 -7 -5 -8 -4 -11 3 -6 5 3 13 0 15 -6 4
-10 6 -10 6 0 1 6 8 12 17 12 8 0 13 4 10 8 -2 4 6 9 19 10 16 1 26 -5 30 -19
6 -17 9 -19 16 -8 5 8 9 10 9 4 0 -5 7 -1 15 9 8 11 15 14 15 7 0 -7 4 -10 9
-6 6 3 14 -3 20 -12 9 -16 10 -16 11 -2 0 9 7 20 16 23 21 8 24 8 24 -5 0 -5
-4 -8 -9 -4 -5 3 -13 0 -17 -7 -4 -7 -4 -10 1 -6 4 4 14 3 22 -4 11 -9 13 -8
11 2 -2 8 6 15 17 16 11 2 32 5 48 9 15 3 27 1 27 -4 0 -6 -9 -8 -19 -6 -14 3
-18 -1 -14 -12 3 -8 9 -11 12 -6 7 11 27 11 37 1 11 -11 24 -10 24 2 0 5 -5 9
-11 7 -6 -1 -13 4 -14 11 -2 7 -1 8 2 2 2 -5 10 -7 16 -3 19 12 47 14 47 4 0
-6 -9 -8 -20 -6 -12 2 -18 0 -15 -6 4 -5 11 -7 16 -4 5 4 9 0 9 -7 0 -10 2
-10 9 1 7 11 11 10 21 -5 10 -16 11 -16 6 -1 -4 13 0 17 18 17 12 0 26 3 30 7
11 11 56 15 56 5 0 -5 -11 -8 -25 -7 -14 2 -23 -1 -20 -5 3 -5 12 -7 20 -3 14
5 20 -7 16 -30 -1 -5 3 -6 8 -2 6 3 8 12 4 20 -3 8 0 15 7 15 6 0 8 5 5 10 -3
6 -1 10 4 10 6 0 11 -5 11 -11 0 -8 6 -7 17 2 14 12 16 12 8 0 -6 -11 -4 -13
10 -7 16 6 16 4 4 -11 -12 -16 -12 -17 2 -6 8 7 20 9 25 5 5 -4 6 -3 2 3 -18
22 10 32 29 10 5 -4 1 -4 -7 0 -13 8 -13 7 0 -11 22 -29 24 -30 17 -11 -5 13
-1 17 17 17 12 0 26 3 30 7 11 11 56 15 56 5 0 -5 -11 -8 -25 -7 -14 2 -23 -1
-19 -6 3 -5 10 -7 15 -3 5 3 17 0 26 -8 12 -9 15 -9 9 0 -4 7 -2 12 4 12 6 0
8 5 5 10 -3 6 -1 10 5 10 7 0 10 -6 7 -13 -3 -8 -1 -20 4 -28 7 -11 9 -11 9
-1 0 7 5 10 12 6 7 -4 8 -3 4 5 -4 6 -13 8 -19 4 -7 -4 -6 0 2 10 15 19 26 23
15 5 -5 -8 -2 -9 10 -5 12 5 15 3 10 -6 -4 -6 -4 -9 1 -5 4 4 14 0 22 -10 13
-15 13 -15 4 5 -6 12 -11 24 -11 26 0 8 29 2 37 -8 4 -4 2 -5 -4 -1 -9 5 -11
2 -7 -8 3 -8 13 -17 21 -20 13 -5 14 -4 3 9 -15 18 0 20 19 3 11 -10 13 -10 7
0 -4 6 -2 12 4 12 6 0 8 5 5 10 -3 6 -1 10 5 10 7 0 10 -6 7 -13 -3 -8 -1 -20
4 -28 7 -11 9 -11 9 -1 0 7 5 10 12 6 7 -4 8 -3 4 5 -4 6 -12 9 -17 6 -15 -10
-10 2 8 16 14 12 16 12 8 0 -6 -11 -4 -13 9 -8 12 5 15 3 10 -6 -4 -6 -4 -9 1
-5 4 4 14 0 22 -10 13 -15 13 -15 4 5 -6 12 -11 24 -11 26 0 8 29 2 37 -8 4
-4 2 -5 -4 -1 -9 5 -11 2 -7 -8 3 -8 13 -17 21 -20 13 -5 14 -4 3 9 -15 18 0
20 19 3 11 -10 13 -10 7 0 -4 6 -2 12 4 12 6 0 8 5 5 10 -3 6 -1 10 5 10 7 0
10 -6 7 -13 -3 -8 -1 -20 4 -28 7 -11 9 -11 9 -1 0 7 5 10 12 6 7 -4 8 -3 4 5
-4 6 -13 8 -19 4 -7 -4 -6 0 2 10 15 19 26 23 15 5 -5 -8 -2 -9 10 -5 12 5 15
3 10 -6 -4 -6 -4 -9 1 -5 4 4 14 0 22 -10 13 -15 13 -15 4 5 -6 12 -11 24 -11
26 0 8 29 2 37 -8 4 -4 2 -5 -4 -1 -9 5 -11 2 -7 -8 3 -8 13 -17 21 -20 13 -5
14 -4 3 9 -15 18 0 20 19 3 11 -10 13 -10 7 0 -4 6 -2 12 4 12 6 0 8 5 5 10
-3 6 -1 10 5 10 7 0 10 -6 7 -13 -3 -8 -1 -20 4 -28 7 -11 9 -11 9 -1 0 7 5
10 12 6 7 -4 8 -3 4 5 -4 6 -12 9 -17 6 -15 -10 -10 2 8 16 14 12 16 12 8 0
-6 -11 -4 -13 9 -8 12 5 15 3 10 -6 -4 -6 -4 -9 1 -5 4 4 14 0 22 -10 13 -15
13 -15 4 5 -6 12 -11 24 -11 26 0 7 22 3 36 -6 6 -3 14 -3 18 0 11 11 46 14
46 4 0 -6 -9 -8 -19 -6 -14 3 -18 -1 -14 -12 3 -8 9 -11 12 -6 7 11 27 11 37
1 11 -11 24 -10 24 2 0 5 -5 9 -11 7 -6 -1 -13 4 -15 11 -1 7 0 8 3 2 2 -5 10
-7 16 -3 19 12 47 14 47 4 0 -6 -9 -8 -20 -6 -12 2 -18 0 -15 -6 4 -5 11 -7
16 -4 5 4 9 0 9 -7 0 -10 2 -10 9 1 7 11 11 10 21 -5 10 -16 11 -16 6 -1 -4
13 0 17 18 17 12 0 26 3 30 7 11 11 56 15 56 5 0 -5 -11 -8 -25 -7 -14 2 -23
-1 -20 -5 3 -5 12 -7 20 -3 14 5 20 -7 16 -30 -1 -5 3 -6 8 -2 6 3 8 12 4 20
-3 8 0 15 7 15 6 0 8 5 5 10 -3 6 -1 10 4 10 6 0 11 -5 11 -11 0 -8 6 -7 17 2
14 12 16 12 8 0 -6 -11 -4 -13 10 -7 16 6 16 4 4 -11 -12 -16 -12 -17 2 -6 8
7 20 9 25 5 5 -4 6 -3 2 2 -18 23 10 33 29 11 5 -4 1 -4 -7 0 -13 8 -13 7 0
-11 22 -29 24 -30 17 -11 -5 13 -1 17 18 17 13 0 26 4 29 9 4 5 17 8 31 6 17
-1 25 3 26 14 0 12 2 11 8 -4 5 -11 12 -20 17 -20 5 0 15 -4 22 -8 6 -5 12 -5
13 0 0 4 4 -1 8 -11 7 -19 8 -19 13 1 5 17 2 21 -13 18 -11 -2 -19 1 -19 7 0
5 7 8 15 4 10 -3 15 1 16 12 0 15 1 14 8 -2 7 -18 41 -32 41 -18 0 4 14 8 30
8 36 2 41 -11 5 -14 -47 -3 -55 -5 -55 -14 0 -11 7 -10 31 2 14 8 19 7 19 -2
0 -8 3 -9 8 -3 8 12 27 13 38 2 11 -10 24 -9 24 3 0 5 -5 9 -11 7 -6 -1 -13 4
-15 11 -1 7 0 8 3 2 2 -5 10 -7 16 -3 19 12 47 14 47 4 0 -6 -9 -8 -20 -6 -12
2 -18 0 -15 -6 4 -5 11 -7 16 -4 5 4 9 0 9 -7 0 -10 2 -10 9 1 7 11 11 10 21
-5 10 -16 11 -16 6 -1 -4 13 0 17 18 17 12 0 26 3 30 7 11 11 56 15 56 5 0 -5
-11 -8 -25 -7 -14 2 -23 -1 -20 -5 3 -5 12 -7 20 -3 14 5 20 -7 16 -30 -1 -5
3 -6 8 -2 6 3 8 12 4 20 -3 8 0 15 7 15 6 0 8 5 5 10 -3 6 -1 10 4 10 6 0 11
-5 11 -12 0 -9 3 -9 12 0 15 15 28 15 28 1 0 -5 -4 -8 -9 -4 -5 3 -12 1 -16
-5 -4 -6 -11 -8 -16 -5 -5 4 -9 2 -9 -3 0 -6 7 -12 15 -16 8 -3 14 0 12 6 -1
7 4 12 11 13 7 0 17 7 22 15 7 11 10 11 10 2 0 -7 4 -11 9 -7 6 3 14 -3 20
-12 9 -16 10 -16 11 -2 0 9 7 20 16 23 21 8 24 8 24 -5 0 -5 -4 -8 -9 -4 -5 3
-13 0 -17 -7 -4 -7 -4 -10 1 -6 4 4 14 3 22 -4 11 -9 13 -8 11 2 -2 8 6 15 17
16 11 2 32 5 48 9 15 3 27 1 27 -4 0 -6 -9 -8 -19 -6 -14 3 -18 -1 -14 -12 3
-8 9 -11 12 -6 7 11 27 11 37 1 11 -11 24 -10 24 2 0 6 -5 9 -11 8 -6 -2 -13
3 -14 10 -2 7 -1 8 2 2 2 -5 10 -7 16 -3 19 12 47 14 47 4 0 -6 -9 -8 -20 -6
-12 2 -18 0 -15 -6 4 -5 11 -7 16 -4 5 4 9 0 9 -7 0 -10 2 -10 9 1 7 11 11 10
21 -5 10 -17 11 -17 6 -1 -4 13 -1 17 12 15 9 -2 21 -7 25 -13 5 -6 7 -4 4 5
-2 8 -9 15 -15 15 -5 0 -13 2 -16 6 -3 3 6 5 19 5 19 0 25 -5 25 -22 0 -13 4
-25 9 -28 4 -3 6 6 3 21 -3 17 -1 24 6 19 18 -11 104 34 98 51 -3 8 -2 12 3 8
5 -3 12 1 14 7 4 10 7 10 15 0 6 -9 9 7 8 46 -2 65 -22 107 -59 121 -12 5
-486 9 -1054 9 -567 0 -1036 3 -1042 6 -6 4 -11 4 -11 -1 0 -9 -134 -8 -149 2
-6 3 -11 3 -11 -2z m-591 -210 c-3 -21 3 -24 19 -12 15 13 16 12 3 -4 -10 -13
-17 -15 -27 -6 -8 6 -11 15 -8 20 6 11 14 12 13 2z m55 -35 c-9 -14 -23 2 -17
18 4 12 8 13 14 3 4 -7 5 -17 3 -21z m666 10 c0 -6 -6 -5 -15 2 -8 7 -15 14
-15 16 0 2 7 1 15 -2 8 -4 15 -11 15 -16z m250 -10 c0 -12 -6 -9 -26 13 -19
22 -19 22 4 8 12 -8 22 -17 22 -21z m160 0 c0 -12 -6 -9 -26 13 -19 22 -19 22
4 8 12 -8 22 -17 22 -21z m160 0 c0 -12 -6 -9 -26 13 -19 22 -19 22 4 8 12 -8
22 -17 22 -21z m150 26 c0 -8 -19 -13 -24 -6 -3 5 1 9 9 9 8 0 15 -2 15 -3z
m400 -16 c0 -6 -6 -5 -15 2 -8 7 -15 14 -15 16 0 2 7 1 15 -2 8 -4 15 -11 15
-16z m-1682 -13 c-3 -3 -9 2 -12 12 -6 14 -5 15 5 6 7 -7 10 -15 7 -18z"/>
<path d="M4050 840 c0 -5 5 -10 11 -10 5 0 7 5 4 10 -3 6 -8 10 -11 10 -2 0
-4 -4 -4 -10z"/>
<path d="M1060 815 c7 -8 17 -15 22 -15 5 0 3 7 -6 15 -8 8 -18 15 -22 15 -3
0 -1 -7 6 -15z"/>
<path d="M1066 783 c6 -4 14 -15 17 -23 5 -11 6 -9 4 4 -1 11 -9 21 -17 23
-10 3 -11 2 -4 -4z"/>
<path d="M4003 765 c-16 -15 -19 -25 -12 -35 9 -13 10 -13 6 0 -2 8 7 22 20
31 14 9 21 19 16 21 -4 2 -18 -5 -30 -17z"/>
<path d="M4016 742 c-3 -5 1 -9 9 -9 8 0 12 4 9 9 -3 4 -7 8 -9 8 -2 0 -6 -4
-9 -8z"/>
<path d="M1217 733 c-13 -12 -7 -22 12 -20 11 0 17 6 14 14 -6 14 -16 17 -26
6z"/>
<path d="M2536 727 c7 -21 31 -29 31 -11 0 8 -3 12 -5 9 -3 -3 -11 0 -19 7
-11 8 -12 7 -7 -5z"/>
<path d="M3004 728 c-3 -5 -3 -12 0 -15 3 -4 6 -2 6 3 0 5 9 10 20 11 18 2 25
-8 21 -30 -1 -5 3 -6 8 -2 6 3 7 13 4 22 -5 13 -3 13 21 -2 23 -15 26 -15 20
-2 -3 9 -9 16 -12 15 -4 0 -9 1 -12 2 -16 7 -71 6 -76 -2z"/>
<path d="M3950 736 c0 -2 7 -9 15 -16 13 -11 14 -10 9 4 -5 14 -24 23 -24 12z"/>
<path d="M1300 719 c0 -4 6 -9 13 -12 8 -3 14 0 14 7 0 7 -6 13 -14 13 -7 0
-13 -4 -13 -8z"/>
<path d="M1430 721 c0 -6 4 -12 8 -15 5 -3 9 1 9 9 0 8 -4 15 -9 15 -4 0 -8
-4 -8 -9z"/>
<path d="M1720 719 c0 -4 6 -9 13 -12 8 -3 14 0 14 7 0 7 -6 13 -14 13 -7 0
-13 -4 -13 -8z"/>
<path d="M2840 719 c0 -4 6 -9 13 -12 8 -3 14 0 14 7 0 7 -6 13 -14 13 -7 0
-13 -4 -13 -8z"/>
<path d="M3540 719 c0 -4 6 -9 13 -12 8 -3 14 0 14 7 0 7 -6 13 -14 13 -7 0
-13 -4 -13 -8z"/>
<path d="M3670 721 c0 -6 4 -12 8 -15 5 -3 9 1 9 9 0 8 -4 15 -9 15 -4 0 -8
-4 -8 -9z"/>
<path d="M3930 721 c0 -6 4 -13 10 -16 6 -3 7 1 4 9 -7 18 -14 21 -14 7z"/>
<path d="M1355 700 c-3 -6 1 -7 9 -4 18 7 21 14 7 14 -6 0 -13 -4 -16 -10z"/>
<path d="M1908 703 c7 -3 16 -2 19 1 4 3 -2 6 -13 5 -11 0 -14 -3 -6 -6z"/>
<path d="M3595 700 c-3 -6 1 -7 9 -4 18 7 21 14 7 14 -6 0 -13 -4 -16 -10z"/>
</g>
</svg>
